solid OpenSCAD_Model
  facet normal 1 0 0
    outer loop
      vertex 30 39 35
      vertex 30 35 35
      vertex 30 39 31.5
    endloop
  endfacet
  facet normal 1 0 0
    outer loop
      vertex 30 49 31.5
      vertex 30 41.5 5
      vertex 30 49 -31.5
    endloop
  endfacet
  facet normal 1 -0 0
    outer loop
      vertex 30 39 31.5
      vertex 30 41.5 5
      vertex 30 49 31.5
    endloop
  endfacet
  facet normal 1 0 0
    outer loop
      vertex 30 35 5
      vertex 30 39 31.5
      vertex 30 35 35
    endloop
  endfacet
  facet normal 1 0 0
    outer loop
      vertex 30 39 31.5
      vertex 30 35 5
      vertex 30 41.5 5
    endloop
  endfacet
  facet normal 1 -0 0
    outer loop
      vertex 30 41.5 -5
      vertex 30 49 -31.5
      vertex 30 41.5 5
    endloop
  endfacet
  facet normal 1 0 0
    outer loop
      vertex 30 41.5 -5
      vertex 30 39 -31.5
      vertex 30 49 -31.5
    endloop
  endfacet
  facet normal 1 -0 0
    outer loop
      vertex 30 35 -5
      vertex 30 39 -31.5
      vertex 30 41.5 -5
    endloop
  endfacet
  facet normal 1 0 0
    outer loop
      vertex 30 35 -35
      vertex 30 39 -31.5
      vertex 30 35 -5
    endloop
  endfacet
  facet normal 1 0 0
    outer loop
      vertex 30 39 -31.5
      vertex 30 35 -35
      vertex 30 39 -35
    endloop
  endfacet
  facet normal -0 0 1
    outer loop
      vertex 0 49 31.5
      vertex 10.0792 39 31.5
      vertex 10.0792 49 31.5
    endloop
  endfacet
  facet normal 0 0 1
    outer loop
      vertex 10.0792 39 31.5
      vertex 0 49 31.5
      vertex 0 39 31.5
    endloop
  endfacet
  facet normal -0 0 1
    outer loop
      vertex 19.9208 49 31.5
      vertex 30 39 31.5
      vertex 30 49 31.5
    endloop
  endfacet
  facet normal 0 0 1
    outer loop
      vertex 30 39 31.5
      vertex 19.9208 49 31.5
      vertex 19.9208 39 31.5
    endloop
  endfacet
  facet normal 0 0 -1
    outer loop
      vertex 19.9208 39 -31.5
      vertex 30 49 -31.5
      vertex 30 39 -31.5
    endloop
  endfacet
  facet normal -0 0 -1
    outer loop
      vertex 30 49 -31.5
      vertex 19.9208 39 -31.5
      vertex 19.9208 49 -31.5
    endloop
  endfacet
  facet normal 0 0 -1
    outer loop
      vertex 0 39 -31.5
      vertex 10.0792 49 -31.5
      vertex 10.0792 39 -31.5
    endloop
  endfacet
  facet normal -0 0 -1
    outer loop
      vertex 10.0792 49 -31.5
      vertex 0 39 -31.5
      vertex 0 49 -31.5
    endloop
  endfacet
  facet normal -1 0 0
    outer loop
      vertex 0 35 -35
      vertex 0 39 -31.5
      vertex 0 39 -35
    endloop
  endfacet
  facet normal -1 -0 0
    outer loop
      vertex 0 39 -31.5
      vertex 0 35 -35
      vertex 0 39 31.5
    endloop
  endfacet
  facet normal -1 0 0
    outer loop
      vertex 0 35 35
      vertex 0 39 31.5
      vertex 0 35 -35
    endloop
  endfacet
  facet normal -1 0 0
    outer loop
      vertex 0 39 31.5
      vertex 0 35 35
      vertex 0 39 35
    endloop
  endfacet
  facet normal -1 0 0
    outer loop
      vertex 0 39 -31.5
      vertex 0 49 31.5
      vertex 0 49 -31.5
    endloop
  endfacet
  facet normal -1 -0 0
    outer loop
      vertex 0 49 31.5
      vertex 0 39 -31.5
      vertex 0 39 31.5
    endloop
  endfacet
  facet normal 0 1 0
    outer loop
      vertex 30 49 31.5
      vertex 19.7553 49 30.4549
      vertex 19.9208 49 31.5
    endloop
  endfacet
  facet normal 0 1 0
    outer loop
      vertex 30 49 31.5
      vertex 19.0451 49 29.0611
      vertex 19.7553 49 30.4549
    endloop
  endfacet
  facet normal 0 1 0
    outer loop
      vertex 30 49 31.5
      vertex 17.9389 49 27.9549
      vertex 19.0451 49 29.0611
    endloop
  endfacet
  facet normal 0 1 0
    outer loop
      vertex 17.9389 49 -27.9549
      vertex 17.9389 49 27.9549
      vertex 30 49 31.5
    endloop
  endfacet
  facet normal 0 1 0
    outer loop
      vertex 16.5451 49 27.2447
      vertex 15 49 -27
      vertex 15 49 27
    endloop
  endfacet
  facet normal 0 1 0
    outer loop
      vertex 17.9389 49 27.9549
      vertex 17.9389 49 -27.9549
      vertex 16.5451 49 27.2447
    endloop
  endfacet
  facet normal 0 1 0
    outer loop
      vertex 16.5451 49 27.2447
      vertex 16.5451 49 -27.2447
      vertex 15 49 -27
    endloop
  endfacet
  facet normal 0 1 0
    outer loop
      vertex 16.5451 49 27.2447
      vertex 17.9389 49 -27.9549
      vertex 16.5451 49 -27.2447
    endloop
  endfacet
  facet normal 0 1 -0
    outer loop
      vertex 30 49 -31.5
      vertex 17.9389 49 -27.9549
      vertex 30 49 31.5
    endloop
  endfacet
  facet normal 0 1 0
    outer loop
      vertex 17.9389 49 -27.9549
      vertex 30 49 -31.5
      vertex 19.0451 49 -29.0611
    endloop
  endfacet
  facet normal 0 1 0
    outer loop
      vertex 19.0451 49 -29.0611
      vertex 30 49 -31.5
      vertex 19.7553 49 -30.4549
    endloop
  endfacet
  facet normal 0 1 0
    outer loop
      vertex 19.7553 49 -30.4549
      vertex 30 49 -31.5
      vertex 19.9208 49 -31.5
    endloop
  endfacet
  facet normal 0 1 0
    outer loop
      vertex 10.2447 49 30.4549
      vertex 0 49 31.5
      vertex 10.0792 49 31.5
    endloop
  endfacet
  facet normal 0 1 0
    outer loop
      vertex 10.9549 49 29.0611
      vertex 0 49 31.5
      vertex 10.2447 49 30.4549
    endloop
  endfacet
  facet normal 0 1 0
    outer loop
      vertex 12.0611 49 27.9549
      vertex 0 49 31.5
      vertex 10.9549 49 29.0611
    endloop
  endfacet
  facet normal 0 1 0
    outer loop
      vertex 12.0611 49 -27.9549
      vertex 12.0611 49 27.9549
      vertex 13.4549 49 27.2447
    endloop
  endfacet
  facet normal 0 1 -0
    outer loop
      vertex 15 49 -27
      vertex 13.4549 49 27.2447
      vertex 15 49 27
    endloop
  endfacet
  facet normal 0 1 0
    outer loop
      vertex 13.4549 49 -27.2447
      vertex 13.4549 49 27.2447
      vertex 15 49 -27
    endloop
  endfacet
  facet normal 0 1 0
    outer loop
      vertex 12.0611 49 -27.9549
      vertex 13.4549 49 27.2447
      vertex 13.4549 49 -27.2447
    endloop
  endfacet
  facet normal 0 1 0
    outer loop
      vertex 12.0611 49 27.9549
      vertex 12.0611 49 -27.9549
      vertex 0 49 31.5
    endloop
  endfacet
  facet normal 0 1 0
    outer loop
      vertex 0 49 -31.5
      vertex 12.0611 49 -27.9549
      vertex 10.9549 49 -29.0611
    endloop
  endfacet
  facet normal 0 1 0
    outer loop
      vertex 0 49 -31.5
      vertex 10.9549 49 -29.0611
      vertex 10.2447 49 -30.4549
    endloop
  endfacet
  facet normal 0 1 0
    outer loop
      vertex 0 49 -31.5
      vertex 10.2447 49 -30.4549
      vertex 10.0792 49 -31.5
    endloop
  endfacet
  facet normal 0 1 0
    outer loop
      vertex 12.0611 49 -27.9549
      vertex 0 49 -31.5
      vertex 0 49 31.5
    endloop
  endfacet
  facet normal -0 0 1
    outer loop
      vertex 18.984 39 35
      vertex 30 35 35
      vertex 30 39 35
    endloop
  endfacet
  facet normal -0 0 1
    outer loop
      vertex 11.016 39 35
      vertex 30 35 35
      vertex 18.984 39 35
    endloop
  endfacet
  facet normal 0 0 1
    outer loop
      vertex 0 35 35
      vertex 11.016 39 35
      vertex 0 39 35
    endloop
  endfacet
  facet normal 0 0 1
    outer loop
      vertex 11.016 39 35
      vertex 0 35 35
      vertex 30 35 35
    endloop
  endfacet
  facet normal 0 0 -1
    outer loop
      vertex 30 35 -35
      vertex 18.984 39 -35
      vertex 30 39 -35
    endloop
  endfacet
  facet normal 0 0 -1
    outer loop
      vertex 30 35 -35
      vertex 11.016 39 -35
      vertex 18.984 39 -35
    endloop
  endfacet
  facet normal 0 0 -1
    outer loop
      vertex 0 35 -35
      vertex 11.016 39 -35
      vertex 30 35 -35
    endloop
  endfacet
  facet normal -0 0 -1
    outer loop
      vertex 11.016 39 -35
      vertex 0 35 -35
      vertex 0 39 -35
    endloop
  endfacet
  facet normal 0 1 -0
    outer loop
      vertex 10.9549 39 34.9389
      vertex 0 39 35
      vertex 11.016 39 35
    endloop
  endfacet
  facet normal 0 1 -0
    outer loop
      vertex 10.2447 39 33.5451
      vertex 0 39 35
      vertex 10.9549 39 34.9389
    endloop
  endfacet
  facet normal 0 1 -0
    outer loop
      vertex 10 39 32
      vertex 0 39 35
      vertex 10.2447 39 33.5451
    endloop
  endfacet
  facet normal 0 1 0
    outer loop
      vertex 0 39 31.5
      vertex 10 39 32
      vertex 10.0792 39 31.5
    endloop
  endfacet
  facet normal 0 1 0
    outer loop
      vertex 10 39 32
      vertex 0 39 31.5
      vertex 0 39 35
    endloop
  endfacet
  facet normal 0 1 0
    outer loop
      vertex 30 39 35
      vertex 19.0451 39 34.9389
      vertex 18.984 39 35
    endloop
  endfacet
  facet normal 0 1 0
    outer loop
      vertex 30 39 35
      vertex 19.7553 39 33.5451
      vertex 19.0451 39 34.9389
    endloop
  endfacet
  facet normal 0 1 0
    outer loop
      vertex 30 39 35
      vertex 20 39 32
      vertex 19.7553 39 33.5451
    endloop
  endfacet
  facet normal 0 1 -0
    outer loop
      vertex 30 39 31.5
      vertex 20 39 32
      vertex 30 39 35
    endloop
  endfacet
  facet normal 0 1 0
    outer loop
      vertex 20 39 32
      vertex 30 39 31.5
      vertex 19.9208 39 31.5
    endloop
  endfacet
  facet normal 0 1 0
    outer loop
      vertex 30 39 -31.5
      vertex 20 39 -32
      vertex 19.9208 39 -31.5
    endloop
  endfacet
  facet normal 0 1 -0
    outer loop
      vertex 30 39 -35
      vertex 20 39 -32
      vertex 30 39 -31.5
    endloop
  endfacet
  facet normal 0 1 0
    outer loop
      vertex 20 39 -32
      vertex 30 39 -35
      vertex 19.7553 39 -33.5451
    endloop
  endfacet
  facet normal 0 1 0
    outer loop
      vertex 19.7553 39 -33.5451
      vertex 30 39 -35
      vertex 19.0451 39 -34.9389
    endloop
  endfacet
  facet normal 0 1 0
    outer loop
      vertex 19.0451 39 -34.9389
      vertex 30 39 -35
      vertex 18.984 39 -35
    endloop
  endfacet
  facet normal 0 1 -0
    outer loop
      vertex 10 39 -32
      vertex 0 39 -31.5
      vertex 10.0792 39 -31.5
    endloop
  endfacet
  facet normal 0 1 0
    outer loop
      vertex 0 39 -35
      vertex 10 39 -32
      vertex 10.2447 39 -33.5451
    endloop
  endfacet
  facet normal 0 1 0
    outer loop
      vertex 0 39 -35
      vertex 10.2447 39 -33.5451
      vertex 10.9549 39 -34.9389
    endloop
  endfacet
  facet normal 0 1 0
    outer loop
      vertex 0 39 -35
      vertex 10.9549 39 -34.9389
      vertex 11.016 39 -35
    endloop
  endfacet
  facet normal 0 1 0
    outer loop
      vertex 10 39 -32
      vertex 0 39 -35
      vertex 0 39 -31.5
    endloop
  endfacet
  facet normal 0 1 0
    outer loop
      vertex 16.618 39 33.1756
      vertex 18.984 39 35
      vertex 19.0451 39 34.9389
    endloop
  endfacet
  facet normal 0 1 0
    outer loop
      vertex 18.984 39 35
      vertex 15 39 34
      vertex 11.016 39 35
    endloop
  endfacet
  facet normal 0 1 -0
    outer loop
      vertex 14.382 39 33.9021
      vertex 11.016 39 35
      vertex 15 39 34
    endloop
  endfacet
  facet normal 0 1 0
    outer loop
      vertex 18.984 39 35
      vertex 15.618 39 33.9021
      vertex 15 39 34
    endloop
  endfacet
  facet normal 0 1 0
    outer loop
      vertex 18.984 39 35
      vertex 16.1756 39 33.618
      vertex 15.618 39 33.9021
    endloop
  endfacet
  facet normal 0 1 0
    outer loop
      vertex 16.618 39 33.1756
      vertex 19.0451 39 34.9389
      vertex 19.7553 39 33.5451
    endloop
  endfacet
  facet normal 0 1 0
    outer loop
      vertex 18.984 39 35
      vertex 16.618 39 33.1756
      vertex 16.1756 39 33.618
    endloop
  endfacet
  facet normal 0 1 0
    outer loop
      vertex 19.7553 39 33.5451
      vertex 16.9021 39 32.618
      vertex 16.618 39 33.1756
    endloop
  endfacet
  facet normal 0 1 0
    outer loop
      vertex 20 39 32
      vertex 16.9021 39 32.618
      vertex 19.7553 39 33.5451
    endloop
  endfacet
  facet normal 0 1 0
    outer loop
      vertex 20 39 32
      vertex 17 39 32
      vertex 16.9021 39 32.618
    endloop
  endfacet
  facet normal 0 1 -0
    outer loop
      vertex 19.9208 39 31.5
      vertex 17 39 32
      vertex 20 39 32
    endloop
  endfacet
  facet normal 0 1 0
    outer loop
      vertex 19.9208 39 31.5
      vertex 16.9021 39 31.382
      vertex 17 39 32
    endloop
  endfacet
  facet normal 0 1 -0
    outer loop
      vertex 19.7553 39 30.4549
      vertex 16.9021 39 31.382
      vertex 19.9208 39 31.5
    endloop
  endfacet
  facet normal 0 1 0
    outer loop
      vertex 16.9021 39 31.382
      vertex 19.7553 39 30.4549
      vertex 16.618 39 30.8244
    endloop
  endfacet
  facet normal 0 1 -0
    outer loop
      vertex 19.0451 39 29.0611
      vertex 16.618 39 30.8244
      vertex 19.7553 39 30.4549
    endloop
  endfacet
  facet normal 0 1 -0
    outer loop
      vertex 18.984 39 29
      vertex 16.618 39 30.8244
      vertex 19.0451 39 29.0611
    endloop
  endfacet
  facet normal 0 1 0
    outer loop
      vertex 16.618 39 30.8244
      vertex 18.984 39 29
      vertex 16.1756 39 30.382
    endloop
  endfacet
  facet normal 0 1 0
    outer loop
      vertex 16.1756 39 30.382
      vertex 18.984 39 29
      vertex 15.618 39 30.0979
    endloop
  endfacet
  facet normal 0 1 -0
    outer loop
      vertex 13.8244 39 33.618
      vertex 11.016 39 35
      vertex 14.382 39 33.9021
    endloop
  endfacet
  facet normal 0 1 -0
    outer loop
      vertex 13.382 39 33.1756
      vertex 11.016 39 35
      vertex 13.8244 39 33.618
    endloop
  endfacet
  facet normal 0 1 0
    outer loop
      vertex 11.016 39 35
      vertex 13.382 39 33.1756
      vertex 10.9549 39 34.9389
    endloop
  endfacet
  facet normal 0 1 0
    outer loop
      vertex 10.9549 39 34.9389
      vertex 13.382 39 33.1756
      vertex 10.2447 39 33.5451
    endloop
  endfacet
  facet normal 0 1 -0
    outer loop
      vertex 13.0979 39 32.618
      vertex 10.2447 39 33.5451
      vertex 13.382 39 33.1756
    endloop
  endfacet
  facet normal 0 1 -0
    outer loop
      vertex 13 39 32
      vertex 10.2447 39 33.5451
      vertex 13.0979 39 32.618
    endloop
  endfacet
  facet normal 0 1 0
    outer loop
      vertex 13 39 32
      vertex 10 39 32
      vertex 10.2447 39 33.5451
    endloop
  endfacet
  facet normal 0 1 0
    outer loop
      vertex 13 39 32
      vertex 10.0792 39 31.5
      vertex 10 39 32
    endloop
  endfacet
  facet normal 0 1 0
    outer loop
      vertex 13.0979 39 31.382
      vertex 10.0792 39 31.5
      vertex 13 39 32
    endloop
  endfacet
  facet normal 0 1 0
    outer loop
      vertex 10.2447 39 30.4549
      vertex 13.0979 39 31.382
      vertex 13.382 39 30.8244
    endloop
  endfacet
  facet normal 0 1 0
    outer loop
      vertex 13.0979 39 31.382
      vertex 10.2447 39 30.4549
      vertex 10.0792 39 31.5
    endloop
  endfacet
  facet normal 0 1 0
    outer loop
      vertex 11.016 39 29
      vertex 13.382 39 30.8244
      vertex 13.8244 39 30.382
    endloop
  endfacet
  facet normal 0 1 0
    outer loop
      vertex 11.016 39 29
      vertex 13.8244 39 30.382
      vertex 14.382 39 30.0979
    endloop
  endfacet
  facet normal 0 1 0
    outer loop
      vertex 11.016 39 29
      vertex 14.382 39 30.0979
      vertex 15 39 30
    endloop
  endfacet
  facet normal 0 1 0
    outer loop
      vertex 15.618 39 30.0979
      vertex 18.984 39 29
      vertex 15 39 30
    endloop
  endfacet
  facet normal 0 1 0
    outer loop
      vertex 11.016 39 29
      vertex 15 39 30
      vertex 18.984 39 29
    endloop
  endfacet
  facet normal 0 1 0
    outer loop
      vertex 13.382 39 30.8244
      vertex 11.016 39 29
      vertex 10.9549 39 29.0611
    endloop
  endfacet
  facet normal 0 1 0
    outer loop
      vertex 13.382 39 30.8244
      vertex 10.9549 39 29.0611
      vertex 10.2447 39 30.4549
    endloop
  endfacet
  facet normal 0 1 0
    outer loop
      vertex 16.618 39 -30.8244
      vertex 18.984 39 -29
      vertex 19.0451 39 -29.0611
    endloop
  endfacet
  facet normal 0 1 0
    outer loop
      vertex 18.984 39 -29
      vertex 15 39 -30
      vertex 11.016 39 -29
    endloop
  endfacet
  facet normal 0 1 -0
    outer loop
      vertex 14.382 39 -30.0979
      vertex 11.016 39 -29
      vertex 15 39 -30
    endloop
  endfacet
  facet normal 0 1 0
    outer loop
      vertex 18.984 39 -29
      vertex 15.618 39 -30.0979
      vertex 15 39 -30
    endloop
  endfacet
  facet normal 0 1 0
    outer loop
      vertex 18.984 39 -29
      vertex 16.1756 39 -30.382
      vertex 15.618 39 -30.0979
    endloop
  endfacet
  facet normal 0 1 0
    outer loop
      vertex 16.618 39 -30.8244
      vertex 19.0451 39 -29.0611
      vertex 19.7553 39 -30.4549
    endloop
  endfacet
  facet normal 0 1 0
    outer loop
      vertex 18.984 39 -29
      vertex 16.618 39 -30.8244
      vertex 16.1756 39 -30.382
    endloop
  endfacet
  facet normal 0 1 0
    outer loop
      vertex 19.7553 39 -30.4549
      vertex 16.9021 39 -31.382
      vertex 16.618 39 -30.8244
    endloop
  endfacet
  facet normal 0 1 0
    outer loop
      vertex 19.9208 39 -31.5
      vertex 16.9021 39 -31.382
      vertex 19.7553 39 -30.4549
    endloop
  endfacet
  facet normal 0 1 0
    outer loop
      vertex 17 39 -32
      vertex 19.9208 39 -31.5
      vertex 20 39 -32
    endloop
  endfacet
  facet normal 0 1 0
    outer loop
      vertex 19.9208 39 -31.5
      vertex 17 39 -32
      vertex 16.9021 39 -31.382
    endloop
  endfacet
  facet normal 0 1 0
    outer loop
      vertex 20 39 -32
      vertex 16.9021 39 -32.618
      vertex 17 39 -32
    endloop
  endfacet
  facet normal 0 1 -0
    outer loop
      vertex 19.7553 39 -33.5451
      vertex 16.9021 39 -32.618
      vertex 20 39 -32
    endloop
  endfacet
  facet normal 0 1 0
    outer loop
      vertex 16.9021 39 -32.618
      vertex 19.7553 39 -33.5451
      vertex 16.618 39 -33.1756
    endloop
  endfacet
  facet normal 0 1 -0
    outer loop
      vertex 19.0451 39 -34.9389
      vertex 16.618 39 -33.1756
      vertex 19.7553 39 -33.5451
    endloop
  endfacet
  facet normal 0 1 -0
    outer loop
      vertex 18.984 39 -35
      vertex 16.618 39 -33.1756
      vertex 19.0451 39 -34.9389
    endloop
  endfacet
  facet normal 0 1 0
    outer loop
      vertex 16.618 39 -33.1756
      vertex 18.984 39 -35
      vertex 16.1756 39 -33.618
    endloop
  endfacet
  facet normal 0 1 0
    outer loop
      vertex 16.1756 39 -33.618
      vertex 18.984 39 -35
      vertex 15.618 39 -33.9021
    endloop
  endfacet
  facet normal 0 1 -0
    outer loop
      vertex 13.8244 39 -30.382
      vertex 11.016 39 -29
      vertex 14.382 39 -30.0979
    endloop
  endfacet
  facet normal 0 1 -0
    outer loop
      vertex 13.382 39 -30.8244
      vertex 11.016 39 -29
      vertex 13.8244 39 -30.382
    endloop
  endfacet
  facet normal 0 1 0
    outer loop
      vertex 11.016 39 -29
      vertex 13.382 39 -30.8244
      vertex 10.9549 39 -29.0611
    endloop
  endfacet
  facet normal 0 1 0
    outer loop
      vertex 10.9549 39 -29.0611
      vertex 13.382 39 -30.8244
      vertex 10.2447 39 -30.4549
    endloop
  endfacet
  facet normal 0 1 -0
    outer loop
      vertex 13.0979 39 -31.382
      vertex 10.2447 39 -30.4549
      vertex 13.382 39 -30.8244
    endloop
  endfacet
  facet normal 0 1 0
    outer loop
      vertex 13.0979 39 -31.382
      vertex 10.0792 39 -31.5
      vertex 10.2447 39 -30.4549
    endloop
  endfacet
  facet normal 0 1 -0
    outer loop
      vertex 13 39 -32
      vertex 10.0792 39 -31.5
      vertex 13.0979 39 -31.382
    endloop
  endfacet
  facet normal 0 1 0
    outer loop
      vertex 13 39 -32
      vertex 10 39 -32
      vertex 10.0792 39 -31.5
    endloop
  endfacet
  facet normal 0 1 0
    outer loop
      vertex 13.0979 39 -32.618
      vertex 10 39 -32
      vertex 13 39 -32
    endloop
  endfacet
  facet normal 0 1 0
    outer loop
      vertex 10.2447 39 -33.5451
      vertex 13.0979 39 -32.618
      vertex 13.382 39 -33.1756
    endloop
  endfacet
  facet normal 0 1 0
    outer loop
      vertex 13.0979 39 -32.618
      vertex 10.2447 39 -33.5451
      vertex 10 39 -32
    endloop
  endfacet
  facet normal 0 1 0
    outer loop
      vertex 11.016 39 -35
      vertex 13.382 39 -33.1756
      vertex 13.8244 39 -33.618
    endloop
  endfacet
  facet normal 0 1 0
    outer loop
      vertex 11.016 39 -35
      vertex 13.8244 39 -33.618
      vertex 14.382 39 -33.9021
    endloop
  endfacet
  facet normal 0 1 0
    outer loop
      vertex 11.016 39 -35
      vertex 14.382 39 -33.9021
      vertex 15 39 -34
    endloop
  endfacet
  facet normal 0 1 0
    outer loop
      vertex 15.618 39 -33.9021
      vertex 18.984 39 -35
      vertex 15 39 -34
    endloop
  endfacet
  facet normal 0 1 0
    outer loop
      vertex 11.016 39 -35
      vertex 15 39 -34
      vertex 18.984 39 -35
    endloop
  endfacet
  facet normal 0 1 0
    outer loop
      vertex 13.382 39 -33.1756
      vertex 11.016 39 -35
      vertex 10.9549 39 -34.9389
    endloop
  endfacet
  facet normal 0 1 0
    outer loop
      vertex 13.382 39 -33.1756
      vertex 10.9549 39 -34.9389
      vertex 10.2447 39 -33.5451
    endloop
  endfacet
  facet normal 0 -1 0
    outer loop
      vertex 0 35 35
      vertex 15 35 34
      vertex 30 35 35
    endloop
  endfacet
  facet normal 0 -1 0
    outer loop
      vertex 0 35 35
      vertex 14.382 35 33.9021
      vertex 15 35 34
    endloop
  endfacet
  facet normal 0 -1 0
    outer loop
      vertex 0 35 35
      vertex 13.8244 35 33.618
      vertex 14.382 35 33.9021
    endloop
  endfacet
  facet normal 0 -1 0
    outer loop
      vertex 0 35 35
      vertex 13.382 35 33.1756
      vertex 13.8244 35 33.618
    endloop
  endfacet
  facet normal 0 -1 0
    outer loop
      vertex 0 35 35
      vertex 13.0979 35 32.618
      vertex 13.382 35 33.1756
    endloop
  endfacet
  facet normal 0 -1 0
    outer loop
      vertex 2 35 29
      vertex 13.0979 35 32.618
      vertex 0 35 35
    endloop
  endfacet
  facet normal 0 -1 0
    outer loop
      vertex 13.0979 35 32.618
      vertex 2 35 29
      vertex 13 35 32
    endloop
  endfacet
  facet normal 0 -1 -0
    outer loop
      vertex 13 35 32
      vertex 2 35 29
      vertex 13.0979 35 31.382
    endloop
  endfacet
  facet normal 0 -1 -0
    outer loop
      vertex 13.0979 35 31.382
      vertex 2 35 29
      vertex 13.382 35 30.8244
    endloop
  endfacet
  facet normal 0 -1 -0
    outer loop
      vertex 13.382 35 30.8244
      vertex 2 35 29
      vertex 13.8244 35 30.382
    endloop
  endfacet
  facet normal 0 -1 -0
    outer loop
      vertex 14.382 35 30.0979
      vertex 2 35 29
      vertex 15 35 30
    endloop
  endfacet
  facet normal 0 -1 -0
    outer loop
      vertex 13.8244 35 30.382
      vertex 2 35 29
      vertex 14.382 35 30.0979
    endloop
  endfacet
  facet normal 0 -1 0
    outer loop
      vertex 0 35 35
      vertex 2 35 -29
      vertex 2 35 29
    endloop
  endfacet
  facet normal 0 -1 0
    outer loop
      vertex 2 35 -29
      vertex 15 35 -30
      vertex 28 35 -29
    endloop
  endfacet
  facet normal 0 -1 0
    outer loop
      vertex 2 35 -29
      vertex 14.382 35 -30.0979
      vertex 15 35 -30
    endloop
  endfacet
  facet normal 0 -1 0
    outer loop
      vertex 2 35 -29
      vertex 13.8244 35 -30.382
      vertex 14.382 35 -30.0979
    endloop
  endfacet
  facet normal 0 -1 0
    outer loop
      vertex 2 35 -29
      vertex 13.382 35 -30.8244
      vertex 13.8244 35 -30.382
    endloop
  endfacet
  facet normal 0 -1 0
    outer loop
      vertex 2 35 -29
      vertex 13.0979 35 -31.382
      vertex 13.382 35 -30.8244
    endloop
  endfacet
  facet normal 0 -1 0
    outer loop
      vertex 2 35 -29
      vertex 13 35 -32
      vertex 13.0979 35 -31.382
    endloop
  endfacet
  facet normal 0 -1 0
    outer loop
      vertex 2 35 -29
      vertex 13.0979 35 -32.618
      vertex 13 35 -32
    endloop
  endfacet
  facet normal 0 -1 0
    outer loop
      vertex 0 35 -35
      vertex 13.0979 35 -32.618
      vertex 2 35 -29
    endloop
  endfacet
  facet normal 0 -1 -0
    outer loop
      vertex 13.0979 35 -32.618
      vertex 0 35 -35
      vertex 13.382 35 -33.1756
    endloop
  endfacet
  facet normal 0 -1 -0
    outer loop
      vertex 13.382 35 -33.1756
      vertex 0 35 -35
      vertex 13.8244 35 -33.618
    endloop
  endfacet
  facet normal 0 -1 -0
    outer loop
      vertex 14.382 35 -33.9021
      vertex 0 35 -35
      vertex 15 35 -34
    endloop
  endfacet
  facet normal 0 -1 -0
    outer loop
      vertex 13.8244 35 -33.618
      vertex 0 35 -35
      vertex 14.382 35 -33.9021
    endloop
  endfacet
  facet normal 0 -1 0
    outer loop
      vertex 0 35 -35
      vertex 2 35 -29
      vertex 0 35 35
    endloop
  endfacet
  facet normal 0 -1 0
    outer loop
      vertex 15.618 35 33.9021
      vertex 30 35 35
      vertex 15 35 34
    endloop
  endfacet
  facet normal 0 -1 0
    outer loop
      vertex 16.1756 35 33.618
      vertex 30 35 35
      vertex 15.618 35 33.9021
    endloop
  endfacet
  facet normal 0 -1 0
    outer loop
      vertex 16.618 35 33.1756
      vertex 30 35 35
      vertex 16.1756 35 33.618
    endloop
  endfacet
  facet normal 0 -1 0
    outer loop
      vertex 16.9021 35 32.618
      vertex 30 35 35
      vertex 16.618 35 33.1756
    endloop
  endfacet
  facet normal 0 -1 0
    outer loop
      vertex 28 35 29
      vertex 16.9021 35 32.618
      vertex 17 35 32
    endloop
  endfacet
  facet normal 0 -1 0
    outer loop
      vertex 28 35 29
      vertex 17 35 32
      vertex 16.9021 35 31.382
    endloop
  endfacet
  facet normal 0 -1 0
    outer loop
      vertex 28 35 29
      vertex 16.9021 35 31.382
      vertex 16.618 35 30.8244
    endloop
  endfacet
  facet normal 0 -1 0
    outer loop
      vertex 28 35 29
      vertex 16.618 35 30.8244
      vertex 16.1756 35 30.382
    endloop
  endfacet
  facet normal 0 -1 0
    outer loop
      vertex 28 35 29
      vertex 16.1756 35 30.382
      vertex 15.618 35 30.0979
    endloop
  endfacet
  facet normal 0 -1 0
    outer loop
      vertex 28 35 29
      vertex 15 35 30
      vertex 2 35 29
    endloop
  endfacet
  facet normal 0 -1 0
    outer loop
      vertex 28 35 29
      vertex 15.618 35 30.0979
      vertex 15 35 30
    endloop
  endfacet
  facet normal 0 -1 0
    outer loop
      vertex 16.9021 35 32.618
      vertex 28 35 29
      vertex 30 35 35
    endloop
  endfacet
  facet normal 0 -1 0
    outer loop
      vertex 30 35 5
      vertex 28 35 29
      vertex 28 35 5
    endloop
  endfacet
  facet normal 0 -1 0
    outer loop
      vertex 28 35 29
      vertex 30 35 5
      vertex 30 35 35
    endloop
  endfacet
  facet normal 0 -1 0
    outer loop
      vertex 28 35 -29
      vertex 30 35 -5
      vertex 28 35 -5
    endloop
  endfacet
  facet normal 0 -1 0
    outer loop
      vertex 15.618 35 -30.0979
      vertex 28 35 -29
      vertex 15 35 -30
    endloop
  endfacet
  facet normal 0 -1 0
    outer loop
      vertex 16.1756 35 -30.382
      vertex 28 35 -29
      vertex 15.618 35 -30.0979
    endloop
  endfacet
  facet normal 0 -1 0
    outer loop
      vertex 16.618 35 -30.8244
      vertex 28 35 -29
      vertex 16.1756 35 -30.382
    endloop
  endfacet
  facet normal 0 -1 0
    outer loop
      vertex 16.9021 35 -31.382
      vertex 28 35 -29
      vertex 16.618 35 -30.8244
    endloop
  endfacet
  facet normal 0 -1 0
    outer loop
      vertex 17 35 -32
      vertex 28 35 -29
      vertex 16.9021 35 -31.382
    endloop
  endfacet
  facet normal 0 -1 0
    outer loop
      vertex 16.9021 35 -32.618
      vertex 28 35 -29
      vertex 17 35 -32
    endloop
  endfacet
  facet normal 0 -1 0
    outer loop
      vertex 30 35 -35
      vertex 16.9021 35 -32.618
      vertex 16.618 35 -33.1756
    endloop
  endfacet
  facet normal 0 -1 0
    outer loop
      vertex 30 35 -35
      vertex 16.618 35 -33.1756
      vertex 16.1756 35 -33.618
    endloop
  endfacet
  facet normal 0 -1 0
    outer loop
      vertex 30 35 -35
      vertex 16.1756 35 -33.618
      vertex 15.618 35 -33.9021
    endloop
  endfacet
  facet normal 0 -1 0
    outer loop
      vertex 28 35 -29
      vertex 30 35 -35
      vertex 30 35 -5
    endloop
  endfacet
  facet normal 0 -1 0
    outer loop
      vertex 16.9021 35 -32.618
      vertex 30 35 -35
      vertex 28 35 -29
    endloop
  endfacet
  facet normal 0 -1 0
    outer loop
      vertex 15 35 -34
      vertex 30 35 -35
      vertex 15.618 35 -33.9021
    endloop
  endfacet
  facet normal 0 -1 0
    outer loop
      vertex 30 35 -35
      vertex 15 35 -34
      vertex 0 35 -35
    endloop
  endfacet
  facet normal -0.987684 0 0.156463
    outer loop
      vertex 16.9021 35 31.382
      vertex 17 39 32
      vertex 16.9021 39 31.382
    endloop
  endfacet
  facet normal -0.987684 0 0.156463
    outer loop
      vertex 17 39 32
      vertex 16.9021 35 31.382
      vertex 17 35 32
    endloop
  endfacet
  facet normal -0.453976 0 -0.891014
    outer loop
      vertex 15.618 35 33.9021
      vertex 16.1756 39 33.618
      vertex 16.1756 35 33.618
    endloop
  endfacet
  facet normal -0.453976 0 -0.891014
    outer loop
      vertex 16.1756 39 33.618
      vertex 15.618 35 33.9021
      vertex 15.618 39 33.9021
    endloop
  endfacet
  facet normal -0.987684 0 -0.156463
    outer loop
      vertex 17 35 32
      vertex 16.9021 39 32.618
      vertex 17 39 32
    endloop
  endfacet
  facet normal -0.987684 -0 -0.156463
    outer loop
      vertex 16.9021 39 32.618
      vertex 17 35 32
      vertex 16.9021 35 32.618
    endloop
  endfacet
  facet normal 0.707107 -0 0.707107
    outer loop
      vertex 13.382 35 30.8244
      vertex 13.8244 39 30.382
      vertex 13.382 39 30.8244
    endloop
  endfacet
  facet normal 0.707107 0 0.707107
    outer loop
      vertex 13.8244 39 30.382
      vertex 13.382 35 30.8244
      vertex 13.8244 35 30.382
    endloop
  endfacet
  facet normal -0.156463 0 -0.987684
    outer loop
      vertex 15 35 34
      vertex 15.618 39 33.9021
      vertex 15.618 35 33.9021
    endloop
  endfacet
  facet normal -0.156463 0 -0.987684
    outer loop
      vertex 15.618 39 33.9021
      vertex 15 35 34
      vertex 15 39 34
    endloop
  endfacet
  facet normal -0.891014 0 -0.453976
    outer loop
      vertex 16.9021 35 32.618
      vertex 16.618 39 33.1756
      vertex 16.9021 39 32.618
    endloop
  endfacet
  facet normal -0.891014 -0 -0.453976
    outer loop
      vertex 16.618 39 33.1756
      vertex 16.9021 35 32.618
      vertex 16.618 35 33.1756
    endloop
  endfacet
  facet normal -0.891014 0 0.453976
    outer loop
      vertex 16.618 35 30.8244
      vertex 16.9021 39 31.382
      vertex 16.618 39 30.8244
    endloop
  endfacet
  facet normal -0.891014 0 0.453976
    outer loop
      vertex 16.9021 39 31.382
      vertex 16.618 35 30.8244
      vertex 16.9021 35 31.382
    endloop
  endfacet
  facet normal -0.453976 0 0.891014
    outer loop
      vertex 15.618 39 30.0979
      vertex 16.1756 35 30.382
      vertex 16.1756 39 30.382
    endloop
  endfacet
  facet normal -0.453976 0 0.891014
    outer loop
      vertex 16.1756 35 30.382
      vertex 15.618 39 30.0979
      vertex 15.618 35 30.0979
    endloop
  endfacet
  facet normal 0.453976 0 -0.891014
    outer loop
      vertex 13.8244 35 33.618
      vertex 14.382 39 33.9021
      vertex 14.382 35 33.9021
    endloop
  endfacet
  facet normal 0.453976 0 -0.891014
    outer loop
      vertex 14.382 39 33.9021
      vertex 13.8244 35 33.618
      vertex 13.8244 39 33.618
    endloop
  endfacet
  facet normal -0.707107 0 0.707107
    outer loop
      vertex 16.1756 35 30.382
      vertex 16.618 39 30.8244
      vertex 16.1756 39 30.382
    endloop
  endfacet
  facet normal -0.707107 0 0.707107
    outer loop
      vertex 16.618 39 30.8244
      vertex 16.1756 35 30.382
      vertex 16.618 35 30.8244
    endloop
  endfacet
  facet normal -0.156463 0 0.987684
    outer loop
      vertex 15 39 30
      vertex 15.618 35 30.0979
      vertex 15.618 39 30.0979
    endloop
  endfacet
  facet normal -0.156463 0 0.987684
    outer loop
      vertex 15.618 35 30.0979
      vertex 15 39 30
      vertex 15 35 30
    endloop
  endfacet
  facet normal 0.156463 0 0.987684
    outer loop
      vertex 14.382 39 30.0979
      vertex 15 35 30
      vertex 15 39 30
    endloop
  endfacet
  facet normal 0.156463 0 0.987684
    outer loop
      vertex 15 35 30
      vertex 14.382 39 30.0979
      vertex 14.382 35 30.0979
    endloop
  endfacet
  facet normal 0.156463 0 -0.987684
    outer loop
      vertex 14.382 35 33.9021
      vertex 15 39 34
      vertex 15 35 34
    endloop
  endfacet
  facet normal 0.156463 0 -0.987684
    outer loop
      vertex 15 39 34
      vertex 14.382 35 33.9021
      vertex 14.382 39 33.9021
    endloop
  endfacet
  facet normal 0.453976 0 0.891014
    outer loop
      vertex 13.8244 39 30.382
      vertex 14.382 35 30.0979
      vertex 14.382 39 30.0979
    endloop
  endfacet
  facet normal 0.453976 0 0.891014
    outer loop
      vertex 14.382 35 30.0979
      vertex 13.8244 39 30.382
      vertex 13.8244 35 30.382
    endloop
  endfacet
  facet normal 0.987684 -0 0.156463
    outer loop
      vertex 13 35 32
      vertex 13.0979 39 31.382
      vertex 13 39 32
    endloop
  endfacet
  facet normal 0.987684 0 0.156463
    outer loop
      vertex 13.0979 39 31.382
      vertex 13 35 32
      vertex 13.0979 35 31.382
    endloop
  endfacet
  facet normal -0.707107 0 -0.707107
    outer loop
      vertex 16.618 35 33.1756
      vertex 16.1756 39 33.618
      vertex 16.618 39 33.1756
    endloop
  endfacet
  facet normal -0.707107 -0 -0.707107
    outer loop
      vertex 16.1756 39 33.618
      vertex 16.618 35 33.1756
      vertex 16.1756 35 33.618
    endloop
  endfacet
  facet normal 0.987684 0 -0.156463
    outer loop
      vertex 13.0979 35 32.618
      vertex 13 39 32
      vertex 13.0979 39 32.618
    endloop
  endfacet
  facet normal 0.987684 0 -0.156463
    outer loop
      vertex 13 39 32
      vertex 13.0979 35 32.618
      vertex 13 35 32
    endloop
  endfacet
  facet normal 0.891014 0 -0.453976
    outer loop
      vertex 13.382 35 33.1756
      vertex 13.0979 39 32.618
      vertex 13.382 39 33.1756
    endloop
  endfacet
  facet normal 0.891014 0 -0.453976
    outer loop
      vertex 13.0979 39 32.618
      vertex 13.382 35 33.1756
      vertex 13.0979 35 32.618
    endloop
  endfacet
  facet normal 0.891014 -0 0.453976
    outer loop
      vertex 13.0979 35 31.382
      vertex 13.382 39 30.8244
      vertex 13.0979 39 31.382
    endloop
  endfacet
  facet normal 0.891014 0 0.453976
    outer loop
      vertex 13.382 39 30.8244
      vertex 13.0979 35 31.382
      vertex 13.382 35 30.8244
    endloop
  endfacet
  facet normal 0.707107 0 -0.707107
    outer loop
      vertex 13.8244 35 33.618
      vertex 13.382 39 33.1756
      vertex 13.8244 39 33.618
    endloop
  endfacet
  facet normal 0.707107 0 -0.707107
    outer loop
      vertex 13.382 39 33.1756
      vertex 13.8244 35 33.618
      vertex 13.382 35 33.1756
    endloop
  endfacet
  facet normal 0.891014 0 -0.453976
    outer loop
      vertex 13.382 35 -30.8244
      vertex 13.0979 39 -31.382
      vertex 13.382 39 -30.8244
    endloop
  endfacet
  facet normal 0.891014 0 -0.453976
    outer loop
      vertex 13.0979 39 -31.382
      vertex 13.382 35 -30.8244
      vertex 13.0979 35 -31.382
    endloop
  endfacet
  facet normal 0.156463 0 0.987684
    outer loop
      vertex 14.382 39 -33.9021
      vertex 15 35 -34
      vertex 15 39 -34
    endloop
  endfacet
  facet normal 0.156463 0 0.987684
    outer loop
      vertex 15 35 -34
      vertex 14.382 39 -33.9021
      vertex 14.382 35 -33.9021
    endloop
  endfacet
  facet normal -0.987684 0 -0.156463
    outer loop
      vertex 17 35 -32
      vertex 16.9021 39 -31.382
      vertex 17 39 -32
    endloop
  endfacet
  facet normal -0.987684 -0 -0.156463
    outer loop
      vertex 16.9021 39 -31.382
      vertex 17 35 -32
      vertex 16.9021 35 -31.382
    endloop
  endfacet
  facet normal -0.707107 0 -0.707107
    outer loop
      vertex 16.618 35 -30.8244
      vertex 16.1756 39 -30.382
      vertex 16.618 39 -30.8244
    endloop
  endfacet
  facet normal -0.707107 -0 -0.707107
    outer loop
      vertex 16.1756 39 -30.382
      vertex 16.618 35 -30.8244
      vertex 16.1756 35 -30.382
    endloop
  endfacet
  facet normal -0.891014 0 -0.453976
    outer loop
      vertex 16.9021 35 -31.382
      vertex 16.618 39 -30.8244
      vertex 16.9021 39 -31.382
    endloop
  endfacet
  facet normal -0.891014 -0 -0.453976
    outer loop
      vertex 16.618 39 -30.8244
      vertex 16.9021 35 -31.382
      vertex 16.618 35 -30.8244
    endloop
  endfacet
  facet normal 0.453976 0 -0.891014
    outer loop
      vertex 13.8244 35 -30.382
      vertex 14.382 39 -30.0979
      vertex 14.382 35 -30.0979
    endloop
  endfacet
  facet normal 0.453976 0 -0.891014
    outer loop
      vertex 14.382 39 -30.0979
      vertex 13.8244 35 -30.382
      vertex 13.8244 39 -30.382
    endloop
  endfacet
  facet normal -0.156463 0 0.987684
    outer loop
      vertex 15 39 -34
      vertex 15.618 35 -33.9021
      vertex 15.618 39 -33.9021
    endloop
  endfacet
  facet normal -0.156463 0 0.987684
    outer loop
      vertex 15.618 35 -33.9021
      vertex 15 39 -34
      vertex 15 35 -34
    endloop
  endfacet
  facet normal -0.891014 0 0.453976
    outer loop
      vertex 16.618 35 -33.1756
      vertex 16.9021 39 -32.618
      vertex 16.618 39 -33.1756
    endloop
  endfacet
  facet normal -0.891014 0 0.453976
    outer loop
      vertex 16.9021 39 -32.618
      vertex 16.618 35 -33.1756
      vertex 16.9021 35 -32.618
    endloop
  endfacet
  facet normal -0.707107 0 0.707107
    outer loop
      vertex 16.1756 35 -33.618
      vertex 16.618 39 -33.1756
      vertex 16.1756 39 -33.618
    endloop
  endfacet
  facet normal -0.707107 0 0.707107
    outer loop
      vertex 16.618 39 -33.1756
      vertex 16.1756 35 -33.618
      vertex 16.618 35 -33.1756
    endloop
  endfacet
  facet normal 0.987684 0 -0.156463
    outer loop
      vertex 13.0979 35 -31.382
      vertex 13 39 -32
      vertex 13.0979 39 -31.382
    endloop
  endfacet
  facet normal 0.987684 0 -0.156463
    outer loop
      vertex 13 39 -32
      vertex 13.0979 35 -31.382
      vertex 13 35 -32
    endloop
  endfacet
  facet normal 0.987684 -0 0.156463
    outer loop
      vertex 13 35 -32
      vertex 13.0979 39 -32.618
      vertex 13 39 -32
    endloop
  endfacet
  facet normal 0.987684 0 0.156463
    outer loop
      vertex 13.0979 39 -32.618
      vertex 13 35 -32
      vertex 13.0979 35 -32.618
    endloop
  endfacet
  facet normal -0.156463 0 -0.987684
    outer loop
      vertex 15 35 -30
      vertex 15.618 39 -30.0979
      vertex 15.618 35 -30.0979
    endloop
  endfacet
  facet normal -0.156463 0 -0.987684
    outer loop
      vertex 15.618 39 -30.0979
      vertex 15 35 -30
      vertex 15 39 -30
    endloop
  endfacet
  facet normal -0.453976 0 -0.891014
    outer loop
      vertex 15.618 35 -30.0979
      vertex 16.1756 39 -30.382
      vertex 16.1756 35 -30.382
    endloop
  endfacet
  facet normal -0.453976 0 -0.891014
    outer loop
      vertex 16.1756 39 -30.382
      vertex 15.618 35 -30.0979
      vertex 15.618 39 -30.0979
    endloop
  endfacet
  facet normal 0.156463 0 -0.987684
    outer loop
      vertex 14.382 35 -30.0979
      vertex 15 39 -30
      vertex 15 35 -30
    endloop
  endfacet
  facet normal 0.156463 0 -0.987684
    outer loop
      vertex 15 39 -30
      vertex 14.382 35 -30.0979
      vertex 14.382 39 -30.0979
    endloop
  endfacet
  facet normal -0.453976 0 0.891014
    outer loop
      vertex 15.618 39 -33.9021
      vertex 16.1756 35 -33.618
      vertex 16.1756 39 -33.618
    endloop
  endfacet
  facet normal -0.453976 0 0.891014
    outer loop
      vertex 16.1756 35 -33.618
      vertex 15.618 39 -33.9021
      vertex 15.618 35 -33.9021
    endloop
  endfacet
  facet normal 0.707107 0 -0.707107
    outer loop
      vertex 13.8244 35 -30.382
      vertex 13.382 39 -30.8244
      vertex 13.8244 39 -30.382
    endloop
  endfacet
  facet normal 0.707107 0 -0.707107
    outer loop
      vertex 13.382 39 -30.8244
      vertex 13.8244 35 -30.382
      vertex 13.382 35 -30.8244
    endloop
  endfacet
  facet normal 0.891014 -0 0.453976
    outer loop
      vertex 13.0979 35 -32.618
      vertex 13.382 39 -33.1756
      vertex 13.0979 39 -32.618
    endloop
  endfacet
  facet normal 0.891014 0 0.453976
    outer loop
      vertex 13.382 39 -33.1756
      vertex 13.0979 35 -32.618
      vertex 13.382 35 -33.1756
    endloop
  endfacet
  facet normal 0.453976 0 0.891014
    outer loop
      vertex 13.8244 39 -33.618
      vertex 14.382 35 -33.9021
      vertex 14.382 39 -33.9021
    endloop
  endfacet
  facet normal 0.453976 0 0.891014
    outer loop
      vertex 14.382 35 -33.9021
      vertex 13.8244 39 -33.618
      vertex 13.8244 35 -33.618
    endloop
  endfacet
  facet normal -0.987684 0 0.156463
    outer loop
      vertex 16.9021 35 -32.618
      vertex 17 39 -32
      vertex 16.9021 39 -32.618
    endloop
  endfacet
  facet normal -0.987684 0 0.156463
    outer loop
      vertex 17 39 -32
      vertex 16.9021 35 -32.618
      vertex 17 35 -32
    endloop
  endfacet
  facet normal 0.707107 -0 0.707107
    outer loop
      vertex 13.382 35 -33.1756
      vertex 13.8244 39 -33.618
      vertex 13.382 39 -33.1756
    endloop
  endfacet
  facet normal 0.707107 0 0.707107
    outer loop
      vertex 13.8244 39 -33.618
      vertex 13.382 35 -33.1756
      vertex 13.8244 35 -33.618
    endloop
  endfacet
  facet normal -0.891 0 -0.454002
    outer loop
      vertex 19.7553 39 -30.4549
      vertex 19.0451 49 -29.0611
      vertex 19.7553 49 -30.4549
    endloop
  endfacet
  facet normal -0.891 -0 -0.454002
    outer loop
      vertex 19.0451 49 -29.0611
      vertex 19.7553 39 -30.4549
      vertex 19.0451 39 -29.0611
    endloop
  endfacet
  facet normal -0.987692 0 -0.156409
    outer loop
      vertex 19.9208 39 -31.5
      vertex 19.7553 49 -30.4549
      vertex 19.9208 49 -31.5
    endloop
  endfacet
  facet normal -0.987692 -0 -0.156409
    outer loop
      vertex 19.7553 49 -30.4549
      vertex 19.9208 39 -31.5
      vertex 19.7553 39 -30.4549
    endloop
  endfacet
  facet normal 0.987692 0 -0.156409
    outer loop
      vertex 10.2447 39 -30.4549
      vertex 10.0792 49 -31.5
      vertex 10.2447 49 -30.4549
    endloop
  endfacet
  facet normal 0.987692 0 -0.156409
    outer loop
      vertex 10.0792 49 -31.5
      vertex 10.2447 39 -30.4549
      vertex 10.0792 39 -31.5
    endloop
  endfacet
  facet normal 0.454002 0 -0.891
    outer loop
      vertex 12.0611 45 -27.9549
      vertex 13.4549 49 -27.2447
      vertex 13.4549 45 -27.2447
    endloop
  endfacet
  facet normal 0.454002 0 -0.891
    outer loop
      vertex 13.4549 49 -27.2447
      vertex 12.0611 45 -27.9549
      vertex 12.0611 49 -27.9549
    endloop
  endfacet
  facet normal 0.156422 0 -0.98769
    outer loop
      vertex 13.4549 45 -27.2447
      vertex 15 49 -27
      vertex 15 45 -27
    endloop
  endfacet
  facet normal 0.156422 0 -0.98769
    outer loop
      vertex 15 49 -27
      vertex 13.4549 45 -27.2447
      vertex 13.4549 49 -27.2447
    endloop
  endfacet
  facet normal 0.707107 0 -0.707107
    outer loop
      vertex 11.016 45 -29
      vertex 12.0611 49 -27.9549
      vertex 12.0611 45 -27.9549
    endloop
  endfacet
  facet normal 0.707107 3.54839e-17 -0.707107
    outer loop
      vertex 12.0611 49 -27.9549
      vertex 11.016 45 -29
      vertex 10.9549 49 -29.0611
    endloop
  endfacet
  facet normal 0.707107 0 -0.707107
    outer loop
      vertex 10.9549 39 -29.0611
      vertex 11.016 45 -29
      vertex 11.016 39 -29
    endloop
  endfacet
  facet normal 0.707107 0 -0.707107
    outer loop
      vertex 11.016 45 -29
      vertex 10.9549 39 -29.0611
      vertex 10.9549 49 -29.0611
    endloop
  endfacet
  facet normal 0.891 0 -0.454002
    outer loop
      vertex 10.9549 39 -29.0611
      vertex 10.2447 49 -30.4549
      vertex 10.9549 49 -29.0611
    endloop
  endfacet
  facet normal 0.891 0 -0.454002
    outer loop
      vertex 10.2447 49 -30.4549
      vertex 10.9549 39 -29.0611
      vertex 10.2447 39 -30.4549
    endloop
  endfacet
  facet normal -0.156422 0 -0.98769
    outer loop
      vertex 15 45 -27
      vertex 16.5451 49 -27.2447
      vertex 16.5451 45 -27.2447
    endloop
  endfacet
  facet normal -0.156422 0 -0.98769
    outer loop
      vertex 16.5451 49 -27.2447
      vertex 15 45 -27
      vertex 15 49 -27
    endloop
  endfacet
  facet normal -0.707107 0 -0.707107
    outer loop
      vertex 19.0451 49 -29.0611
      vertex 18.984 45 -29
      vertex 17.9389 49 -27.9549
    endloop
  endfacet
  facet normal -0.707107 0 -0.707107
    outer loop
      vertex 19.0451 39 -29.0611
      vertex 18.984 45 -29
      vertex 19.0451 49 -29.0611
    endloop
  endfacet
  facet normal -0.707107 -0 -0.707107
    outer loop
      vertex 18.984 45 -29
      vertex 19.0451 39 -29.0611
      vertex 18.984 39 -29
    endloop
  endfacet
  facet normal -0.707107 -0 -0.707107
    outer loop
      vertex 17.9389 49 -27.9549
      vertex 18.984 45 -29
      vertex 17.9389 45 -27.9549
    endloop
  endfacet
  facet normal -0.454002 0 -0.891
    outer loop
      vertex 16.5451 45 -27.2447
      vertex 17.9389 49 -27.9549
      vertex 17.9389 45 -27.9549
    endloop
  endfacet
  facet normal -0.454002 0 -0.891
    outer loop
      vertex 17.9389 49 -27.9549
      vertex 16.5451 45 -27.2447
      vertex 16.5451 49 -27.2447
    endloop
  endfacet
  facet normal -0.156422 0 0.98769
    outer loop
      vertex 15 49 27
      vertex 16.5451 45 27.2447
      vertex 16.5451 49 27.2447
    endloop
  endfacet
  facet normal -0.156422 0 0.98769
    outer loop
      vertex 16.5451 45 27.2447
      vertex 15 49 27
      vertex 15 45 27
    endloop
  endfacet
  facet normal -0.454002 0 0.891
    outer loop
      vertex 16.5451 49 27.2447
      vertex 17.9389 45 27.9549
      vertex 17.9389 49 27.9549
    endloop
  endfacet
  facet normal -0.454002 0 0.891
    outer loop
      vertex 17.9389 45 27.9549
      vertex 16.5451 49 27.2447
      vertex 16.5451 45 27.2447
    endloop
  endfacet
  facet normal 0.987692 -0 0.156409
    outer loop
      vertex 10.0792 39 31.5
      vertex 10.2447 49 30.4549
      vertex 10.0792 49 31.5
    endloop
  endfacet
  facet normal 0.987692 0 0.156409
    outer loop
      vertex 10.2447 49 30.4549
      vertex 10.0792 39 31.5
      vertex 10.2447 39 30.4549
    endloop
  endfacet
  facet normal 0.156422 0 0.98769
    outer loop
      vertex 13.4549 49 27.2447
      vertex 15 45 27
      vertex 15 49 27
    endloop
  endfacet
  facet normal 0.156422 0 0.98769
    outer loop
      vertex 15 45 27
      vertex 13.4549 49 27.2447
      vertex 13.4549 45 27.2447
    endloop
  endfacet
  facet normal -0.987692 0 0.156409
    outer loop
      vertex 19.7553 39 30.4549
      vertex 19.9208 49 31.5
      vertex 19.7553 49 30.4549
    endloop
  endfacet
  facet normal -0.987692 0 0.156409
    outer loop
      vertex 19.9208 49 31.5
      vertex 19.7553 39 30.4549
      vertex 19.9208 39 31.5
    endloop
  endfacet
  facet normal 0.707107 1.7742e-17 0.707107
    outer loop
      vertex 10.9549 49 29.0611
      vertex 11.016 45 29
      vertex 12.0611 49 27.9549
    endloop
  endfacet
  facet normal 0.707107 -0 0.707107
    outer loop
      vertex 10.9549 39 29.0611
      vertex 11.016 45 29
      vertex 10.9549 49 29.0611
    endloop
  endfacet
  facet normal 0.707107 0 0.707107
    outer loop
      vertex 11.016 45 29
      vertex 10.9549 39 29.0611
      vertex 11.016 39 29
    endloop
  endfacet
  facet normal 0.707107 0 0.707107
    outer loop
      vertex 12.0611 49 27.9549
      vertex 11.016 45 29
      vertex 12.0611 45 27.9549
    endloop
  endfacet
  facet normal -0.891 0 0.454002
    outer loop
      vertex 19.0451 39 29.0611
      vertex 19.7553 49 30.4549
      vertex 19.0451 49 29.0611
    endloop
  endfacet
  facet normal -0.891 0 0.454002
    outer loop
      vertex 19.7553 49 30.4549
      vertex 19.0451 39 29.0611
      vertex 19.7553 39 30.4549
    endloop
  endfacet
  facet normal 0.454002 0 0.891
    outer loop
      vertex 12.0611 49 27.9549
      vertex 13.4549 45 27.2447
      vertex 13.4549 49 27.2447
    endloop
  endfacet
  facet normal 0.454002 0 0.891
    outer loop
      vertex 13.4549 45 27.2447
      vertex 12.0611 49 27.9549
      vertex 12.0611 45 27.9549
    endloop
  endfacet
  facet normal -0.707107 0 0.707107
    outer loop
      vertex 18.984 45 29
      vertex 17.9389 49 27.9549
      vertex 17.9389 45 27.9549
    endloop
  endfacet
  facet normal -0.707107 0 0.707107
    outer loop
      vertex 17.9389 49 27.9549
      vertex 18.984 45 29
      vertex 19.0451 49 29.0611
    endloop
  endfacet
  facet normal -0.707107 0 0.707107
    outer loop
      vertex 19.0451 39 29.0611
      vertex 18.984 45 29
      vertex 18.984 39 29
    endloop
  endfacet
  facet normal -0.707107 0 0.707107
    outer loop
      vertex 18.984 45 29
      vertex 19.0451 39 29.0611
      vertex 19.0451 49 29.0611
    endloop
  endfacet
  facet normal 0.891 -0 0.454002
    outer loop
      vertex 10.2447 39 30.4549
      vertex 10.9549 49 29.0611
      vertex 10.2447 49 30.4549
    endloop
  endfacet
  facet normal 0.891 0 0.454002
    outer loop
      vertex 10.9549 49 29.0611
      vertex 10.2447 39 30.4549
      vertex 10.9549 39 29.0611
    endloop
  endfacet
  facet normal -1 0 0
    outer loop
      vertex 28 45 -29
      vertex 28 41.5 -5
      vertex 28 45 29
    endloop
  endfacet
  facet normal -1 0 0
    outer loop
      vertex 28 35 -29
      vertex 28 41.5 -5
      vertex 28 45 -29
    endloop
  endfacet
  facet normal -1 -0 0
    outer loop
      vertex 28 41.5 -5
      vertex 28 35 -29
      vertex 28 35 -5
    endloop
  endfacet
  facet normal -1 0 0
    outer loop
      vertex 28 41.5 5
      vertex 28 45 29
      vertex 28 41.5 -5
    endloop
  endfacet
  facet normal -1 0 0
    outer loop
      vertex 28 35 29
      vertex 28 41.5 5
      vertex 28 35 5
    endloop
  endfacet
  facet normal -1 0 0
    outer loop
      vertex 28 41.5 5
      vertex 28 35 29
      vertex 28 45 29
    endloop
  endfacet
  facet normal 0 0 -1
    outer loop
      vertex 28 35 29
      vertex 18.984 39 29
      vertex 28 45 29
    endloop
  endfacet
  facet normal 0 0 -1
    outer loop
      vertex 28 35 29
      vertex 11.016 39 29
      vertex 18.984 39 29
    endloop
  endfacet
  facet normal 0 0 -1
    outer loop
      vertex 2 35 29
      vertex 11.016 39 29
      vertex 28 35 29
    endloop
  endfacet
  facet normal 0 0 -1
    outer loop
      vertex 2 45 29
      vertex 11.016 39 29
      vertex 2 35 29
    endloop
  endfacet
  facet normal 0 0 -1
    outer loop
      vertex 11.016 39 29
      vertex 2 45 29
      vertex 11.016 45 29
    endloop
  endfacet
  facet normal -0 0 -1
    outer loop
      vertex 28 45 29
      vertex 18.984 39 29
      vertex 18.984 45 29
    endloop
  endfacet
  facet normal 0 0 1
    outer loop
      vertex 11.016 45 -29
      vertex 2 45 -29
      vertex 11.016 39 -29
    endloop
  endfacet
  facet normal 0 0 1
    outer loop
      vertex 18.984 39 -29
      vertex 28 45 -29
      vertex 18.984 45 -29
    endloop
  endfacet
  facet normal 0 0 1
    outer loop
      vertex 28 45 -29
      vertex 18.984 39 -29
      vertex 28 35 -29
    endloop
  endfacet
  facet normal -0 0 1
    outer loop
      vertex 11.016 39 -29
      vertex 28 35 -29
      vertex 18.984 39 -29
    endloop
  endfacet
  facet normal 0 0 1
    outer loop
      vertex 11.016 39 -29
      vertex 2 35 -29
      vertex 28 35 -29
    endloop
  endfacet
  facet normal 0 0 1
    outer loop
      vertex 2 35 -29
      vertex 11.016 39 -29
      vertex 2 45 -29
    endloop
  endfacet
  facet normal 1 -0 0
    outer loop
      vertex 2 35 29
      vertex 2 45 -29
      vertex 2 45 29
    endloop
  endfacet
  facet normal 1 0 0
    outer loop
      vertex 2 45 -29
      vertex 2 35 29
      vertex 2 35 -29
    endloop
  endfacet
  facet normal 0 -1 0
    outer loop
      vertex 2 45 29
      vertex 12.0611 45 27.9549
      vertex 11.016 45 29
    endloop
  endfacet
  facet normal 0 -1 0
    outer loop
      vertex 2 45 29
      vertex 13.4549 45 27.2447
      vertex 12.0611 45 27.9549
    endloop
  endfacet
  facet normal 0 -1 0
    outer loop
      vertex 13.4549 45 -27.2447
      vertex 13.4549 45 27.2447
      vertex 2 45 29
    endloop
  endfacet
  facet normal 0 -1 0
    outer loop
      vertex 13.4549 45 27.2447
      vertex 13.4549 45 -27.2447
      vertex 15 45 27
    endloop
  endfacet
  facet normal 0 -1 -0
    outer loop
      vertex 15 45 27
      vertex 13.4549 45 -27.2447
      vertex 15 45 -27
    endloop
  endfacet
  facet normal 0 -1 0
    outer loop
      vertex 2 45 -29
      vertex 13.4549 45 -27.2447
      vertex 2 45 29
    endloop
  endfacet
  facet normal 0 -1 0
    outer loop
      vertex 13.4549 45 -27.2447
      vertex 2 45 -29
      vertex 12.0611 45 -27.9549
    endloop
  endfacet
  facet normal 0 -1 0
    outer loop
      vertex 12.0611 45 -27.9549
      vertex 2 45 -29
      vertex 11.016 45 -29
    endloop
  endfacet
  facet normal 0 -1 0
    outer loop
      vertex 17.9389 45 27.9549
      vertex 28 45 29
      vertex 18.984 45 29
    endloop
  endfacet
  facet normal 0 -1 0
    outer loop
      vertex 16.5451 45 27.2447
      vertex 28 45 29
      vertex 17.9389 45 27.9549
    endloop
  endfacet
  facet normal 0 -1 0
    outer loop
      vertex 16.5451 45 -27.2447
      vertex 16.5451 45 27.2447
      vertex 15 45 27
    endloop
  endfacet
  facet normal 0 -1 0
    outer loop
      vertex 16.5451 45 -27.2447
      vertex 15 45 27
      vertex 15 45 -27
    endloop
  endfacet
  facet normal 0 -1 0
    outer loop
      vertex 16.5451 45 27.2447
      vertex 16.5451 45 -27.2447
      vertex 28 45 29
    endloop
  endfacet
  facet normal 0 -1 0
    outer loop
      vertex 28 45 -29
      vertex 16.5451 45 -27.2447
      vertex 17.9389 45 -27.9549
    endloop
  endfacet
  facet normal 0 -1 0
    outer loop
      vertex 28 45 -29
      vertex 17.9389 45 -27.9549
      vertex 18.984 45 -29
    endloop
  endfacet
  facet normal 0 -1 0
    outer loop
      vertex 16.5451 45 -27.2447
      vertex 28 45 -29
      vertex 28 45 29
    endloop
  endfacet
  facet normal 0 0 -1
    outer loop
      vertex 28 35 5
      vertex 30 41.5 5
      vertex 30 35 5
    endloop
  endfacet
  facet normal -0 0 -1
    outer loop
      vertex 30 41.5 5
      vertex 28 35 5
      vertex 28 41.5 5
    endloop
  endfacet
  facet normal -0 0 1
    outer loop
      vertex 28 41.5 -5
      vertex 30 35 -5
      vertex 30 41.5 -5
    endloop
  endfacet
  facet normal 0 0 1
    outer loop
      vertex 30 35 -5
      vertex 28 41.5 -5
      vertex 28 35 -5
    endloop
  endfacet
  facet normal 0 -1 0
    outer loop
      vertex 28 41.5 -5
      vertex 30 41.5 5
      vertex 28 41.5 5
    endloop
  endfacet
  facet normal 0 -1 -0
    outer loop
      vertex 30 41.5 5
      vertex 28 41.5 -5
      vertex 30 41.5 -5
    endloop
  endfacet
endsolid OpenSCAD_Model
