solid OpenSCAD_Model
  facet normal 0 0.0627907 -0.998027
    outer loop
      vertex -27.5 0 -22
      vertex -22.5 2.75733 -21.8265
      vertex -22.5 0 -22
    endloop
  endfacet
  facet normal 0 0.0627907 -0.998027
    outer loop
      vertex -22.5 2.75733 -21.8265
      vertex -27.5 0 -22
      vertex -27.5 2.75733 -21.8265
    endloop
  endfacet
  facet normal -0 0.0627907 0.998027
    outer loop
      vertex -27.5 2.75733 21.8265
      vertex -22.5 0 22
      vertex -22.5 2.75733 21.8265
    endloop
  endfacet
  facet normal 0 0.0627907 0.998027
    outer loop
      vertex -22.5 0 22
      vertex -27.5 2.75733 21.8265
      vertex -27.5 0 22
    endloop
  endfacet
  facet normal 0 1 -0
    outer loop
      vertex -22.5 21.9566 -1.38139
      vertex -27.5 21.9566 1.38139
      vertex -22.5 21.9566 1.38139
    endloop
  endfacet
  facet normal 0 1 0
    outer loop
      vertex -27.5 21.9566 1.38139
      vertex -22.5 21.9566 -1.38139
      vertex -27.5 21.9566 -1.38139
    endloop
  endfacet
  facet normal 0 -1 0
    outer loop
      vertex -27.5 -21.9566 -1.38139
      vertex -22.5 -21.9566 1.38139
      vertex -27.5 -21.9566 1.38139
    endloop
  endfacet
  facet normal 0 -1 -0
    outer loop
      vertex -22.5 -21.9566 1.38139
      vertex -27.5 -21.9566 -1.38139
      vertex -22.5 -21.9566 -1.38139
    endloop
  endfacet
  facet normal 0 0.728969 -0.684547
    outer loop
      vertex -22.5 15.06 -16.0373
      vertex -27.5 16.9513 -14.0233
      vertex -22.5 16.9513 -14.0233
    endloop
  endfacet
  facet normal 0 0.728969 -0.684547
    outer loop
      vertex -27.5 16.9513 -14.0233
      vertex -22.5 15.06 -16.0373
      vertex -27.5 15.06 -16.0373
    endloop
  endfacet
  facet normal 0 0.728969 0.684547
    outer loop
      vertex -22.5 16.9513 14.0233
      vertex -27.5 15.06 16.0373
      vertex -22.5 15.06 16.0373
    endloop
  endfacet
  facet normal 0 0.728969 0.684547
    outer loop
      vertex -27.5 15.06 16.0373
      vertex -22.5 16.9513 14.0233
      vertex -27.5 16.9513 14.0233
    endloop
  endfacet
  facet normal 0 0.929777 0.368124
    outer loop
      vertex -22.5 20.9232 6.79837
      vertex -27.5 19.9062 9.36714
      vertex -22.5 19.9062 9.36714
    endloop
  endfacet
  facet normal 0 0.929777 0.368124
    outer loop
      vertex -27.5 19.9062 9.36714
      vertex -22.5 20.9232 6.79837
      vertex -27.5 20.9232 6.79837
    endloop
  endfacet
  facet normal 0 0.425779 -0.904827
    outer loop
      vertex -27.5 8.09874 -20.4551
      vertex -22.5 10.5986 -19.2787
      vertex -22.5 8.09874 -20.4551
    endloop
  endfacet
  facet normal 3.45164e-07 0.425779 -0.904827
    outer loop
      vertex -22.5 10.5986 -19.2787
      vertex -27.5 8.09874 -20.4551
      vertex -27.5 10.5986 -19.2787
    endloop
  endfacet
  facet normal 0 0.187382 -0.982287
    outer loop
      vertex -27.5 2.75733 -21.8265
      vertex -22.5 5.47118 -21.3088
      vertex -22.5 2.75733 -21.8265
    endloop
  endfacet
  facet normal 3.74713e-07 0.187381 -0.982287
    outer loop
      vertex -22.5 5.47118 -21.3088
      vertex -27.5 2.75733 -21.8265
      vertex -27.5 5.47118 -21.3088
    endloop
  endfacet
  facet normal 0 0.929777 -0.368124
    outer loop
      vertex -22.5 19.9062 -9.36714
      vertex -27.5 20.9232 -6.79837
      vertex -22.5 20.9232 -6.79837
    endloop
  endfacet
  facet normal 0 0.929777 -0.368124
    outer loop
      vertex -27.5 20.9232 -6.79837
      vertex -22.5 19.9062 -9.36714
      vertex -27.5 19.9062 -9.36714
    endloop
  endfacet
  facet normal 0 0.968583 -0.24869
    outer loop
      vertex -22.5 20.9232 -6.79837
      vertex -27.5 21.6103 -4.12239
      vertex -22.5 21.6103 -4.12239
    endloop
  endfacet
  facet normal 0 0.968583 -0.24869
    outer loop
      vertex -27.5 21.6103 -4.12239
      vertex -22.5 20.9232 -6.79837
      vertex -27.5 20.9232 -6.79837
    endloop
  endfacet
  facet normal 0 0.876307 -0.481754
    outer loop
      vertex -22.5 18.5752 -11.7882
      vertex -27.5 19.9062 -9.36714
      vertex -22.5 19.9062 -9.36714
    endloop
  endfacet
  facet normal 0 0.876307 -0.481754
    outer loop
      vertex -27.5 19.9062 -9.36714
      vertex -22.5 18.5752 -11.7882
      vertex -27.5 18.5752 -11.7882
    endloop
  endfacet
  facet normal -3.45164e-07 0.425779 0.904827
    outer loop
      vertex -27.5 10.5986 19.2787
      vertex -22.5 8.09874 20.4551
      vertex -22.5 10.5986 19.2787
    endloop
  endfacet
  facet normal 0 0.425779 0.904827
    outer loop
      vertex -22.5 8.09874 20.4551
      vertex -27.5 10.5986 19.2787
      vertex -27.5 8.09874 20.4551
    endloop
  endfacet
  facet normal -0 0.309017 0.951056
    outer loop
      vertex -27.5 8.09874 20.4551
      vertex -22.5 5.47118 21.3088
      vertex -22.5 8.09874 20.4551
    endloop
  endfacet
  facet normal -3.62799e-07 0.309017 0.951057
    outer loop
      vertex -22.5 5.47118 21.3088
      vertex -27.5 8.09874 20.4551
      vertex -27.5 5.47118 21.3088
    endloop
  endfacet
  facet normal 0 0.992115 0.125334
    outer loop
      vertex -22.5 21.9566 1.38139
      vertex -27.5 21.6103 4.12239
      vertex -22.5 21.6103 4.12239
    endloop
  endfacet
  facet normal 0 0.992115 0.125334
    outer loop
      vertex -27.5 21.6103 4.12239
      vertex -22.5 21.9566 1.38139
      vertex -27.5 21.9566 1.38139
    endloop
  endfacet
  facet normal 0 -0.992115 -0.125334
    outer loop
      vertex -27.5 -21.6103 -4.12239
      vertex -22.5 -21.9566 -1.38139
      vertex -27.5 -21.9566 -1.38139
    endloop
  endfacet
  facet normal 0 -0.992115 -0.125334
    outer loop
      vertex -22.5 -21.9566 -1.38139
      vertex -27.5 -21.6103 -4.12239
      vertex -22.5 -21.6103 -4.12239
    endloop
  endfacet
  facet normal 3.62799e-07 0.309017 -0.951057
    outer loop
      vertex -27.5 5.47118 -21.3088
      vertex -22.5 8.09874 -20.4551
      vertex -22.5 5.47118 -21.3088
    endloop
  endfacet
  facet normal 0 0.309017 -0.951056
    outer loop
      vertex -22.5 8.09874 -20.4551
      vertex -27.5 5.47118 -21.3088
      vertex -27.5 8.09874 -20.4551
    endloop
  endfacet
  facet normal 2.93928e-07 0.637424 -0.770513
    outer loop
      vertex -27.5 12.9313 -17.7984
      vertex -22.5 15.06 -16.0373
      vertex -22.5 12.9313 -17.7984
    endloop
  endfacet
  facet normal 0 0.637424 -0.770513
    outer loop
      vertex -22.5 15.06 -16.0373
      vertex -27.5 12.9313 -17.7984
      vertex -27.5 15.06 -16.0373
    endloop
  endfacet
  facet normal 3.22086e-07 0.535827 -0.844328
    outer loop
      vertex -27.5 10.5986 -19.2787
      vertex -22.5 12.9313 -17.7984
      vertex -22.5 10.5986 -19.2787
    endloop
  endfacet
  facet normal 3.22086e-07 0.535827 -0.844328
    outer loop
      vertex -22.5 12.9313 -17.7984
      vertex -27.5 10.5986 -19.2787
      vertex -27.5 12.9313 -17.7984
    endloop
  endfacet
  facet normal 0 0.992115 -0.125334
    outer loop
      vertex -22.5 21.6103 -4.12239
      vertex -27.5 21.9566 -1.38139
      vertex -22.5 21.9566 -1.38139
    endloop
  endfacet
  facet normal 0 0.992115 -0.125334
    outer loop
      vertex -27.5 21.9566 -1.38139
      vertex -22.5 21.6103 -4.12239
      vertex -27.5 21.6103 -4.12239
    endloop
  endfacet
  facet normal 0 0.809017 -0.587786
    outer loop
      vertex -22.5 16.9513 -14.0233
      vertex -27.5 18.5752 -11.7882
      vertex -22.5 18.5752 -11.7882
    endloop
  endfacet
  facet normal 0 0.809017 -0.587786
    outer loop
      vertex -27.5 18.5752 -11.7882
      vertex -22.5 16.9513 -14.0233
      vertex -27.5 16.9513 -14.0233
    endloop
  endfacet
  facet normal -3.22086e-07 0.535827 0.844328
    outer loop
      vertex -27.5 12.9313 17.7984
      vertex -22.5 10.5986 19.2787
      vertex -22.5 12.9313 17.7984
    endloop
  endfacet
  facet normal -3.22086e-07 0.535827 0.844328
    outer loop
      vertex -22.5 10.5986 19.2787
      vertex -27.5 12.9313 17.7984
      vertex -27.5 10.5986 19.2787
    endloop
  endfacet
  facet normal -0 0.637424 0.770513
    outer loop
      vertex -27.5 15.06 16.0373
      vertex -22.5 12.9313 17.7984
      vertex -22.5 15.06 16.0373
    endloop
  endfacet
  facet normal -2.93928e-07 0.637424 0.770513
    outer loop
      vertex -22.5 12.9313 17.7984
      vertex -27.5 15.06 16.0373
      vertex -27.5 12.9313 17.7984
    endloop
  endfacet
  facet normal -3.74713e-07 0.187381 0.982287
    outer loop
      vertex -27.5 5.47118 21.3088
      vertex -22.5 2.75733 21.8265
      vertex -22.5 5.47118 21.3088
    endloop
  endfacet
  facet normal 0 0.187382 0.982287
    outer loop
      vertex -22.5 2.75733 21.8265
      vertex -27.5 5.47118 21.3088
      vertex -27.5 2.75733 21.8265
    endloop
  endfacet
  facet normal 1 0 0
    outer loop
      vertex -22.5 19.9605 1.25581
      vertex -22.5 21.9566 1.38139
      vertex -22.5 21.6103 4.12239
    endloop
  endfacet
  facet normal 1 0 0
    outer loop
      vertex -22.5 21.9566 1.38139
      vertex -22.5 19.9605 1.25581
      vertex -22.5 21.9566 -1.38139
    endloop
  endfacet
  facet normal 1 0 0
    outer loop
      vertex -22.5 19.6457 3.74763
      vertex -22.5 21.6103 4.12239
      vertex -22.5 20.9232 6.79837
    endloop
  endfacet
  facet normal 1 -0 0
    outer loop
      vertex -22.5 19.9605 -1.25581
      vertex -22.5 21.9566 -1.38139
      vertex -22.5 19.9605 1.25581
    endloop
  endfacet
  facet normal 1 0 0
    outer loop
      vertex -22.5 21.9566 -1.38139
      vertex -22.5 19.9605 -1.25581
      vertex -22.5 21.6103 -4.12239
    endloop
  endfacet
  facet normal 1 0 0
    outer loop
      vertex -22.5 19.0211 6.18034
      vertex -22.5 20.9232 6.79837
      vertex -22.5 19.9062 9.36714
    endloop
  endfacet
  facet normal 1 0 0
    outer loop
      vertex -22.5 21.6103 4.12239
      vertex -22.5 19.6457 3.74763
      vertex -22.5 19.9605 1.25581
    endloop
  endfacet
  facet normal 1 0 0
    outer loop
      vertex -22.5 20.9232 6.79837
      vertex -22.5 19.0211 6.18034
      vertex -22.5 19.6457 3.74763
    endloop
  endfacet
  facet normal 1 0 0
    outer loop
      vertex -22.5 18.0965 8.51558
      vertex -22.5 19.9062 9.36714
      vertex -22.5 18.5752 11.7882
    endloop
  endfacet
  facet normal 1 0 0
    outer loop
      vertex -22.5 19.9062 9.36714
      vertex -22.5 18.0965 8.51558
      vertex -22.5 19.0211 6.18034
    endloop
  endfacet
  facet normal 1 0 0
    outer loop
      vertex -22.5 16.8866 10.7165
      vertex -22.5 18.5752 11.7882
      vertex -22.5 16.9513 14.0233
    endloop
  endfacet
  facet normal 1 0 0
    outer loop
      vertex -22.5 18.5752 11.7882
      vertex -22.5 16.8866 10.7165
      vertex -22.5 18.0965 8.51558
    endloop
  endfacet
  facet normal 1 0 0
    outer loop
      vertex -22.5 16.9513 14.0233
      vertex -22.5 15.4103 12.7485
      vertex -22.5 16.8866 10.7165
    endloop
  endfacet
  facet normal 1 0 0
    outer loop
      vertex -22.5 15.06 16.0373
      vertex -22.5 15.4103 12.7485
      vertex -22.5 16.9513 14.0233
    endloop
  endfacet
  facet normal 1 0 0
    outer loop
      vertex -22.5 15.06 16.0373
      vertex -22.5 13.6909 14.5794
      vertex -22.5 15.4103 12.7485
    endloop
  endfacet
  facet normal 1 0 0
    outer loop
      vertex -22.5 12.9313 17.7984
      vertex -22.5 13.6909 14.5794
      vertex -22.5 15.06 16.0373
    endloop
  endfacet
  facet normal 1 0 0
    outer loop
      vertex -22.5 12.9313 17.7984
      vertex -22.5 11.7557 16.1803
      vertex -22.5 13.6909 14.5794
    endloop
  endfacet
  facet normal 1 0 0
    outer loop
      vertex -22.5 10.5986 19.2787
      vertex -22.5 11.7557 16.1803
      vertex -22.5 12.9313 17.7984
    endloop
  endfacet
  facet normal 1 0 0
    outer loop
      vertex -22.5 10.5986 19.2787
      vertex -22.5 9.63507 17.5261
      vertex -22.5 11.7557 16.1803
    endloop
  endfacet
  facet normal 1 0 0
    outer loop
      vertex -22.5 8.09874 20.4551
      vertex -22.5 9.63507 17.5261
      vertex -22.5 10.5986 19.2787
    endloop
  endfacet
  facet normal 1 0 0
    outer loop
      vertex -22.5 8.09874 20.4551
      vertex -22.5 7.36249 18.5955
      vertex -22.5 9.63507 17.5261
    endloop
  endfacet
  facet normal 1 0 0
    outer loop
      vertex -22.5 5.47118 21.3088
      vertex -22.5 7.36249 18.5955
      vertex -22.5 8.09874 20.4551
    endloop
  endfacet
  facet normal 1 0 0
    outer loop
      vertex -22.5 5.47118 21.3088
      vertex -22.5 4.9738 19.3717
      vertex -22.5 7.36249 18.5955
    endloop
  endfacet
  facet normal 1 0 0
    outer loop
      vertex -22.5 2.75733 21.8265
      vertex -22.5 4.9738 19.3717
      vertex -22.5 5.47118 21.3088
    endloop
  endfacet
  facet normal 1 0 0
    outer loop
      vertex -22.5 2.75733 21.8265
      vertex -22.5 2.50666 19.8423
      vertex -22.5 4.9738 19.3717
    endloop
  endfacet
  facet normal 1 0 0
    outer loop
      vertex -22.5 0 22
      vertex -22.5 2.50666 19.8423
      vertex -22.5 2.75733 21.8265
    endloop
  endfacet
  facet normal 1 0 0
    outer loop
      vertex -22.5 0 22
      vertex -22.5 0 20
      vertex -22.5 2.50666 19.8423
    endloop
  endfacet
  facet normal 1 0 0
    outer loop
      vertex -22.5 0 22
      vertex -22.5 -2.50666 19.8423
      vertex -22.5 0 20
    endloop
  endfacet
  facet normal 1 -0 0
    outer loop
      vertex -22.5 -2.75733 21.8265
      vertex -22.5 -2.50666 19.8423
      vertex -22.5 0 22
    endloop
  endfacet
  facet normal 1 0 0
    outer loop
      vertex -22.5 -2.75733 21.8265
      vertex -22.5 -4.9738 19.3717
      vertex -22.5 -2.50666 19.8423
    endloop
  endfacet
  facet normal 1 -0 0
    outer loop
      vertex -22.5 -5.47118 21.3088
      vertex -22.5 -4.9738 19.3717
      vertex -22.5 -2.75733 21.8265
    endloop
  endfacet
  facet normal 1 0 0
    outer loop
      vertex -22.5 -5.47118 21.3088
      vertex -22.5 -7.36249 18.5955
      vertex -22.5 -4.9738 19.3717
    endloop
  endfacet
  facet normal 1 -0 0
    outer loop
      vertex -22.5 -8.09874 20.4551
      vertex -22.5 -7.36249 18.5955
      vertex -22.5 -5.47118 21.3088
    endloop
  endfacet
  facet normal 1 0 0
    outer loop
      vertex -22.5 -8.09874 20.4551
      vertex -22.5 -9.63507 17.5261
      vertex -22.5 -7.36249 18.5955
    endloop
  endfacet
  facet normal 1 -0 0
    outer loop
      vertex -22.5 -10.5986 19.2787
      vertex -22.5 -9.63507 17.5261
      vertex -22.5 -8.09874 20.4551
    endloop
  endfacet
  facet normal 1 0 0
    outer loop
      vertex -22.5 -10.5986 19.2787
      vertex -22.5 -11.7557 16.1803
      vertex -22.5 -9.63507 17.5261
    endloop
  endfacet
  facet normal 1 -0 0
    outer loop
      vertex -22.5 -12.9313 17.7984
      vertex -22.5 -11.7557 16.1803
      vertex -22.5 -10.5986 19.2787
    endloop
  endfacet
  facet normal 1 0 0
    outer loop
      vertex -22.5 -12.9313 17.7984
      vertex -22.5 -13.6909 14.5794
      vertex -22.5 -11.7557 16.1803
    endloop
  endfacet
  facet normal 1 -0 0
    outer loop
      vertex -22.5 -15.06 16.0373
      vertex -22.5 -13.6909 14.5794
      vertex -22.5 -12.9313 17.7984
    endloop
  endfacet
  facet normal 1 0 0
    outer loop
      vertex -22.5 -15.06 16.0373
      vertex -22.5 -15.4103 12.7485
      vertex -22.5 -13.6909 14.5794
    endloop
  endfacet
  facet normal 1 -0 0
    outer loop
      vertex -22.5 -16.9513 14.0233
      vertex -22.5 -15.4103 12.7485
      vertex -22.5 -15.06 16.0373
    endloop
  endfacet
  facet normal 1 0 0
    outer loop
      vertex -22.5 -15.4103 12.7485
      vertex -22.5 -16.9513 14.0233
      vertex -22.5 -16.8866 10.7165
    endloop
  endfacet
  facet normal 1 -0 0
    outer loop
      vertex -22.5 -18.5752 11.7882
      vertex -22.5 -16.8866 10.7165
      vertex -22.5 -16.9513 14.0233
    endloop
  endfacet
  facet normal 1 0 0
    outer loop
      vertex -22.5 -16.8866 10.7165
      vertex -22.5 -18.5752 11.7882
      vertex -22.5 -18.0965 8.51558
    endloop
  endfacet
  facet normal 1 -0 0
    outer loop
      vertex -22.5 -19.9062 9.36714
      vertex -22.5 -18.0965 8.51558
      vertex -22.5 -18.5752 11.7882
    endloop
  endfacet
  facet normal 1 0 0
    outer loop
      vertex -22.5 -18.0965 8.51558
      vertex -22.5 -19.9062 9.36714
      vertex -22.5 -19.0211 6.18034
    endloop
  endfacet
  facet normal 1 -0 0
    outer loop
      vertex -22.5 -20.9232 6.79837
      vertex -22.5 -19.0211 6.18034
      vertex -22.5 -19.9062 9.36714
    endloop
  endfacet
  facet normal 1 0 0
    outer loop
      vertex -22.5 -19.0211 6.18034
      vertex -22.5 -20.9232 6.79837
      vertex -22.5 -19.6457 3.74763
    endloop
  endfacet
  facet normal 1 0 0
    outer loop
      vertex -22.5 -19.6457 3.74763
      vertex -22.5 -21.6103 4.12239
      vertex -22.5 -19.9605 1.25581
    endloop
  endfacet
  facet normal 1 -0 0
    outer loop
      vertex -22.5 -21.6103 4.12239
      vertex -22.5 -19.6457 3.74763
      vertex -22.5 -20.9232 6.79837
    endloop
  endfacet
  facet normal 1 -0 0
    outer loop
      vertex -22.5 19.6457 -3.74763
      vertex -22.5 21.6103 -4.12239
      vertex -22.5 19.9605 -1.25581
    endloop
  endfacet
  facet normal 1 0 0
    outer loop
      vertex -22.5 21.6103 -4.12239
      vertex -22.5 19.6457 -3.74763
      vertex -22.5 20.9232 -6.79837
    endloop
  endfacet
  facet normal 1 -0 0
    outer loop
      vertex -22.5 19.0211 -6.18034
      vertex -22.5 20.9232 -6.79837
      vertex -22.5 19.6457 -3.74763
    endloop
  endfacet
  facet normal 1 0 0
    outer loop
      vertex -22.5 20.9232 -6.79837
      vertex -22.5 19.0211 -6.18034
      vertex -22.5 19.9062 -9.36714
    endloop
  endfacet
  facet normal 1 -0 0
    outer loop
      vertex -22.5 18.0965 -8.51558
      vertex -22.5 19.9062 -9.36714
      vertex -22.5 19.0211 -6.18034
    endloop
  endfacet
  facet normal 1 0 0
    outer loop
      vertex -22.5 19.9062 -9.36714
      vertex -22.5 18.0965 -8.51558
      vertex -22.5 18.5752 -11.7882
    endloop
  endfacet
  facet normal 1 -0 0
    outer loop
      vertex -22.5 16.8866 -10.7165
      vertex -22.5 18.5752 -11.7882
      vertex -22.5 18.0965 -8.51558
    endloop
  endfacet
  facet normal 1 0 0
    outer loop
      vertex -22.5 18.5752 -11.7882
      vertex -22.5 16.8866 -10.7165
      vertex -22.5 16.9513 -14.0233
    endloop
  endfacet
  facet normal 1 -0 0
    outer loop
      vertex -22.5 15.4103 -12.7485
      vertex -22.5 16.9513 -14.0233
      vertex -22.5 16.8866 -10.7165
    endloop
  endfacet
  facet normal 1 0 0
    outer loop
      vertex -22.5 15.4103 -12.7485
      vertex -22.5 15.06 -16.0373
      vertex -22.5 16.9513 -14.0233
    endloop
  endfacet
  facet normal 1 -0 0
    outer loop
      vertex -22.5 13.6909 -14.5794
      vertex -22.5 15.06 -16.0373
      vertex -22.5 15.4103 -12.7485
    endloop
  endfacet
  facet normal 1 0 0
    outer loop
      vertex -22.5 13.6909 -14.5794
      vertex -22.5 12.9313 -17.7984
      vertex -22.5 15.06 -16.0373
    endloop
  endfacet
  facet normal 1 -0 0
    outer loop
      vertex -22.5 11.7557 -16.1803
      vertex -22.5 12.9313 -17.7984
      vertex -22.5 13.6909 -14.5794
    endloop
  endfacet
  facet normal 1 0 0
    outer loop
      vertex -22.5 11.7557 -16.1803
      vertex -22.5 10.5986 -19.2787
      vertex -22.5 12.9313 -17.7984
    endloop
  endfacet
  facet normal 1 -0 0
    outer loop
      vertex -22.5 9.63507 -17.5261
      vertex -22.5 10.5986 -19.2787
      vertex -22.5 11.7557 -16.1803
    endloop
  endfacet
  facet normal 1 0 0
    outer loop
      vertex -22.5 9.63507 -17.5261
      vertex -22.5 8.09874 -20.4551
      vertex -22.5 10.5986 -19.2787
    endloop
  endfacet
  facet normal 1 -0 0
    outer loop
      vertex -22.5 7.36249 -18.5955
      vertex -22.5 8.09874 -20.4551
      vertex -22.5 9.63507 -17.5261
    endloop
  endfacet
  facet normal 1 0 0
    outer loop
      vertex -22.5 7.36249 -18.5955
      vertex -22.5 5.47118 -21.3088
      vertex -22.5 8.09874 -20.4551
    endloop
  endfacet
  facet normal 1 -0 0
    outer loop
      vertex -22.5 4.9738 -19.3717
      vertex -22.5 5.47118 -21.3088
      vertex -22.5 7.36249 -18.5955
    endloop
  endfacet
  facet normal 1 0 0
    outer loop
      vertex -22.5 4.9738 -19.3717
      vertex -22.5 2.75733 -21.8265
      vertex -22.5 5.47118 -21.3088
    endloop
  endfacet
  facet normal 1 -0 0
    outer loop
      vertex -22.5 2.50666 -19.8423
      vertex -22.5 2.75733 -21.8265
      vertex -22.5 4.9738 -19.3717
    endloop
  endfacet
  facet normal 1 -0 0
    outer loop
      vertex -22.5 0 -20
      vertex -22.5 2.75733 -21.8265
      vertex -22.5 2.50666 -19.8423
    endloop
  endfacet
  facet normal 1 0 0
    outer loop
      vertex -22.5 0 -20
      vertex -22.5 0 -22
      vertex -22.5 2.75733 -21.8265
    endloop
  endfacet
  facet normal 1 0 0
    outer loop
      vertex -22.5 -2.50666 -19.8423
      vertex -22.5 0 -22
      vertex -22.5 0 -20
    endloop
  endfacet
  facet normal 1 0 0
    outer loop
      vertex -22.5 -2.50666 -19.8423
      vertex -22.5 -2.75733 -21.8265
      vertex -22.5 0 -22
    endloop
  endfacet
  facet normal 1 0 0
    outer loop
      vertex -22.5 -4.9738 -19.3717
      vertex -22.5 -2.75733 -21.8265
      vertex -22.5 -2.50666 -19.8423
    endloop
  endfacet
  facet normal 1 0 0
    outer loop
      vertex -22.5 -4.9738 -19.3717
      vertex -22.5 -5.47118 -21.3088
      vertex -22.5 -2.75733 -21.8265
    endloop
  endfacet
  facet normal 1 0 0
    outer loop
      vertex -22.5 -7.36249 -18.5955
      vertex -22.5 -5.47118 -21.3088
      vertex -22.5 -4.9738 -19.3717
    endloop
  endfacet
  facet normal 1 0 0
    outer loop
      vertex -22.5 -7.36249 -18.5955
      vertex -22.5 -8.09874 -20.4551
      vertex -22.5 -5.47118 -21.3088
    endloop
  endfacet
  facet normal 1 0 0
    outer loop
      vertex -22.5 -9.63507 -17.5261
      vertex -22.5 -8.09874 -20.4551
      vertex -22.5 -7.36249 -18.5955
    endloop
  endfacet
  facet normal 1 0 0
    outer loop
      vertex -22.5 -9.63507 -17.5261
      vertex -22.5 -10.5986 -19.2787
      vertex -22.5 -8.09874 -20.4551
    endloop
  endfacet
  facet normal 1 0 0
    outer loop
      vertex -22.5 -11.7557 -16.1803
      vertex -22.5 -10.5986 -19.2787
      vertex -22.5 -9.63507 -17.5261
    endloop
  endfacet
  facet normal 1 0 0
    outer loop
      vertex -22.5 -11.7557 -16.1803
      vertex -22.5 -12.9313 -17.7984
      vertex -22.5 -10.5986 -19.2787
    endloop
  endfacet
  facet normal 1 0 0
    outer loop
      vertex -22.5 -13.6909 -14.5794
      vertex -22.5 -12.9313 -17.7984
      vertex -22.5 -11.7557 -16.1803
    endloop
  endfacet
  facet normal 1 0 0
    outer loop
      vertex -22.5 -13.6909 -14.5794
      vertex -22.5 -15.06 -16.0373
      vertex -22.5 -12.9313 -17.7984
    endloop
  endfacet
  facet normal 1 0 0
    outer loop
      vertex -22.5 -15.4103 -12.7485
      vertex -22.5 -15.06 -16.0373
      vertex -22.5 -13.6909 -14.5794
    endloop
  endfacet
  facet normal 1 0 0
    outer loop
      vertex -22.5 -16.9513 -14.0233
      vertex -22.5 -15.4103 -12.7485
      vertex -22.5 -16.8866 -10.7165
    endloop
  endfacet
  facet normal 1 0 0
    outer loop
      vertex -22.5 -15.4103 -12.7485
      vertex -22.5 -16.9513 -14.0233
      vertex -22.5 -15.06 -16.0373
    endloop
  endfacet
  facet normal 1 0 0
    outer loop
      vertex -22.5 -18.5752 -11.7882
      vertex -22.5 -16.8866 -10.7165
      vertex -22.5 -18.0965 -8.51558
    endloop
  endfacet
  facet normal 1 0 0
    outer loop
      vertex -22.5 -16.8866 -10.7165
      vertex -22.5 -18.5752 -11.7882
      vertex -22.5 -16.9513 -14.0233
    endloop
  endfacet
  facet normal 1 0 0
    outer loop
      vertex -22.5 -19.9062 -9.36714
      vertex -22.5 -18.0965 -8.51558
      vertex -22.5 -19.0211 -6.18034
    endloop
  endfacet
  facet normal 1 0 0
    outer loop
      vertex -22.5 -20.9232 -6.79837
      vertex -22.5 -19.0211 -6.18034
      vertex -22.5 -19.6457 -3.74763
    endloop
  endfacet
  facet normal 1 0 0
    outer loop
      vertex -22.5 -18.0965 -8.51558
      vertex -22.5 -19.9062 -9.36714
      vertex -22.5 -18.5752 -11.7882
    endloop
  endfacet
  facet normal 1 0 0
    outer loop
      vertex -22.5 -21.6103 -4.12239
      vertex -22.5 -19.6457 -3.74763
      vertex -22.5 -19.9605 -1.25581
    endloop
  endfacet
  facet normal 1 -0 0
    outer loop
      vertex -22.5 -21.9566 1.38139
      vertex -22.5 -19.9605 1.25581
      vertex -22.5 -21.6103 4.12239
    endloop
  endfacet
  facet normal 1 0 0
    outer loop
      vertex -22.5 -19.0211 -6.18034
      vertex -22.5 -20.9232 -6.79837
      vertex -22.5 -19.9062 -9.36714
    endloop
  endfacet
  facet normal 1 0 0
    outer loop
      vertex -22.5 -19.9605 1.25581
      vertex -22.5 -21.9566 1.38139
      vertex -22.5 -19.9605 -1.25581
    endloop
  endfacet
  facet normal 1 0 0
    outer loop
      vertex -22.5 -19.6457 -3.74763
      vertex -22.5 -21.6103 -4.12239
      vertex -22.5 -20.9232 -6.79837
    endloop
  endfacet
  facet normal 1 0 0
    outer loop
      vertex -22.5 -21.9566 -1.38139
      vertex -22.5 -19.9605 -1.25581
      vertex -22.5 -21.9566 1.38139
    endloop
  endfacet
  facet normal 1 0 0
    outer loop
      vertex -22.5 -19.9605 -1.25581
      vertex -22.5 -21.9566 -1.38139
      vertex -22.5 -21.6103 -4.12239
    endloop
  endfacet
  facet normal 0 0.876307 0.481754
    outer loop
      vertex -22.5 19.9062 9.36714
      vertex -27.5 18.5752 11.7882
      vertex -22.5 18.5752 11.7882
    endloop
  endfacet
  facet normal 0 0.876307 0.481754
    outer loop
      vertex -27.5 18.5752 11.7882
      vertex -22.5 19.9062 9.36714
      vertex -27.5 19.9062 9.36714
    endloop
  endfacet
  facet normal 0 0.809017 0.587786
    outer loop
      vertex -22.5 18.5752 11.7882
      vertex -27.5 16.9513 14.0233
      vertex -22.5 16.9513 14.0233
    endloop
  endfacet
  facet normal 0 0.809017 0.587786
    outer loop
      vertex -27.5 16.9513 14.0233
      vertex -22.5 18.5752 11.7882
      vertex -27.5 18.5752 11.7882
    endloop
  endfacet
  facet normal 0 0.968583 0.24869
    outer loop
      vertex -22.5 21.6103 4.12239
      vertex -27.5 20.9232 6.79837
      vertex -22.5 20.9232 6.79837
    endloop
  endfacet
  facet normal 0 0.968583 0.24869
    outer loop
      vertex -27.5 20.9232 6.79837
      vertex -22.5 21.6103 4.12239
      vertex -27.5 21.6103 4.12239
    endloop
  endfacet
  facet normal 0 -0.0627907 -0.998027
    outer loop
      vertex -27.5 -2.75733 -21.8265
      vertex -22.5 0 -22
      vertex -22.5 -2.75733 -21.8265
    endloop
  endfacet
  facet normal -0 -0.0627907 -0.998027
    outer loop
      vertex -22.5 0 -22
      vertex -27.5 -2.75733 -21.8265
      vertex -27.5 0 -22
    endloop
  endfacet
  facet normal 3.74713e-07 -0.187382 -0.982287
    outer loop
      vertex -27.5 -5.47118 -21.3088
      vertex -22.5 -2.75733 -21.8265
      vertex -22.5 -5.47118 -21.3088
    endloop
  endfacet
  facet normal -0 -0.187381 -0.982287
    outer loop
      vertex -22.5 -2.75733 -21.8265
      vertex -27.5 -5.47118 -21.3088
      vertex -27.5 -2.75733 -21.8265
    endloop
  endfacet
  facet normal 0 -0.728969 0.684547
    outer loop
      vertex -27.5 -16.9513 14.0233
      vertex -22.5 -15.06 16.0373
      vertex -27.5 -15.06 16.0373
    endloop
  endfacet
  facet normal 0 -0.728969 0.684547
    outer loop
      vertex -22.5 -15.06 16.0373
      vertex -27.5 -16.9513 14.0233
      vertex -22.5 -16.9513 14.0233
    endloop
  endfacet
  facet normal 0 -0.425779 0.904827
    outer loop
      vertex -27.5 -8.09874 20.4551
      vertex -22.5 -10.5986 19.2787
      vertex -22.5 -8.09874 20.4551
    endloop
  endfacet
  facet normal -3.45164e-07 -0.425779 0.904827
    outer loop
      vertex -22.5 -10.5986 19.2787
      vertex -27.5 -8.09874 20.4551
      vertex -27.5 -10.5986 19.2787
    endloop
  endfacet
  facet normal -3.22086e-07 -0.535827 0.844328
    outer loop
      vertex -27.5 -10.5986 19.2787
      vertex -22.5 -12.9313 17.7984
      vertex -22.5 -10.5986 19.2787
    endloop
  endfacet
  facet normal -3.22086e-07 -0.535827 0.844328
    outer loop
      vertex -22.5 -12.9313 17.7984
      vertex -27.5 -10.5986 19.2787
      vertex -27.5 -12.9313 17.7984
    endloop
  endfacet
  facet normal -1 0 0
    outer loop
      vertex -27.5 19.9605 -1.25581
      vertex -27.5 21.9566 -1.38139
      vertex -27.5 21.6103 -4.12239
    endloop
  endfacet
  facet normal -1 0 0
    outer loop
      vertex -27.5 21.9566 -1.38139
      vertex -27.5 19.9605 -1.25581
      vertex -27.5 21.9566 1.38139
    endloop
  endfacet
  facet normal -1 0 0
    outer loop
      vertex -27.5 19.6457 -3.74763
      vertex -27.5 21.6103 -4.12239
      vertex -27.5 20.9232 -6.79837
    endloop
  endfacet
  facet normal -1 0 0
    outer loop
      vertex -27.5 19.9605 1.25581
      vertex -27.5 21.9566 1.38139
      vertex -27.5 19.9605 -1.25581
    endloop
  endfacet
  facet normal -1 -0 0
    outer loop
      vertex -27.5 21.9566 1.38139
      vertex -27.5 19.9605 1.25581
      vertex -27.5 21.6103 4.12239
    endloop
  endfacet
  facet normal -1 0 0
    outer loop
      vertex -27.5 19.0211 -6.18034
      vertex -27.5 20.9232 -6.79837
      vertex -27.5 19.9062 -9.36714
    endloop
  endfacet
  facet normal -1 0 0
    outer loop
      vertex -27.5 21.6103 -4.12239
      vertex -27.5 19.6457 -3.74763
      vertex -27.5 19.9605 -1.25581
    endloop
  endfacet
  facet normal -1 0 0
    outer loop
      vertex -27.5 20.9232 -6.79837
      vertex -27.5 19.0211 -6.18034
      vertex -27.5 19.6457 -3.74763
    endloop
  endfacet
  facet normal -1 0 0
    outer loop
      vertex -27.5 18.0965 -8.51558
      vertex -27.5 19.9062 -9.36714
      vertex -27.5 18.5752 -11.7882
    endloop
  endfacet
  facet normal -1 0 0
    outer loop
      vertex -27.5 19.9062 -9.36714
      vertex -27.5 18.0965 -8.51558
      vertex -27.5 19.0211 -6.18034
    endloop
  endfacet
  facet normal -1 0 0
    outer loop
      vertex -27.5 16.8866 -10.7165
      vertex -27.5 18.5752 -11.7882
      vertex -27.5 16.9513 -14.0233
    endloop
  endfacet
  facet normal -1 0 0
    outer loop
      vertex -27.5 18.5752 -11.7882
      vertex -27.5 16.8866 -10.7165
      vertex -27.5 18.0965 -8.51558
    endloop
  endfacet
  facet normal -1 0 0
    outer loop
      vertex -27.5 16.9513 -14.0233
      vertex -27.5 15.4103 -12.7485
      vertex -27.5 16.8866 -10.7165
    endloop
  endfacet
  facet normal -1 0 0
    outer loop
      vertex -27.5 15.06 -16.0373
      vertex -27.5 15.4103 -12.7485
      vertex -27.5 16.9513 -14.0233
    endloop
  endfacet
  facet normal -1 0 0
    outer loop
      vertex -27.5 15.06 -16.0373
      vertex -27.5 13.6909 -14.5794
      vertex -27.5 15.4103 -12.7485
    endloop
  endfacet
  facet normal -1 0 0
    outer loop
      vertex -27.5 12.9313 -17.7984
      vertex -27.5 13.6909 -14.5794
      vertex -27.5 15.06 -16.0373
    endloop
  endfacet
  facet normal -1 0 0
    outer loop
      vertex -27.5 12.9313 -17.7984
      vertex -27.5 11.7557 -16.1803
      vertex -27.5 13.6909 -14.5794
    endloop
  endfacet
  facet normal -1 0 0
    outer loop
      vertex -27.5 10.5986 -19.2787
      vertex -27.5 11.7557 -16.1803
      vertex -27.5 12.9313 -17.7984
    endloop
  endfacet
  facet normal -1 0 0
    outer loop
      vertex -27.5 10.5986 -19.2787
      vertex -27.5 9.63507 -17.5261
      vertex -27.5 11.7557 -16.1803
    endloop
  endfacet
  facet normal -1 0 0
    outer loop
      vertex -27.5 8.09874 -20.4551
      vertex -27.5 9.63507 -17.5261
      vertex -27.5 10.5986 -19.2787
    endloop
  endfacet
  facet normal -1 0 0
    outer loop
      vertex -27.5 8.09874 -20.4551
      vertex -27.5 7.36249 -18.5955
      vertex -27.5 9.63507 -17.5261
    endloop
  endfacet
  facet normal -1 0 0
    outer loop
      vertex -27.5 5.47118 -21.3088
      vertex -27.5 7.36249 -18.5955
      vertex -27.5 8.09874 -20.4551
    endloop
  endfacet
  facet normal -1 0 0
    outer loop
      vertex -27.5 5.47118 -21.3088
      vertex -27.5 4.9738 -19.3717
      vertex -27.5 7.36249 -18.5955
    endloop
  endfacet
  facet normal -1 0 0
    outer loop
      vertex -27.5 2.75733 -21.8265
      vertex -27.5 4.9738 -19.3717
      vertex -27.5 5.47118 -21.3088
    endloop
  endfacet
  facet normal -1 0 0
    outer loop
      vertex -27.5 2.75733 -21.8265
      vertex -27.5 2.50666 -19.8423
      vertex -27.5 4.9738 -19.3717
    endloop
  endfacet
  facet normal -1 0 0
    outer loop
      vertex -27.5 0 -22
      vertex -27.5 2.50666 -19.8423
      vertex -27.5 2.75733 -21.8265
    endloop
  endfacet
  facet normal -1 0 0
    outer loop
      vertex -27.5 0 -22
      vertex -27.5 0 -20
      vertex -27.5 2.50666 -19.8423
    endloop
  endfacet
  facet normal -1 0 0
    outer loop
      vertex -27.5 0 -22
      vertex -27.5 -2.50666 -19.8423
      vertex -27.5 0 -20
    endloop
  endfacet
  facet normal -1 0 0
    outer loop
      vertex -27.5 -2.75733 -21.8265
      vertex -27.5 -2.50666 -19.8423
      vertex -27.5 0 -22
    endloop
  endfacet
  facet normal -1 0 0
    outer loop
      vertex -27.5 -2.75733 -21.8265
      vertex -27.5 -4.9738 -19.3717
      vertex -27.5 -2.50666 -19.8423
    endloop
  endfacet
  facet normal -1 0 0
    outer loop
      vertex -27.5 -5.47118 -21.3088
      vertex -27.5 -4.9738 -19.3717
      vertex -27.5 -2.75733 -21.8265
    endloop
  endfacet
  facet normal -1 0 0
    outer loop
      vertex -27.5 -5.47118 -21.3088
      vertex -27.5 -7.36249 -18.5955
      vertex -27.5 -4.9738 -19.3717
    endloop
  endfacet
  facet normal -1 0 0
    outer loop
      vertex -27.5 -8.09874 -20.4551
      vertex -27.5 -7.36249 -18.5955
      vertex -27.5 -5.47118 -21.3088
    endloop
  endfacet
  facet normal -1 0 0
    outer loop
      vertex -27.5 -8.09874 -20.4551
      vertex -27.5 -9.63507 -17.5261
      vertex -27.5 -7.36249 -18.5955
    endloop
  endfacet
  facet normal -1 0 0
    outer loop
      vertex -27.5 -10.5986 -19.2787
      vertex -27.5 -9.63507 -17.5261
      vertex -27.5 -8.09874 -20.4551
    endloop
  endfacet
  facet normal -1 0 0
    outer loop
      vertex -27.5 -10.5986 -19.2787
      vertex -27.5 -11.7557 -16.1803
      vertex -27.5 -9.63507 -17.5261
    endloop
  endfacet
  facet normal -1 0 0
    outer loop
      vertex -27.5 -12.9313 -17.7984
      vertex -27.5 -11.7557 -16.1803
      vertex -27.5 -10.5986 -19.2787
    endloop
  endfacet
  facet normal -1 0 0
    outer loop
      vertex -27.5 -12.9313 -17.7984
      vertex -27.5 -13.6909 -14.5794
      vertex -27.5 -11.7557 -16.1803
    endloop
  endfacet
  facet normal -1 0 0
    outer loop
      vertex -27.5 -15.06 -16.0373
      vertex -27.5 -13.6909 -14.5794
      vertex -27.5 -12.9313 -17.7984
    endloop
  endfacet
  facet normal -1 0 0
    outer loop
      vertex -27.5 -15.06 -16.0373
      vertex -27.5 -15.4103 -12.7485
      vertex -27.5 -13.6909 -14.5794
    endloop
  endfacet
  facet normal -1 0 0
    outer loop
      vertex -27.5 -16.9513 -14.0233
      vertex -27.5 -15.4103 -12.7485
      vertex -27.5 -15.06 -16.0373
    endloop
  endfacet
  facet normal -1 -0 0
    outer loop
      vertex -27.5 -15.4103 -12.7485
      vertex -27.5 -16.9513 -14.0233
      vertex -27.5 -16.8866 -10.7165
    endloop
  endfacet
  facet normal -1 0 0
    outer loop
      vertex -27.5 -18.5752 -11.7882
      vertex -27.5 -16.8866 -10.7165
      vertex -27.5 -16.9513 -14.0233
    endloop
  endfacet
  facet normal -1 -0 0
    outer loop
      vertex -27.5 -16.8866 -10.7165
      vertex -27.5 -18.5752 -11.7882
      vertex -27.5 -18.0965 -8.51558
    endloop
  endfacet
  facet normal -1 0 0
    outer loop
      vertex -27.5 -19.9062 -9.36714
      vertex -27.5 -18.0965 -8.51558
      vertex -27.5 -18.5752 -11.7882
    endloop
  endfacet
  facet normal -1 -0 0
    outer loop
      vertex -27.5 -18.0965 -8.51558
      vertex -27.5 -19.9062 -9.36714
      vertex -27.5 -19.0211 -6.18034
    endloop
  endfacet
  facet normal -1 0 0
    outer loop
      vertex -27.5 -20.9232 -6.79837
      vertex -27.5 -19.0211 -6.18034
      vertex -27.5 -19.9062 -9.36714
    endloop
  endfacet
  facet normal -1 -0 0
    outer loop
      vertex -27.5 -19.0211 -6.18034
      vertex -27.5 -20.9232 -6.79837
      vertex -27.5 -19.6457 -3.74763
    endloop
  endfacet
  facet normal -1 -0 0
    outer loop
      vertex -27.5 -19.6457 -3.74763
      vertex -27.5 -21.6103 -4.12239
      vertex -27.5 -19.9605 -1.25581
    endloop
  endfacet
  facet normal -1 0 0
    outer loop
      vertex -27.5 -21.6103 -4.12239
      vertex -27.5 -19.6457 -3.74763
      vertex -27.5 -20.9232 -6.79837
    endloop
  endfacet
  facet normal -1 0 0
    outer loop
      vertex -27.5 19.6457 3.74763
      vertex -27.5 21.6103 4.12239
      vertex -27.5 19.9605 1.25581
    endloop
  endfacet
  facet normal -1 -0 0
    outer loop
      vertex -27.5 21.6103 4.12239
      vertex -27.5 19.6457 3.74763
      vertex -27.5 20.9232 6.79837
    endloop
  endfacet
  facet normal -1 0 0
    outer loop
      vertex -27.5 19.0211 6.18034
      vertex -27.5 20.9232 6.79837
      vertex -27.5 19.6457 3.74763
    endloop
  endfacet
  facet normal -1 -0 0
    outer loop
      vertex -27.5 20.9232 6.79837
      vertex -27.5 19.0211 6.18034
      vertex -27.5 19.9062 9.36714
    endloop
  endfacet
  facet normal -1 0 0
    outer loop
      vertex -27.5 18.0965 8.51558
      vertex -27.5 19.9062 9.36714
      vertex -27.5 19.0211 6.18034
    endloop
  endfacet
  facet normal -1 -0 0
    outer loop
      vertex -27.5 19.9062 9.36714
      vertex -27.5 18.0965 8.51558
      vertex -27.5 18.5752 11.7882
    endloop
  endfacet
  facet normal -1 0 0
    outer loop
      vertex -27.5 16.8866 10.7165
      vertex -27.5 18.5752 11.7882
      vertex -27.5 18.0965 8.51558
    endloop
  endfacet
  facet normal -1 -0 0
    outer loop
      vertex -27.5 18.5752 11.7882
      vertex -27.5 16.8866 10.7165
      vertex -27.5 16.9513 14.0233
    endloop
  endfacet
  facet normal -1 0 0
    outer loop
      vertex -27.5 15.4103 12.7485
      vertex -27.5 16.9513 14.0233
      vertex -27.5 16.8866 10.7165
    endloop
  endfacet
  facet normal -1 0 0
    outer loop
      vertex -27.5 15.4103 12.7485
      vertex -27.5 15.06 16.0373
      vertex -27.5 16.9513 14.0233
    endloop
  endfacet
  facet normal -1 0 0
    outer loop
      vertex -27.5 13.6909 14.5794
      vertex -27.5 15.06 16.0373
      vertex -27.5 15.4103 12.7485
    endloop
  endfacet
  facet normal -1 0 0
    outer loop
      vertex -27.5 13.6909 14.5794
      vertex -27.5 12.9313 17.7984
      vertex -27.5 15.06 16.0373
    endloop
  endfacet
  facet normal -1 0 0
    outer loop
      vertex -27.5 11.7557 16.1803
      vertex -27.5 12.9313 17.7984
      vertex -27.5 13.6909 14.5794
    endloop
  endfacet
  facet normal -1 0 0
    outer loop
      vertex -27.5 11.7557 16.1803
      vertex -27.5 10.5986 19.2787
      vertex -27.5 12.9313 17.7984
    endloop
  endfacet
  facet normal -1 0 0
    outer loop
      vertex -27.5 9.63507 17.5261
      vertex -27.5 10.5986 19.2787
      vertex -27.5 11.7557 16.1803
    endloop
  endfacet
  facet normal -1 0 0
    outer loop
      vertex -27.5 9.63507 17.5261
      vertex -27.5 8.09874 20.4551
      vertex -27.5 10.5986 19.2787
    endloop
  endfacet
  facet normal -1 0 0
    outer loop
      vertex -27.5 7.36249 18.5955
      vertex -27.5 8.09874 20.4551
      vertex -27.5 9.63507 17.5261
    endloop
  endfacet
  facet normal -1 0 0
    outer loop
      vertex -27.5 7.36249 18.5955
      vertex -27.5 5.47118 21.3088
      vertex -27.5 8.09874 20.4551
    endloop
  endfacet
  facet normal -1 0 0
    outer loop
      vertex -27.5 4.9738 19.3717
      vertex -27.5 5.47118 21.3088
      vertex -27.5 7.36249 18.5955
    endloop
  endfacet
  facet normal -1 0 0
    outer loop
      vertex -27.5 4.9738 19.3717
      vertex -27.5 2.75733 21.8265
      vertex -27.5 5.47118 21.3088
    endloop
  endfacet
  facet normal -1 0 0
    outer loop
      vertex -27.5 2.50666 19.8423
      vertex -27.5 2.75733 21.8265
      vertex -27.5 4.9738 19.3717
    endloop
  endfacet
  facet normal -1 0 0
    outer loop
      vertex -27.5 0 20
      vertex -27.5 2.75733 21.8265
      vertex -27.5 2.50666 19.8423
    endloop
  endfacet
  facet normal -1 0 0
    outer loop
      vertex -27.5 0 20
      vertex -27.5 0 22
      vertex -27.5 2.75733 21.8265
    endloop
  endfacet
  facet normal -1 0 0
    outer loop
      vertex -27.5 -2.50666 19.8423
      vertex -27.5 0 22
      vertex -27.5 0 20
    endloop
  endfacet
  facet normal -1 0 0
    outer loop
      vertex -27.5 -2.50666 19.8423
      vertex -27.5 -2.75733 21.8265
      vertex -27.5 0 22
    endloop
  endfacet
  facet normal -1 0 0
    outer loop
      vertex -27.5 -4.9738 19.3717
      vertex -27.5 -2.75733 21.8265
      vertex -27.5 -2.50666 19.8423
    endloop
  endfacet
  facet normal -1 0 0
    outer loop
      vertex -27.5 -4.9738 19.3717
      vertex -27.5 -5.47118 21.3088
      vertex -27.5 -2.75733 21.8265
    endloop
  endfacet
  facet normal -1 0 0
    outer loop
      vertex -27.5 -7.36249 18.5955
      vertex -27.5 -5.47118 21.3088
      vertex -27.5 -4.9738 19.3717
    endloop
  endfacet
  facet normal -1 0 0
    outer loop
      vertex -27.5 -7.36249 18.5955
      vertex -27.5 -8.09874 20.4551
      vertex -27.5 -5.47118 21.3088
    endloop
  endfacet
  facet normal -1 0 0
    outer loop
      vertex -27.5 -9.63507 17.5261
      vertex -27.5 -8.09874 20.4551
      vertex -27.5 -7.36249 18.5955
    endloop
  endfacet
  facet normal -1 0 0
    outer loop
      vertex -27.5 -9.63507 17.5261
      vertex -27.5 -10.5986 19.2787
      vertex -27.5 -8.09874 20.4551
    endloop
  endfacet
  facet normal -1 0 0
    outer loop
      vertex -27.5 -11.7557 16.1803
      vertex -27.5 -10.5986 19.2787
      vertex -27.5 -9.63507 17.5261
    endloop
  endfacet
  facet normal -1 0 0
    outer loop
      vertex -27.5 -11.7557 16.1803
      vertex -27.5 -12.9313 17.7984
      vertex -27.5 -10.5986 19.2787
    endloop
  endfacet
  facet normal -1 0 0
    outer loop
      vertex -27.5 -13.6909 14.5794
      vertex -27.5 -12.9313 17.7984
      vertex -27.5 -11.7557 16.1803
    endloop
  endfacet
  facet normal -1 0 0
    outer loop
      vertex -27.5 -13.6909 14.5794
      vertex -27.5 -15.06 16.0373
      vertex -27.5 -12.9313 17.7984
    endloop
  endfacet
  facet normal -1 0 0
    outer loop
      vertex -27.5 -15.4103 12.7485
      vertex -27.5 -15.06 16.0373
      vertex -27.5 -13.6909 14.5794
    endloop
  endfacet
  facet normal -1 0 0
    outer loop
      vertex -27.5 -16.9513 14.0233
      vertex -27.5 -15.4103 12.7485
      vertex -27.5 -16.8866 10.7165
    endloop
  endfacet
  facet normal -1 0 0
    outer loop
      vertex -27.5 -15.4103 12.7485
      vertex -27.5 -16.9513 14.0233
      vertex -27.5 -15.06 16.0373
    endloop
  endfacet
  facet normal -1 0 0
    outer loop
      vertex -27.5 -18.5752 11.7882
      vertex -27.5 -16.8866 10.7165
      vertex -27.5 -18.0965 8.51558
    endloop
  endfacet
  facet normal -1 0 0
    outer loop
      vertex -27.5 -16.8866 10.7165
      vertex -27.5 -18.5752 11.7882
      vertex -27.5 -16.9513 14.0233
    endloop
  endfacet
  facet normal -1 0 0
    outer loop
      vertex -27.5 -19.9062 9.36714
      vertex -27.5 -18.0965 8.51558
      vertex -27.5 -19.0211 6.18034
    endloop
  endfacet
  facet normal -1 0 0
    outer loop
      vertex -27.5 -20.9232 6.79837
      vertex -27.5 -19.0211 6.18034
      vertex -27.5 -19.6457 3.74763
    endloop
  endfacet
  facet normal -1 0 0
    outer loop
      vertex -27.5 -18.0965 8.51558
      vertex -27.5 -19.9062 9.36714
      vertex -27.5 -18.5752 11.7882
    endloop
  endfacet
  facet normal -1 0 0
    outer loop
      vertex -27.5 -21.6103 4.12239
      vertex -27.5 -19.6457 3.74763
      vertex -27.5 -19.9605 1.25581
    endloop
  endfacet
  facet normal -1 0 0
    outer loop
      vertex -27.5 -21.9566 -1.38139
      vertex -27.5 -19.9605 -1.25581
      vertex -27.5 -21.6103 -4.12239
    endloop
  endfacet
  facet normal -1 0 0
    outer loop
      vertex -27.5 -19.0211 6.18034
      vertex -27.5 -20.9232 6.79837
      vertex -27.5 -19.9062 9.36714
    endloop
  endfacet
  facet normal -1 -0 0
    outer loop
      vertex -27.5 -19.9605 -1.25581
      vertex -27.5 -21.9566 -1.38139
      vertex -27.5 -19.9605 1.25581
    endloop
  endfacet
  facet normal -1 0 0
    outer loop
      vertex -27.5 -19.6457 3.74763
      vertex -27.5 -21.6103 4.12239
      vertex -27.5 -20.9232 6.79837
    endloop
  endfacet
  facet normal -1 0 0
    outer loop
      vertex -27.5 -21.9566 1.38139
      vertex -27.5 -19.9605 1.25581
      vertex -27.5 -21.9566 -1.38139
    endloop
  endfacet
  facet normal -1 0 0
    outer loop
      vertex -27.5 -19.9605 1.25581
      vertex -27.5 -21.9566 1.38139
      vertex -27.5 -21.6103 4.12239
    endloop
  endfacet
  facet normal 0 -0.876307 -0.481754
    outer loop
      vertex -27.5 -18.5752 -11.7882
      vertex -22.5 -19.9062 -9.36714
      vertex -27.5 -19.9062 -9.36714
    endloop
  endfacet
  facet normal 0 -0.876307 -0.481754
    outer loop
      vertex -22.5 -19.9062 -9.36714
      vertex -27.5 -18.5752 -11.7882
      vertex -22.5 -18.5752 -11.7882
    endloop
  endfacet
  facet normal 3.45164e-07 -0.425779 -0.904827
    outer loop
      vertex -27.5 -10.5986 -19.2787
      vertex -22.5 -8.09874 -20.4551
      vertex -22.5 -10.5986 -19.2787
    endloop
  endfacet
  facet normal -0 -0.425779 -0.904827
    outer loop
      vertex -22.5 -8.09874 -20.4551
      vertex -27.5 -10.5986 -19.2787
      vertex -27.5 -8.09874 -20.4551
    endloop
  endfacet
  facet normal -2.93927e-07 -0.637424 0.770513
    outer loop
      vertex -27.5 -12.9313 17.7984
      vertex -22.5 -15.06 16.0373
      vertex -22.5 -12.9313 17.7984
    endloop
  endfacet
  facet normal 0 -0.637424 0.770513
    outer loop
      vertex -22.5 -15.06 16.0373
      vertex -27.5 -12.9313 17.7984
      vertex -27.5 -15.06 16.0373
    endloop
  endfacet
  facet normal -3.62799e-07 -0.309017 0.951056
    outer loop
      vertex -27.5 -5.47118 21.3088
      vertex -22.5 -8.09874 20.4551
      vertex -22.5 -5.47118 21.3088
    endloop
  endfacet
  facet normal 0 -0.309017 0.951057
    outer loop
      vertex -22.5 -8.09874 20.4551
      vertex -27.5 -5.47118 21.3088
      vertex -27.5 -8.09874 20.4551
    endloop
  endfacet
  facet normal 0 -0.728969 -0.684547
    outer loop
      vertex -27.5 -15.06 -16.0373
      vertex -22.5 -16.9513 -14.0233
      vertex -27.5 -16.9513 -14.0233
    endloop
  endfacet
  facet normal 0 -0.728969 -0.684547
    outer loop
      vertex -22.5 -16.9513 -14.0233
      vertex -27.5 -15.06 -16.0373
      vertex -22.5 -15.06 -16.0373
    endloop
  endfacet
  facet normal 0 -0.929777 -0.368124
    outer loop
      vertex -27.5 -19.9062 -9.36714
      vertex -22.5 -20.9232 -6.79837
      vertex -27.5 -20.9232 -6.79837
    endloop
  endfacet
  facet normal 0 -0.929777 -0.368124
    outer loop
      vertex -22.5 -20.9232 -6.79837
      vertex -27.5 -19.9062 -9.36714
      vertex -22.5 -19.9062 -9.36714
    endloop
  endfacet
  facet normal 0 -0.968583 -0.24869
    outer loop
      vertex -27.5 -20.9232 -6.79837
      vertex -22.5 -21.6103 -4.12239
      vertex -27.5 -21.6103 -4.12239
    endloop
  endfacet
  facet normal 0 -0.968583 -0.24869
    outer loop
      vertex -22.5 -21.6103 -4.12239
      vertex -27.5 -20.9232 -6.79837
      vertex -22.5 -20.9232 -6.79837
    endloop
  endfacet
  facet normal 3.22086e-07 -0.535827 -0.844328
    outer loop
      vertex -27.5 -12.9313 -17.7984
      vertex -22.5 -10.5986 -19.2787
      vertex -22.5 -12.9313 -17.7984
    endloop
  endfacet
  facet normal 3.22086e-07 -0.535827 -0.844328
    outer loop
      vertex -22.5 -10.5986 -19.2787
      vertex -27.5 -12.9313 -17.7984
      vertex -27.5 -10.5986 -19.2787
    endloop
  endfacet
  facet normal 0 -0.637424 -0.770513
    outer loop
      vertex -27.5 -15.06 -16.0373
      vertex -22.5 -12.9313 -17.7984
      vertex -22.5 -15.06 -16.0373
    endloop
  endfacet
  facet normal 2.93927e-07 -0.637424 -0.770513
    outer loop
      vertex -22.5 -12.9313 -17.7984
      vertex -27.5 -15.06 -16.0373
      vertex -27.5 -12.9313 -17.7984
    endloop
  endfacet
  facet normal 0 -0.309017 -0.951057
    outer loop
      vertex -27.5 -8.09874 -20.4551
      vertex -22.5 -5.47118 -21.3088
      vertex -22.5 -8.09874 -20.4551
    endloop
  endfacet
  facet normal 3.62799e-07 -0.309017 -0.951056
    outer loop
      vertex -22.5 -5.47118 -21.3088
      vertex -27.5 -8.09874 -20.4551
      vertex -27.5 -5.47118 -21.3088
    endloop
  endfacet
  facet normal 0 -0.992115 0.125334
    outer loop
      vertex -27.5 -21.9566 1.38139
      vertex -22.5 -21.6103 4.12239
      vertex -27.5 -21.6103 4.12239
    endloop
  endfacet
  facet normal 0 -0.992115 0.125334
    outer loop
      vertex -22.5 -21.6103 4.12239
      vertex -27.5 -21.9566 1.38139
      vertex -22.5 -21.9566 1.38139
    endloop
  endfacet
  facet normal 0 -0.809017 0.587786
    outer loop
      vertex -27.5 -18.5752 11.7882
      vertex -22.5 -16.9513 14.0233
      vertex -27.5 -16.9513 14.0233
    endloop
  endfacet
  facet normal 0 -0.809017 0.587786
    outer loop
      vertex -22.5 -16.9513 14.0233
      vertex -27.5 -18.5752 11.7882
      vertex -22.5 -18.5752 11.7882
    endloop
  endfacet
  facet normal 0 -0.187381 0.982287
    outer loop
      vertex -27.5 -2.75733 21.8265
      vertex -22.5 -5.47118 21.3088
      vertex -22.5 -2.75733 21.8265
    endloop
  endfacet
  facet normal -3.74713e-07 -0.187382 0.982287
    outer loop
      vertex -22.5 -5.47118 21.3088
      vertex -27.5 -2.75733 21.8265
      vertex -27.5 -5.47118 21.3088
    endloop
  endfacet
  facet normal 0 -0.0627907 0.998027
    outer loop
      vertex -27.5 0 22
      vertex -22.5 -2.75733 21.8265
      vertex -22.5 0 22
    endloop
  endfacet
  facet normal 0 -0.0627907 0.998027
    outer loop
      vertex -22.5 -2.75733 21.8265
      vertex -27.5 0 22
      vertex -27.5 -2.75733 21.8265
    endloop
  endfacet
  facet normal 0 -0.809017 -0.587786
    outer loop
      vertex -27.5 -16.9513 -14.0233
      vertex -22.5 -18.5752 -11.7882
      vertex -27.5 -18.5752 -11.7882
    endloop
  endfacet
  facet normal 0 -0.809017 -0.587786
    outer loop
      vertex -22.5 -18.5752 -11.7882
      vertex -27.5 -16.9513 -14.0233
      vertex -22.5 -16.9513 -14.0233
    endloop
  endfacet
  facet normal 0 -0.968583 0.24869
    outer loop
      vertex -27.5 -21.6103 4.12239
      vertex -22.5 -20.9232 6.79837
      vertex -27.5 -20.9232 6.79837
    endloop
  endfacet
  facet normal 0 -0.968583 0.24869
    outer loop
      vertex -22.5 -20.9232 6.79837
      vertex -27.5 -21.6103 4.12239
      vertex -22.5 -21.6103 4.12239
    endloop
  endfacet
  facet normal 0 -0.929777 0.368124
    outer loop
      vertex -27.5 -20.9232 6.79837
      vertex -22.5 -19.9062 9.36714
      vertex -27.5 -19.9062 9.36714
    endloop
  endfacet
  facet normal 0 -0.929777 0.368124
    outer loop
      vertex -22.5 -19.9062 9.36714
      vertex -27.5 -20.9232 6.79837
      vertex -22.5 -20.9232 6.79837
    endloop
  endfacet
  facet normal 0 -0.876307 0.481754
    outer loop
      vertex -27.5 -19.9062 9.36714
      vertex -22.5 -18.5752 11.7882
      vertex -27.5 -18.5752 11.7882
    endloop
  endfacet
  facet normal 0 -0.876307 0.481754
    outer loop
      vertex -22.5 -18.5752 11.7882
      vertex -27.5 -19.9062 9.36714
      vertex -22.5 -19.9062 9.36714
    endloop
  endfacet
  facet normal 0 -0.062791 0.998027
    outer loop
      vertex -27.5 2.50666 -19.8423
      vertex -22.5 0 -20
      vertex -22.5 2.50666 -19.8423
    endloop
  endfacet
  facet normal 0 -0.062791 0.998027
    outer loop
      vertex -22.5 0 -20
      vertex -27.5 2.50666 -19.8423
      vertex -27.5 0 -20
    endloop
  endfacet
  facet normal 0 -0.062791 -0.998027
    outer loop
      vertex -27.5 0 20
      vertex -22.5 2.50666 19.8423
      vertex -22.5 0 20
    endloop
  endfacet
  facet normal -0 -0.062791 -0.998027
    outer loop
      vertex -22.5 2.50666 19.8423
      vertex -27.5 0 20
      vertex -27.5 2.50666 19.8423
    endloop
  endfacet
  facet normal 0 -1 0
    outer loop
      vertex -27.5 19.9605 -1.25581
      vertex -22.5 19.9605 1.25581
      vertex -27.5 19.9605 1.25581
    endloop
  endfacet
  facet normal 0 -1 -0
    outer loop
      vertex -22.5 19.9605 1.25581
      vertex -27.5 19.9605 -1.25581
      vertex -22.5 19.9605 -1.25581
    endloop
  endfacet
  facet normal 0 1 -0
    outer loop
      vertex -22.5 -19.9605 -1.25581
      vertex -27.5 -19.9605 1.25581
      vertex -22.5 -19.9605 1.25581
    endloop
  endfacet
  facet normal 0 1 0
    outer loop
      vertex -27.5 -19.9605 1.25581
      vertex -22.5 -19.9605 -1.25581
      vertex -27.5 -19.9605 -1.25581
    endloop
  endfacet
  facet normal 0 -0.728969 0.684547
    outer loop
      vertex -27.5 13.6909 -14.5794
      vertex -22.5 15.4103 -12.7485
      vertex -27.5 15.4103 -12.7485
    endloop
  endfacet
  facet normal 0 -0.728969 0.684547
    outer loop
      vertex -22.5 15.4103 -12.7485
      vertex -27.5 13.6909 -14.5794
      vertex -22.5 13.6909 -14.5794
    endloop
  endfacet
  facet normal 0 -0.728969 -0.684547
    outer loop
      vertex -27.5 15.4103 12.7485
      vertex -22.5 13.6909 14.5794
      vertex -27.5 13.6909 14.5794
    endloop
  endfacet
  facet normal 0 -0.728969 -0.684547
    outer loop
      vertex -22.5 13.6909 14.5794
      vertex -27.5 15.4103 12.7485
      vertex -22.5 15.4103 12.7485
    endloop
  endfacet
  facet normal 0 -0.929776 -0.368125
    outer loop
      vertex -27.5 19.0211 6.18034
      vertex -22.5 18.0965 8.51558
      vertex -27.5 18.0965 8.51558
    endloop
  endfacet
  facet normal 0 -0.929776 -0.368125
    outer loop
      vertex -22.5 18.0965 8.51558
      vertex -27.5 19.0211 6.18034
      vertex -22.5 19.0211 6.18034
    endloop
  endfacet
  facet normal -3.45164e-07 -0.42578 0.904827
    outer loop
      vertex -27.5 9.63507 -17.5261
      vertex -22.5 7.36249 -18.5955
      vertex -22.5 9.63507 -17.5261
    endloop
  endfacet
  facet normal 0 -0.425779 0.904827
    outer loop
      vertex -22.5 7.36249 -18.5955
      vertex -27.5 9.63507 -17.5261
      vertex -27.5 7.36249 -18.5955
    endloop
  endfacet
  facet normal 0 -0.929776 0.368125
    outer loop
      vertex -27.5 18.0965 -8.51558
      vertex -22.5 19.0211 -6.18034
      vertex -27.5 19.0211 -6.18034
    endloop
  endfacet
  facet normal 0 -0.929776 0.368125
    outer loop
      vertex -22.5 19.0211 -6.18034
      vertex -27.5 18.0965 -8.51558
      vertex -22.5 18.0965 -8.51558
    endloop
  endfacet
  facet normal 0 -0.809017 0.587786
    outer loop
      vertex -27.5 15.4103 -12.7485
      vertex -22.5 16.8866 -10.7165
      vertex -27.5 16.8866 -10.7165
    endloop
  endfacet
  facet normal 0 -0.809017 0.587786
    outer loop
      vertex -22.5 16.8866 -10.7165
      vertex -27.5 15.4103 -12.7485
      vertex -22.5 15.4103 -12.7485
    endloop
  endfacet
  facet normal 3.22086e-07 -0.535827 -0.844328
    outer loop
      vertex -27.5 9.63507 17.5261
      vertex -22.5 11.7557 16.1803
      vertex -22.5 9.63507 17.5261
    endloop
  endfacet
  facet normal -0 -0.535826 -0.844328
    outer loop
      vertex -22.5 11.7557 16.1803
      vertex -27.5 9.63507 17.5261
      vertex -27.5 11.7557 16.1803
    endloop
  endfacet
  facet normal 0 -0.637424 -0.770513
    outer loop
      vertex -27.5 11.7557 16.1803
      vertex -22.5 13.6909 14.5794
      vertex -22.5 11.7557 16.1803
    endloop
  endfacet
  facet normal -0 -0.637424 -0.770513
    outer loop
      vertex -22.5 13.6909 14.5794
      vertex -27.5 11.7557 16.1803
      vertex -27.5 13.6909 14.5794
    endloop
  endfacet
  facet normal 0 -0.309017 -0.951057
    outer loop
      vertex -27.5 4.9738 19.3717
      vertex -22.5 7.36249 18.5955
      vertex -22.5 4.9738 19.3717
    endloop
  endfacet
  facet normal -0 -0.309017 -0.951057
    outer loop
      vertex -22.5 7.36249 18.5955
      vertex -27.5 4.9738 19.3717
      vertex -27.5 7.36249 18.5955
    endloop
  endfacet
  facet normal 0 -0.876307 -0.481753
    outer loop
      vertex -27.5 18.0965 8.51558
      vertex -22.5 16.8866 10.7165
      vertex -27.5 16.8866 10.7165
    endloop
  endfacet
  facet normal 0 -0.876307 -0.481753
    outer loop
      vertex -22.5 16.8866 10.7165
      vertex -27.5 18.0965 8.51558
      vertex -22.5 18.0965 8.51558
    endloop
  endfacet
  facet normal 0 -0.968583 -0.24869
    outer loop
      vertex -27.5 19.6457 3.74763
      vertex -22.5 19.0211 6.18034
      vertex -27.5 19.0211 6.18034
    endloop
  endfacet
  facet normal 0 -0.968583 -0.24869
    outer loop
      vertex -22.5 19.0211 6.18034
      vertex -27.5 19.6457 3.74763
      vertex -22.5 19.6457 3.74763
    endloop
  endfacet
  facet normal 0 -0.309017 0.951057
    outer loop
      vertex -27.5 7.36249 -18.5955
      vertex -22.5 4.9738 -19.3717
      vertex -22.5 7.36249 -18.5955
    endloop
  endfacet
  facet normal 0 -0.309017 0.951057
    outer loop
      vertex -22.5 4.9738 -19.3717
      vertex -27.5 7.36249 -18.5955
      vertex -27.5 4.9738 -19.3717
    endloop
  endfacet
  facet normal 0 -0.187381 0.982287
    outer loop
      vertex -27.5 4.9738 -19.3717
      vertex -22.5 2.50666 -19.8423
      vertex -22.5 4.9738 -19.3717
    endloop
  endfacet
  facet normal 0 -0.187381 0.982287
    outer loop
      vertex -22.5 2.50666 -19.8423
      vertex -27.5 4.9738 -19.3717
      vertex -27.5 2.50666 -19.8423
    endloop
  endfacet
  facet normal 0 -0.637424 0.770513
    outer loop
      vertex -27.5 13.6909 -14.5794
      vertex -22.5 11.7557 -16.1803
      vertex -22.5 13.6909 -14.5794
    endloop
  endfacet
  facet normal 0 -0.637424 0.770513
    outer loop
      vertex -22.5 11.7557 -16.1803
      vertex -27.5 13.6909 -14.5794
      vertex -27.5 11.7557 -16.1803
    endloop
  endfacet
  facet normal 0 -0.535826 0.844328
    outer loop
      vertex -27.5 11.7557 -16.1803
      vertex -22.5 9.63507 -17.5261
      vertex -22.5 11.7557 -16.1803
    endloop
  endfacet
  facet normal -3.22086e-07 -0.535827 0.844328
    outer loop
      vertex -22.5 9.63507 -17.5261
      vertex -27.5 11.7557 -16.1803
      vertex -27.5 9.63507 -17.5261
    endloop
  endfacet
  facet normal 0 -0.968583 0.24869
    outer loop
      vertex -27.5 19.0211 -6.18034
      vertex -22.5 19.6457 -3.74763
      vertex -27.5 19.6457 -3.74763
    endloop
  endfacet
  facet normal 0 -0.968583 0.24869
    outer loop
      vertex -22.5 19.6457 -3.74763
      vertex -27.5 19.0211 -6.18034
      vertex -22.5 19.0211 -6.18034
    endloop
  endfacet
  facet normal 0 -0.992115 0.125333
    outer loop
      vertex -27.5 19.6457 -3.74763
      vertex -22.5 19.9605 -1.25581
      vertex -27.5 19.9605 -1.25581
    endloop
  endfacet
  facet normal 0 -0.992115 0.125333
    outer loop
      vertex -22.5 19.9605 -1.25581
      vertex -27.5 19.6457 -3.74763
      vertex -22.5 19.6457 -3.74763
    endloop
  endfacet
  facet normal 0 -0.425779 -0.904827
    outer loop
      vertex -27.5 7.36249 18.5955
      vertex -22.5 9.63507 17.5261
      vertex -22.5 7.36249 18.5955
    endloop
  endfacet
  facet normal 3.45164e-07 -0.42578 -0.904827
    outer loop
      vertex -22.5 9.63507 17.5261
      vertex -27.5 7.36249 18.5955
      vertex -27.5 9.63507 17.5261
    endloop
  endfacet
  facet normal 0 -0.187381 -0.982287
    outer loop
      vertex -27.5 2.50666 19.8423
      vertex -22.5 4.9738 19.3717
      vertex -22.5 2.50666 19.8423
    endloop
  endfacet
  facet normal -0 -0.187381 -0.982287
    outer loop
      vertex -22.5 4.9738 19.3717
      vertex -27.5 2.50666 19.8423
      vertex -27.5 4.9738 19.3717
    endloop
  endfacet
  facet normal 0 -0.809017 -0.587786
    outer loop
      vertex -27.5 16.8866 10.7165
      vertex -22.5 15.4103 12.7485
      vertex -27.5 15.4103 12.7485
    endloop
  endfacet
  facet normal 0 -0.809017 -0.587786
    outer loop
      vertex -22.5 15.4103 12.7485
      vertex -27.5 16.8866 10.7165
      vertex -22.5 16.8866 10.7165
    endloop
  endfacet
  facet normal 0 -0.992115 -0.125333
    outer loop
      vertex -27.5 19.9605 1.25581
      vertex -22.5 19.6457 3.74763
      vertex -27.5 19.6457 3.74763
    endloop
  endfacet
  facet normal 0 -0.992115 -0.125333
    outer loop
      vertex -22.5 19.6457 3.74763
      vertex -27.5 19.9605 1.25581
      vertex -22.5 19.9605 1.25581
    endloop
  endfacet
  facet normal -0 0.062791 0.998027
    outer loop
      vertex -27.5 0 -20
      vertex -22.5 -2.50666 -19.8423
      vertex -22.5 0 -20
    endloop
  endfacet
  facet normal 0 0.062791 0.998027
    outer loop
      vertex -22.5 -2.50666 -19.8423
      vertex -27.5 0 -20
      vertex -27.5 -2.50666 -19.8423
    endloop
  endfacet
  facet normal -0 0.637424 0.770513
    outer loop
      vertex -27.5 -11.7557 -16.1803
      vertex -22.5 -13.6909 -14.5794
      vertex -22.5 -11.7557 -16.1803
    endloop
  endfacet
  facet normal 0 0.637424 0.770513
    outer loop
      vertex -22.5 -13.6909 -14.5794
      vertex -27.5 -11.7557 -16.1803
      vertex -27.5 -13.6909 -14.5794
    endloop
  endfacet
  facet normal -0 0.309017 0.951057
    outer loop
      vertex -27.5 -4.9738 -19.3717
      vertex -22.5 -7.36249 -18.5955
      vertex -22.5 -4.9738 -19.3717
    endloop
  endfacet
  facet normal 0 0.309017 0.951057
    outer loop
      vertex -22.5 -7.36249 -18.5955
      vertex -27.5 -4.9738 -19.3717
      vertex -27.5 -7.36249 -18.5955
    endloop
  endfacet
  facet normal -0 0.187381 0.982287
    outer loop
      vertex -27.5 -2.50666 -19.8423
      vertex -22.5 -4.9738 -19.3717
      vertex -22.5 -2.50666 -19.8423
    endloop
  endfacet
  facet normal 0 0.187381 0.982287
    outer loop
      vertex -22.5 -4.9738 -19.3717
      vertex -27.5 -2.50666 -19.8423
      vertex -27.5 -4.9738 -19.3717
    endloop
  endfacet
  facet normal 0 0.929776 -0.368125
    outer loop
      vertex -22.5 -19.0211 6.18034
      vertex -27.5 -18.0965 8.51558
      vertex -22.5 -18.0965 8.51558
    endloop
  endfacet
  facet normal 0 0.929776 -0.368125
    outer loop
      vertex -27.5 -18.0965 8.51558
      vertex -22.5 -19.0211 6.18034
      vertex -27.5 -19.0211 6.18034
    endloop
  endfacet
  facet normal 0 0.929776 0.368125
    outer loop
      vertex -22.5 -18.0965 -8.51558
      vertex -27.5 -19.0211 -6.18034
      vertex -22.5 -19.0211 -6.18034
    endloop
  endfacet
  facet normal 0 0.929776 0.368125
    outer loop
      vertex -27.5 -19.0211 -6.18034
      vertex -22.5 -18.0965 -8.51558
      vertex -27.5 -18.0965 -8.51558
    endloop
  endfacet
  facet normal 0 -0.876307 0.481753
    outer loop
      vertex -27.5 16.8866 -10.7165
      vertex -22.5 18.0965 -8.51558
      vertex -27.5 18.0965 -8.51558
    endloop
  endfacet
  facet normal 0 -0.876307 0.481753
    outer loop
      vertex -22.5 18.0965 -8.51558
      vertex -27.5 16.8866 -10.7165
      vertex -22.5 16.8866 -10.7165
    endloop
  endfacet
  facet normal 0 0.876307 0.481753
    outer loop
      vertex -22.5 -16.8866 -10.7165
      vertex -27.5 -18.0965 -8.51558
      vertex -22.5 -18.0965 -8.51558
    endloop
  endfacet
  facet normal 0 0.876307 0.481753
    outer loop
      vertex -27.5 -18.0965 -8.51558
      vertex -22.5 -16.8866 -10.7165
      vertex -27.5 -16.8866 -10.7165
    endloop
  endfacet
  facet normal -3.22086e-07 0.535826 0.844328
    outer loop
      vertex -27.5 -9.63507 -17.5261
      vertex -22.5 -11.7557 -16.1803
      vertex -22.5 -9.63507 -17.5261
    endloop
  endfacet
  facet normal 0 0.535827 0.844328
    outer loop
      vertex -22.5 -11.7557 -16.1803
      vertex -27.5 -9.63507 -17.5261
      vertex -27.5 -11.7557 -16.1803
    endloop
  endfacet
  facet normal 0 0.637424 -0.770513
    outer loop
      vertex -27.5 -13.6909 14.5794
      vertex -22.5 -11.7557 16.1803
      vertex -22.5 -13.6909 14.5794
    endloop
  endfacet
  facet normal 0 0.637424 -0.770513
    outer loop
      vertex -22.5 -11.7557 16.1803
      vertex -27.5 -13.6909 14.5794
      vertex -27.5 -11.7557 16.1803
    endloop
  endfacet
  facet normal 3.45164e-07 0.425779 -0.904827
    outer loop
      vertex -27.5 -9.63507 17.5261
      vertex -22.5 -7.36249 18.5955
      vertex -22.5 -9.63507 17.5261
    endloop
  endfacet
  facet normal 0 0.42578 -0.904827
    outer loop
      vertex -22.5 -7.36249 18.5955
      vertex -27.5 -9.63507 17.5261
      vertex -27.5 -7.36249 18.5955
    endloop
  endfacet
  facet normal 0 0.309017 -0.951057
    outer loop
      vertex -27.5 -7.36249 18.5955
      vertex -22.5 -4.9738 19.3717
      vertex -22.5 -7.36249 18.5955
    endloop
  endfacet
  facet normal 0 0.309017 -0.951057
    outer loop
      vertex -22.5 -4.9738 19.3717
      vertex -27.5 -7.36249 18.5955
      vertex -27.5 -4.9738 19.3717
    endloop
  endfacet
  facet normal 0 0.062791 -0.998027
    outer loop
      vertex -27.5 -2.50666 19.8423
      vertex -22.5 0 20
      vertex -22.5 -2.50666 19.8423
    endloop
  endfacet
  facet normal 0 0.062791 -0.998027
    outer loop
      vertex -22.5 0 20
      vertex -27.5 -2.50666 19.8423
      vertex -27.5 0 20
    endloop
  endfacet
  facet normal 0 0.968583 0.24869
    outer loop
      vertex -22.5 -19.0211 -6.18034
      vertex -27.5 -19.6457 -3.74763
      vertex -22.5 -19.6457 -3.74763
    endloop
  endfacet
  facet normal 0 0.968583 0.24869
    outer loop
      vertex -27.5 -19.6457 -3.74763
      vertex -22.5 -19.0211 -6.18034
      vertex -27.5 -19.0211 -6.18034
    endloop
  endfacet
  facet normal 0 0.992115 0.125333
    outer loop
      vertex -22.5 -19.6457 -3.74763
      vertex -27.5 -19.9605 -1.25581
      vertex -22.5 -19.9605 -1.25581
    endloop
  endfacet
  facet normal 0 0.992115 0.125333
    outer loop
      vertex -27.5 -19.9605 -1.25581
      vertex -22.5 -19.6457 -3.74763
      vertex -27.5 -19.6457 -3.74763
    endloop
  endfacet
  facet normal 0 0.728969 0.684547
    outer loop
      vertex -22.5 -13.6909 -14.5794
      vertex -27.5 -15.4103 -12.7485
      vertex -22.5 -15.4103 -12.7485
    endloop
  endfacet
  facet normal 0 0.728969 0.684547
    outer loop
      vertex -27.5 -15.4103 -12.7485
      vertex -22.5 -13.6909 -14.5794
      vertex -27.5 -13.6909 -14.5794
    endloop
  endfacet
  facet normal 0 0.809017 0.587786
    outer loop
      vertex -22.5 -15.4103 -12.7485
      vertex -27.5 -16.8866 -10.7165
      vertex -22.5 -16.8866 -10.7165
    endloop
  endfacet
  facet normal 0 0.809017 0.587786
    outer loop
      vertex -27.5 -16.8866 -10.7165
      vertex -22.5 -15.4103 -12.7485
      vertex -27.5 -15.4103 -12.7485
    endloop
  endfacet
  facet normal -0 0.42578 0.904827
    outer loop
      vertex -27.5 -7.36249 -18.5955
      vertex -22.5 -9.63507 -17.5261
      vertex -22.5 -7.36249 -18.5955
    endloop
  endfacet
  facet normal -3.45164e-07 0.425779 0.904827
    outer loop
      vertex -22.5 -9.63507 -17.5261
      vertex -27.5 -7.36249 -18.5955
      vertex -27.5 -9.63507 -17.5261
    endloop
  endfacet
  facet normal 0 0.992115 -0.125333
    outer loop
      vertex -22.5 -19.9605 1.25581
      vertex -27.5 -19.6457 3.74763
      vertex -22.5 -19.6457 3.74763
    endloop
  endfacet
  facet normal 0 0.992115 -0.125333
    outer loop
      vertex -27.5 -19.6457 3.74763
      vertex -22.5 -19.9605 1.25581
      vertex -27.5 -19.9605 1.25581
    endloop
  endfacet
  facet normal 0 0.728969 -0.684547
    outer loop
      vertex -22.5 -15.4103 12.7485
      vertex -27.5 -13.6909 14.5794
      vertex -22.5 -13.6909 14.5794
    endloop
  endfacet
  facet normal 0 0.728969 -0.684547
    outer loop
      vertex -27.5 -13.6909 14.5794
      vertex -22.5 -15.4103 12.7485
      vertex -27.5 -15.4103 12.7485
    endloop
  endfacet
  facet normal 0 0.876307 -0.481753
    outer loop
      vertex -22.5 -18.0965 8.51558
      vertex -27.5 -16.8866 10.7165
      vertex -22.5 -16.8866 10.7165
    endloop
  endfacet
  facet normal 0 0.876307 -0.481753
    outer loop
      vertex -27.5 -16.8866 10.7165
      vertex -22.5 -18.0965 8.51558
      vertex -27.5 -18.0965 8.51558
    endloop
  endfacet
  facet normal 0 0.968583 -0.24869
    outer loop
      vertex -22.5 -19.6457 3.74763
      vertex -27.5 -19.0211 6.18034
      vertex -22.5 -19.0211 6.18034
    endloop
  endfacet
  facet normal 0 0.968583 -0.24869
    outer loop
      vertex -27.5 -19.0211 6.18034
      vertex -22.5 -19.6457 3.74763
      vertex -27.5 -19.6457 3.74763
    endloop
  endfacet
  facet normal 0 0.535827 -0.844328
    outer loop
      vertex -27.5 -11.7557 16.1803
      vertex -22.5 -9.63507 17.5261
      vertex -22.5 -11.7557 16.1803
    endloop
  endfacet
  facet normal 3.22086e-07 0.535826 -0.844328
    outer loop
      vertex -22.5 -9.63507 17.5261
      vertex -27.5 -11.7557 16.1803
      vertex -27.5 -9.63507 17.5261
    endloop
  endfacet
  facet normal 0 0.187381 -0.982287
    outer loop
      vertex -27.5 -4.9738 19.3717
      vertex -22.5 -2.50666 19.8423
      vertex -22.5 -4.9738 19.3717
    endloop
  endfacet
  facet normal 0 0.187381 -0.982287
    outer loop
      vertex -22.5 -2.50666 19.8423
      vertex -27.5 -4.9738 19.3717
      vertex -27.5 -2.50666 19.8423
    endloop
  endfacet
  facet normal 0 0.809017 -0.587786
    outer loop
      vertex -22.5 -16.8866 10.7165
      vertex -27.5 -15.4103 12.7485
      vertex -22.5 -15.4103 12.7485
    endloop
  endfacet
  facet normal 0 0.809017 -0.587786
    outer loop
      vertex -27.5 -15.4103 12.7485
      vertex -22.5 -16.8866 10.7165
      vertex -27.5 -16.8866 10.7165
    endloop
  endfacet
endsolid OpenSCAD_Model
