solid OpenSCAD_Model
  facet normal -1 0 0
    outer loop
      vertex -26.5 -20 -3
      vertex -26.5 20 3
      vertex -26.5 20 -3
    endloop
  endfacet
  facet normal -1 -0 0
    outer loop
      vertex -26.5 20 3
      vertex -26.5 -20 -3
      vertex -26.5 -20 3
    endloop
  endfacet
  facet normal 0 0 1
    outer loop
      vertex 26.5 20 3
      vertex 18 12.5 3
      vertex 26.5 -20 3
    endloop
  endfacet
  facet normal 0 0 1
    outer loop
      vertex 26.5 20 3
      vertex -18 12.5 3
      vertex 18 12.5 3
    endloop
  endfacet
  facet normal 0 0 1
    outer loop
      vertex -18 12.5 3
      vertex -26.5 20 3
      vertex -18 -12.5 3
    endloop
  endfacet
  facet normal -0 0 1
    outer loop
      vertex -26.5 20 3
      vertex -18 12.5 3
      vertex 26.5 20 3
    endloop
  endfacet
  facet normal -0 0 1
    outer loop
      vertex 18 -12.5 3
      vertex 26.5 -20 3
      vertex 18 12.5 3
    endloop
  endfacet
  facet normal -0 0 1
    outer loop
      vertex -18 -12.5 3
      vertex 26.5 -20 3
      vertex 18 -12.5 3
    endloop
  endfacet
  facet normal 0 0 1
    outer loop
      vertex -18 -12.5 3
      vertex -26.5 -20 3
      vertex 26.5 -20 3
    endloop
  endfacet
  facet normal 0 0 1
    outer loop
      vertex -26.5 -20 3
      vertex -18 -12.5 3
      vertex -26.5 20 3
    endloop
  endfacet
  facet normal 1 -0 0
    outer loop
      vertex 26.5 -20 3
      vertex 26.5 20 -3
      vertex 26.5 20 3
    endloop
  endfacet
  facet normal 1 0 0
    outer loop
      vertex 26.5 20 -3
      vertex 26.5 -20 3
      vertex 26.5 -20 -3
    endloop
  endfacet
  facet normal 0 1 -0
    outer loop
      vertex 26.5 20 -3
      vertex -26.5 20 3
      vertex 26.5 20 3
    endloop
  endfacet
  facet normal 0 1 0
    outer loop
      vertex -26.5 20 3
      vertex 26.5 20 -3
      vertex -26.5 20 -3
    endloop
  endfacet
  facet normal 0 0 -1
    outer loop
      vertex 26.5 -20 -3
      vertex 18 -12.5 -3
      vertex 26.5 20 -3
    endloop
  endfacet
  facet normal 0 0 -1
    outer loop
      vertex 26.5 -20 -3
      vertex -18 -12.5 -3
      vertex 18 -12.5 -3
    endloop
  endfacet
  facet normal -0 0 -1
    outer loop
      vertex -18 -12.5 -3
      vertex -26.5 -20 -3
      vertex -18 12.5 -3
    endloop
  endfacet
  facet normal 0 0 -1
    outer loop
      vertex -26.5 -20 -3
      vertex -18 -12.5 -3
      vertex 26.5 -20 -3
    endloop
  endfacet
  facet normal 0 0 -1
    outer loop
      vertex 18 12.5 -3
      vertex 26.5 20 -3
      vertex 18 -12.5 -3
    endloop
  endfacet
  facet normal 0 0 -1
    outer loop
      vertex -18 12.5 -3
      vertex 26.5 20 -3
      vertex 18 12.5 -3
    endloop
  endfacet
  facet normal 0 0 -1
    outer loop
      vertex -18 12.5 -3
      vertex -26.5 20 -3
      vertex 26.5 20 -3
    endloop
  endfacet
  facet normal 0 0 -1
    outer loop
      vertex -26.5 20 -3
      vertex -18 12.5 -3
      vertex -26.5 -20 -3
    endloop
  endfacet
  facet normal 0 -1 0
    outer loop
      vertex -26.5 -20 3
      vertex -23.5 -20 1.5
      vertex 26.5 -20 3
    endloop
  endfacet
  facet normal 0 -1 0
    outer loop
      vertex -26.5 -20 3
      vertex -23.5 -20 -1.5
      vertex -23.5 -20 1.5
    endloop
  endfacet
  facet normal 0 -1 -0
    outer loop
      vertex -23.5 -20 -1.5
      vertex -26.5 -20 -3
      vertex 23.5 -20 -1.5
    endloop
  endfacet
  facet normal 0 -1 0
    outer loop
      vertex -26.5 -20 -3
      vertex -23.5 -20 -1.5
      vertex -26.5 -20 3
    endloop
  endfacet
  facet normal 0 -1 0
    outer loop
      vertex 23.5 -20 1.5
      vertex 26.5 -20 3
      vertex -23.5 -20 1.5
    endloop
  endfacet
  facet normal 0 -1 0
    outer loop
      vertex 23.5 -20 -1.5
      vertex 26.5 -20 3
      vertex 23.5 -20 1.5
    endloop
  endfacet
  facet normal 0 -1 0
    outer loop
      vertex 23.5 -20 -1.5
      vertex 26.5 -20 -3
      vertex 26.5 -20 3
    endloop
  endfacet
  facet normal 0 -1 0
    outer loop
      vertex 26.5 -20 -3
      vertex 23.5 -20 -1.5
      vertex -26.5 -20 -3
    endloop
  endfacet
  facet normal 1 -0 0
    outer loop
      vertex -23.5 -20 1.5
      vertex -23.5 17 -1.5
      vertex -23.5 17 1.5
    endloop
  endfacet
  facet normal 1 0 0
    outer loop
      vertex -23.5 17 -1.5
      vertex -23.5 -20 1.5
      vertex -23.5 -20 -1.5
    endloop
  endfacet
  facet normal 0 0 -1
    outer loop
      vertex 23.5 -20 1.5
      vertex 18 -12.5 1.5
      vertex 23.5 17 1.5
    endloop
  endfacet
  facet normal 0 0 -1
    outer loop
      vertex 23.5 -20 1.5
      vertex -18 -12.5 1.5
      vertex 18 -12.5 1.5
    endloop
  endfacet
  facet normal 0 0 -1
    outer loop
      vertex -23.5 17 1.5
      vertex -18 -12.5 1.5
      vertex -23.5 -20 1.5
    endloop
  endfacet
  facet normal 0 0 -1
    outer loop
      vertex -23.5 -20 1.5
      vertex -18 -12.5 1.5
      vertex 23.5 -20 1.5
    endloop
  endfacet
  facet normal 0 0 -1
    outer loop
      vertex 18 12.5 1.5
      vertex 23.5 17 1.5
      vertex 18 -12.5 1.5
    endloop
  endfacet
  facet normal 0 0 -1
    outer loop
      vertex -18 12.5 1.5
      vertex 23.5 17 1.5
      vertex 18 12.5 1.5
    endloop
  endfacet
  facet normal 0 0 -1
    outer loop
      vertex -18 12.5 1.5
      vertex -23.5 17 1.5
      vertex 23.5 17 1.5
    endloop
  endfacet
  facet normal 0 0 -1
    outer loop
      vertex -18 -12.5 1.5
      vertex -23.5 17 1.5
      vertex -18 12.5 1.5
    endloop
  endfacet
  facet normal -1 0 0
    outer loop
      vertex 23.5 -20 -1.5
      vertex 23.5 17 1.5
      vertex 23.5 17 -1.5
    endloop
  endfacet
  facet normal -1 -0 0
    outer loop
      vertex 23.5 17 1.5
      vertex 23.5 -20 -1.5
      vertex 23.5 -20 1.5
    endloop
  endfacet
  facet normal 0 0 1
    outer loop
      vertex 18 -12.5 -1.5
      vertex 23.5 17 -1.5
      vertex 18 12.5 -1.5
    endloop
  endfacet
  facet normal 0 0 1
    outer loop
      vertex 23.5 17 -1.5
      vertex -18 12.5 -1.5
      vertex 18 12.5 -1.5
    endloop
  endfacet
  facet normal 0 0 1
    outer loop
      vertex -18 12.5 -1.5
      vertex -23.5 17 -1.5
      vertex -18 -12.5 -1.5
    endloop
  endfacet
  facet normal -0 0 1
    outer loop
      vertex -23.5 17 -1.5
      vertex -18 12.5 -1.5
      vertex 23.5 17 -1.5
    endloop
  endfacet
  facet normal 0 0 1
    outer loop
      vertex 23.5 17 -1.5
      vertex 18 -12.5 -1.5
      vertex 23.5 -20 -1.5
    endloop
  endfacet
  facet normal -0 0 1
    outer loop
      vertex -18 -12.5 -1.5
      vertex 23.5 -20 -1.5
      vertex 18 -12.5 -1.5
    endloop
  endfacet
  facet normal 0 0 1
    outer loop
      vertex -18 -12.5 -1.5
      vertex -23.5 -20 -1.5
      vertex 23.5 -20 -1.5
    endloop
  endfacet
  facet normal 0 0 1
    outer loop
      vertex -23.5 -20 -1.5
      vertex -18 -12.5 -1.5
      vertex -23.5 17 -1.5
    endloop
  endfacet
  facet normal 0 -1 0
    outer loop
      vertex -23.5 17 -1.5
      vertex 23.5 17 1.5
      vertex -23.5 17 1.5
    endloop
  endfacet
  facet normal 0 -1 -0
    outer loop
      vertex 23.5 17 1.5
      vertex -23.5 17 -1.5
      vertex 23.5 17 -1.5
    endloop
  endfacet
  facet normal 1 -0 0
    outer loop
      vertex -18 -12.5 3
      vertex -18 12.5 1.5
      vertex -18 12.5 3
    endloop
  endfacet
  facet normal 1 0 0
    outer loop
      vertex -18 12.5 1.5
      vertex -18 -12.5 3
      vertex -18 -12.5 1.5
    endloop
  endfacet
  facet normal 1 -0 0
    outer loop
      vertex -18 -12.5 -1.5
      vertex -18 12.5 -3
      vertex -18 12.5 -1.5
    endloop
  endfacet
  facet normal 1 0 0
    outer loop
      vertex -18 12.5 -3
      vertex -18 -12.5 -1.5
      vertex -18 -12.5 -3
    endloop
  endfacet
  facet normal -1 0 0
    outer loop
      vertex 18 -12.5 1.5
      vertex 18 12.5 3
      vertex 18 12.5 1.5
    endloop
  endfacet
  facet normal -1 -0 0
    outer loop
      vertex 18 12.5 3
      vertex 18 -12.5 1.5
      vertex 18 -12.5 3
    endloop
  endfacet
  facet normal -1 0 0
    outer loop
      vertex 18 -12.5 -3
      vertex 18 12.5 -1.5
      vertex 18 12.5 -3
    endloop
  endfacet
  facet normal -1 -0 0
    outer loop
      vertex 18 12.5 -1.5
      vertex 18 -12.5 -3
      vertex 18 -12.5 -1.5
    endloop
  endfacet
  facet normal 0 -1 0
    outer loop
      vertex -18 12.5 1.5
      vertex 18 12.5 3
      vertex -18 12.5 3
    endloop
  endfacet
  facet normal 0 -1 -0
    outer loop
      vertex 18 12.5 3
      vertex -18 12.5 1.5
      vertex 18 12.5 1.5
    endloop
  endfacet
  facet normal 0 -1 0
    outer loop
      vertex -18 12.5 -3
      vertex 18 12.5 -1.5
      vertex -18 12.5 -1.5
    endloop
  endfacet
  facet normal 0 -1 -0
    outer loop
      vertex 18 12.5 -1.5
      vertex -18 12.5 -3
      vertex 18 12.5 -3
    endloop
  endfacet
  facet normal 0 1 -0
    outer loop
      vertex 18 -12.5 1.5
      vertex -18 -12.5 3
      vertex 18 -12.5 3
    endloop
  endfacet
  facet normal 0 1 0
    outer loop
      vertex -18 -12.5 3
      vertex 18 -12.5 1.5
      vertex -18 -12.5 1.5
    endloop
  endfacet
  facet normal 0 1 -0
    outer loop
      vertex 18 -12.5 -3
      vertex -18 -12.5 -1.5
      vertex 18 -12.5 -1.5
    endloop
  endfacet
  facet normal 0 1 0
    outer loop
      vertex -18 -12.5 -1.5
      vertex 18 -12.5 -3
      vertex -18 -12.5 -3
    endloop
  endfacet
endsolid OpenSCAD_Model
