G75*
%MOIN*%
%OFA0B0*%
%FSLAX24Y24*%
%IPPOS*%
%LPD*%
%AMOC8*
5,1,8,0,0,1.08239X$1,22.5*
%
%ADD10C,0.0740*%
%ADD11OC8,0.0600*%
%ADD12C,0.0320*%
%ADD13C,0.0160*%
D10*
X006470Y004600D03*
X009470Y004600D03*
X012970Y009600D03*
X016220Y012100D03*
X017220Y012100D03*
X018220Y012100D03*
X017720Y013100D03*
X016720Y013100D03*
X018720Y013100D03*
X022470Y012600D03*
X025720Y012100D03*
X026720Y012100D03*
X027720Y012100D03*
X027220Y013100D03*
X026220Y013100D03*
X028220Y013100D03*
X028470Y017100D03*
X025470Y017100D03*
X022470Y021600D03*
X022470Y024600D03*
X025720Y024600D03*
X026720Y024600D03*
X027720Y024600D03*
X027220Y025600D03*
X026220Y025600D03*
X028220Y025600D03*
X018720Y025600D03*
X017720Y025600D03*
X016720Y025600D03*
X016220Y024600D03*
X017220Y024600D03*
X018220Y024600D03*
X012970Y024600D03*
X012970Y021600D03*
X008720Y024600D03*
X007720Y024600D03*
X006720Y024600D03*
X007220Y025600D03*
X008220Y025600D03*
X009220Y025600D03*
X003470Y024600D03*
X003470Y021600D03*
X006470Y017100D03*
X009470Y017100D03*
X009220Y013100D03*
X008220Y013100D03*
X007220Y013100D03*
X006720Y012100D03*
X007720Y012100D03*
X008720Y012100D03*
X012970Y012600D03*
X015970Y017100D03*
X018970Y017100D03*
X022470Y009600D03*
X025470Y004600D03*
X028470Y004600D03*
X018970Y004600D03*
X015970Y004600D03*
X003470Y009600D03*
X003470Y012600D03*
D11*
X035470Y012600D03*
X035470Y011600D03*
X035470Y010600D03*
X035470Y009600D03*
X035470Y008600D03*
X036470Y008600D03*
X036470Y009600D03*
X036470Y010600D03*
X036470Y011600D03*
X036470Y012600D03*
X036470Y013600D03*
X035470Y013600D03*
X035470Y014600D03*
X035470Y015600D03*
X035470Y016600D03*
X035470Y017600D03*
X035470Y018600D03*
X035470Y019600D03*
X035470Y020600D03*
X036470Y020600D03*
X036470Y019600D03*
X036470Y018600D03*
X036470Y017600D03*
X036470Y016600D03*
X036470Y015600D03*
X036470Y014600D03*
X036470Y021600D03*
X035470Y021600D03*
X035470Y022600D03*
X035470Y023600D03*
X035470Y024600D03*
X035470Y025600D03*
X036470Y025600D03*
X036470Y024600D03*
X036470Y023600D03*
X036470Y022600D03*
X036470Y007600D03*
X035470Y007600D03*
X035470Y006600D03*
X036470Y006600D03*
D12*
X030220Y005350D02*
X030220Y013350D01*
X035470Y018600D01*
X035470Y020600D02*
X031220Y016350D01*
X011220Y016350D01*
X011220Y023100D01*
X009220Y025100D01*
X009220Y025600D01*
X008970Y026350D02*
X005220Y026350D01*
X003470Y024600D01*
X005220Y023350D02*
X003470Y021600D01*
X005220Y023350D02*
X006470Y023350D01*
X007720Y024600D01*
X008220Y025600D02*
X008970Y026350D01*
X014720Y026350D01*
X018470Y026350D01*
X017720Y025600D01*
X018720Y025600D02*
X018720Y025100D01*
X020720Y023100D01*
X020720Y017850D01*
X016720Y017850D01*
X015970Y017100D01*
X014220Y013850D02*
X018470Y013850D01*
X023720Y013850D01*
X026470Y013850D01*
X027220Y013100D01*
X028220Y013100D02*
X029970Y013100D01*
X030220Y013350D01*
X026720Y012100D02*
X025470Y010850D01*
X023720Y010850D01*
X022470Y009600D01*
X022470Y012600D02*
X023720Y013850D01*
X025470Y017100D02*
X029220Y020850D01*
X033720Y020850D01*
X035470Y022600D01*
X034470Y024600D02*
X027720Y024600D01*
X026720Y024600D02*
X025470Y023350D01*
X024220Y023350D01*
X022470Y021600D01*
X022470Y024600D02*
X020720Y026350D01*
X018470Y026350D01*
X017220Y024600D02*
X015970Y023350D01*
X014720Y023350D01*
X012970Y021600D01*
X012970Y024600D02*
X014720Y026350D01*
X006470Y017100D02*
X007220Y016350D01*
X011220Y016350D01*
X008970Y013850D02*
X014220Y013850D01*
X012970Y012600D01*
X014220Y010850D02*
X012970Y009600D01*
X014220Y010850D02*
X015970Y010850D01*
X017220Y012100D01*
X017720Y013100D02*
X018470Y013850D01*
X018720Y013100D02*
X018970Y013100D01*
X018970Y011350D01*
X015970Y008350D01*
X015970Y004600D01*
X018970Y004600D02*
X019720Y005350D01*
X027720Y005350D01*
X028470Y004600D01*
X028720Y003850D02*
X030220Y005350D01*
X028720Y003850D02*
X026220Y003850D01*
X025470Y004600D01*
X008970Y013850D02*
X004720Y013850D01*
X003470Y012600D01*
X004720Y010850D02*
X003470Y009600D01*
X004720Y010850D02*
X006470Y010850D01*
X007720Y012100D01*
X008220Y013100D02*
X008970Y013850D01*
X034470Y024600D02*
X035470Y025600D01*
D13*
X037910Y002660D02*
X002030Y002660D01*
X002030Y027040D01*
X037910Y027040D01*
X037910Y002660D01*
X037910Y002795D02*
X002030Y002795D01*
X002030Y002953D02*
X037910Y002953D01*
X037910Y003112D02*
X002030Y003112D01*
X002030Y003270D02*
X037910Y003270D01*
X037910Y003429D02*
X028957Y003429D01*
X028992Y003443D02*
X028816Y003370D01*
X026125Y003370D01*
X025948Y003443D01*
X025813Y003578D01*
X025481Y003910D01*
X025333Y003910D01*
X025079Y004015D01*
X024885Y004209D01*
X024780Y004463D01*
X024780Y004737D01*
X024835Y004870D01*
X019919Y004870D01*
X019660Y004611D01*
X019660Y004463D01*
X019555Y004209D01*
X019361Y004015D01*
X019107Y003910D01*
X018833Y003910D01*
X018579Y004015D01*
X018385Y004209D01*
X018280Y004463D01*
X018280Y004737D01*
X018385Y004991D01*
X018579Y005185D01*
X018833Y005290D01*
X018981Y005290D01*
X019448Y005757D01*
X019625Y005830D01*
X027816Y005830D01*
X027992Y005757D01*
X028127Y005622D01*
X028459Y005290D01*
X028607Y005290D01*
X028861Y005185D01*
X029055Y004991D01*
X029092Y004901D01*
X029740Y005549D01*
X029740Y008786D01*
X029658Y008704D01*
X029402Y008556D01*
X029118Y008480D01*
X028823Y008480D01*
X028538Y008556D01*
X028282Y008704D01*
X028074Y008912D01*
X027926Y009168D01*
X027850Y009453D01*
X027850Y009747D01*
X027926Y010032D01*
X028074Y010288D01*
X028282Y010496D01*
X028538Y010644D01*
X028823Y010720D01*
X029118Y010720D01*
X029402Y010644D01*
X029658Y010496D01*
X029740Y010414D01*
X029740Y012620D01*
X028716Y012620D01*
X028611Y012515D01*
X028357Y012410D01*
X028339Y012410D01*
X028410Y012237D01*
X028410Y011963D01*
X028305Y011709D01*
X028111Y011515D01*
X027857Y011410D01*
X027583Y011410D01*
X027329Y011515D01*
X027220Y011624D01*
X027111Y011515D01*
X026857Y011410D01*
X026709Y011410D01*
X025877Y010578D01*
X025742Y010443D01*
X025720Y010434D01*
X025866Y010288D01*
X026014Y010032D01*
X026090Y009747D01*
X026090Y009453D01*
X026014Y009168D01*
X025866Y008912D01*
X025658Y008704D01*
X025402Y008556D01*
X025118Y008480D01*
X024823Y008480D01*
X024538Y008556D01*
X024282Y008704D01*
X024074Y008912D01*
X023926Y009168D01*
X023850Y009453D01*
X023850Y009747D01*
X023926Y010032D01*
X024074Y010288D01*
X024156Y010370D01*
X023919Y010370D01*
X023160Y009611D01*
X023160Y009463D01*
X023055Y009209D01*
X022861Y009015D01*
X022607Y008910D01*
X022333Y008910D01*
X022079Y009015D01*
X021885Y009209D01*
X021780Y009463D01*
X021780Y009737D01*
X021885Y009991D01*
X022079Y010185D01*
X022333Y010290D01*
X022481Y010290D01*
X023448Y011257D01*
X023625Y011330D01*
X025271Y011330D01*
X025419Y011478D01*
X025329Y011515D01*
X025135Y011709D01*
X025030Y011963D01*
X025030Y012237D01*
X025135Y012491D01*
X025329Y012685D01*
X025583Y012790D01*
X025602Y012790D01*
X025530Y012963D01*
X025530Y013237D01*
X025635Y013491D01*
X025829Y013685D01*
X026083Y013790D01*
X026357Y013790D01*
X026611Y013685D01*
X026805Y013491D01*
X026813Y013471D01*
X026862Y013520D01*
X026932Y013570D01*
X027009Y013610D01*
X027091Y013636D01*
X027177Y013650D01*
X027200Y013650D01*
X027200Y013120D01*
X027240Y013120D01*
X027240Y013650D01*
X027263Y013650D01*
X027349Y013636D01*
X027431Y013610D01*
X027508Y013570D01*
X027578Y013520D01*
X027627Y013471D01*
X027635Y013491D01*
X027829Y013685D01*
X028083Y013790D01*
X028357Y013790D01*
X028611Y013685D01*
X028716Y013580D01*
X029771Y013580D01*
X029813Y013622D01*
X029948Y013757D01*
X029948Y013757D01*
X034850Y018659D01*
X034850Y018857D01*
X035093Y019100D01*
X034871Y019322D01*
X031627Y016078D01*
X031492Y015943D01*
X031316Y015870D01*
X007125Y015870D01*
X006948Y015943D01*
X006481Y016410D01*
X006333Y016410D01*
X006079Y016515D01*
X005885Y016709D01*
X005780Y016963D01*
X005780Y017237D01*
X005885Y017491D01*
X006079Y017685D01*
X006333Y017790D01*
X006607Y017790D01*
X006861Y017685D01*
X007055Y017491D01*
X007160Y017237D01*
X007160Y017089D01*
X007419Y016830D01*
X008835Y016830D01*
X008780Y016963D01*
X008780Y017237D01*
X008885Y017491D01*
X009079Y017685D01*
X009333Y017790D01*
X009607Y017790D01*
X009861Y017685D01*
X010055Y017491D01*
X010160Y017237D01*
X010160Y016963D01*
X010105Y016830D01*
X010740Y016830D01*
X010740Y021286D01*
X010658Y021204D01*
X010402Y021056D01*
X010118Y020980D01*
X009823Y020980D01*
X009538Y021056D01*
X009282Y021204D01*
X009074Y021412D01*
X008926Y021668D01*
X008850Y021953D01*
X008850Y022247D01*
X008926Y022532D01*
X009074Y022788D01*
X009282Y022996D01*
X009538Y023144D01*
X009823Y023220D01*
X010118Y023220D01*
X010402Y023144D01*
X010628Y023014D01*
X009342Y024299D01*
X009305Y024209D01*
X009111Y024015D01*
X008857Y023910D01*
X008583Y023910D01*
X008329Y024015D01*
X008220Y024124D01*
X008111Y024015D01*
X007857Y023910D01*
X007709Y023910D01*
X006877Y023078D01*
X006742Y022943D01*
X006720Y022934D01*
X006866Y022788D01*
X007014Y022532D01*
X007090Y022247D01*
X007090Y021953D01*
X007014Y021668D01*
X006866Y021412D01*
X006658Y021204D01*
X006402Y021056D01*
X006118Y020980D01*
X005823Y020980D01*
X005538Y021056D01*
X005282Y021204D01*
X005074Y021412D01*
X004926Y021668D01*
X004850Y021953D01*
X004850Y022247D01*
X004870Y022321D01*
X004160Y021611D01*
X004160Y021463D01*
X004055Y021209D01*
X003861Y021015D01*
X003607Y020910D01*
X003333Y020910D01*
X003079Y021015D01*
X002885Y021209D01*
X002780Y021463D01*
X002780Y021737D01*
X002885Y021991D01*
X003079Y022185D01*
X003333Y022290D01*
X003481Y022290D01*
X004948Y023757D01*
X005125Y023830D01*
X006271Y023830D01*
X006419Y023978D01*
X006329Y024015D01*
X006135Y024209D01*
X006030Y024463D01*
X006030Y024737D01*
X006135Y024991D01*
X006329Y025185D01*
X006583Y025290D01*
X006602Y025290D01*
X006530Y025463D01*
X006530Y025737D01*
X006635Y025991D01*
X006829Y026185D01*
X007083Y026290D01*
X007357Y026290D01*
X007611Y026185D01*
X007805Y025991D01*
X007813Y025971D01*
X007862Y026020D01*
X007932Y026070D01*
X008009Y026110D01*
X008091Y026136D01*
X008177Y026150D01*
X008200Y026150D01*
X008200Y025620D01*
X008240Y025620D01*
X008240Y026150D01*
X008263Y026150D01*
X008349Y026136D01*
X008431Y026110D01*
X008508Y026070D01*
X008578Y026020D01*
X008627Y025971D01*
X008635Y025991D01*
X008829Y026185D01*
X009083Y026290D01*
X009357Y026290D01*
X009611Y026185D01*
X009805Y025991D01*
X009910Y025737D01*
X009910Y025463D01*
X009805Y025209D01*
X009797Y025202D01*
X011492Y023507D01*
X011627Y023372D01*
X011700Y023195D01*
X011700Y016830D01*
X015335Y016830D01*
X015280Y016963D01*
X015280Y017237D01*
X015385Y017491D01*
X015579Y017685D01*
X015833Y017790D01*
X015981Y017790D01*
X016448Y018257D01*
X016625Y018330D01*
X020240Y018330D01*
X020240Y021286D01*
X020158Y021204D01*
X019902Y021056D01*
X019618Y020980D01*
X019323Y020980D01*
X019038Y021056D01*
X018782Y021204D01*
X018574Y021412D01*
X018426Y021668D01*
X018350Y021953D01*
X018350Y022247D01*
X018426Y022532D01*
X018574Y022788D01*
X018782Y022996D01*
X019038Y023144D01*
X019323Y023220D01*
X019618Y023220D01*
X019902Y023144D01*
X020128Y023014D01*
X018842Y024299D01*
X018805Y024209D01*
X018611Y024015D01*
X018357Y023910D01*
X018083Y023910D01*
X017829Y024015D01*
X017720Y024124D01*
X017611Y024015D01*
X017357Y023910D01*
X017209Y023910D01*
X016377Y023078D01*
X016242Y022943D01*
X016220Y022934D01*
X016366Y022788D01*
X016514Y022532D01*
X016590Y022247D01*
X016590Y021953D01*
X016514Y021668D01*
X016366Y021412D01*
X016158Y021204D01*
X015902Y021056D01*
X015618Y020980D01*
X015323Y020980D01*
X015038Y021056D01*
X014782Y021204D01*
X014574Y021412D01*
X014426Y021668D01*
X014350Y021953D01*
X014350Y022247D01*
X014370Y022321D01*
X013660Y021611D01*
X013660Y021463D01*
X013555Y021209D01*
X013361Y021015D01*
X013107Y020910D01*
X012833Y020910D01*
X012579Y021015D01*
X012385Y021209D01*
X012280Y021463D01*
X012280Y021737D01*
X012385Y021991D01*
X012579Y022185D01*
X012833Y022290D01*
X012981Y022290D01*
X014448Y023757D01*
X014625Y023830D01*
X015771Y023830D01*
X015919Y023978D01*
X015829Y024015D01*
X015635Y024209D01*
X015530Y024463D01*
X015530Y024737D01*
X015635Y024991D01*
X015829Y025185D01*
X016083Y025290D01*
X016102Y025290D01*
X016030Y025463D01*
X016030Y025737D01*
X016135Y025991D01*
X016329Y026185D01*
X016583Y026290D01*
X016857Y026290D01*
X017111Y026185D01*
X017305Y025991D01*
X017313Y025971D01*
X017362Y026020D01*
X017432Y026070D01*
X017509Y026110D01*
X017591Y026136D01*
X017677Y026150D01*
X017700Y026150D01*
X017700Y025620D01*
X017740Y025620D01*
X017740Y026150D01*
X017763Y026150D01*
X017849Y026136D01*
X017931Y026110D01*
X018008Y026070D01*
X018078Y026020D01*
X018127Y025971D01*
X018135Y025991D01*
X018329Y026185D01*
X018583Y026290D01*
X018857Y026290D01*
X019111Y026185D01*
X019305Y025991D01*
X019410Y025737D01*
X019410Y025463D01*
X019305Y025209D01*
X019297Y025202D01*
X020992Y023507D01*
X021127Y023372D01*
X021200Y023195D01*
X021200Y017755D01*
X021127Y017578D01*
X020992Y017443D01*
X020816Y017370D01*
X019605Y017370D01*
X019660Y017237D01*
X019660Y016963D01*
X019605Y016830D01*
X024835Y016830D01*
X024780Y016963D01*
X024780Y017237D01*
X024885Y017491D01*
X025079Y017685D01*
X025333Y017790D01*
X025481Y017790D01*
X028703Y021012D01*
X028538Y021056D01*
X028282Y021204D01*
X028074Y021412D01*
X027926Y021668D01*
X027850Y021953D01*
X027850Y022247D01*
X027926Y022532D01*
X028074Y022788D01*
X028282Y022996D01*
X028538Y023144D01*
X028823Y023220D01*
X029118Y023220D01*
X029402Y023144D01*
X029658Y022996D01*
X029866Y022788D01*
X030014Y022532D01*
X030090Y022247D01*
X030090Y021953D01*
X030014Y021668D01*
X029866Y021412D01*
X029784Y021330D01*
X033521Y021330D01*
X034850Y022659D01*
X034850Y022857D01*
X035192Y023199D01*
X034990Y023401D01*
X034990Y023580D01*
X035450Y023580D01*
X035450Y023620D01*
X034990Y023620D01*
X034990Y023799D01*
X035192Y024001D01*
X034871Y024322D01*
X034742Y024193D01*
X034566Y024120D01*
X028216Y024120D01*
X028111Y024015D01*
X027857Y023910D01*
X027583Y023910D01*
X027329Y024015D01*
X027220Y024124D01*
X027111Y024015D01*
X026857Y023910D01*
X026709Y023910D01*
X025877Y023078D01*
X025742Y022943D01*
X025720Y022934D01*
X025866Y022788D01*
X026014Y022532D01*
X026090Y022247D01*
X026090Y021953D01*
X026014Y021668D01*
X025866Y021412D01*
X025658Y021204D01*
X025402Y021056D01*
X025118Y020980D01*
X024823Y020980D01*
X024538Y021056D01*
X024282Y021204D01*
X024074Y021412D01*
X023926Y021668D01*
X023850Y021953D01*
X023850Y022247D01*
X023870Y022321D01*
X023160Y021611D01*
X023160Y021463D01*
X023055Y021209D01*
X022861Y021015D01*
X022607Y020910D01*
X022333Y020910D01*
X022079Y021015D01*
X021885Y021209D01*
X021780Y021463D01*
X021780Y021737D01*
X021885Y021991D01*
X022079Y022185D01*
X022333Y022290D01*
X022481Y022290D01*
X023948Y023757D01*
X024125Y023830D01*
X025271Y023830D01*
X025419Y023978D01*
X025329Y024015D01*
X025135Y024209D01*
X025030Y024463D01*
X025030Y024737D01*
X025135Y024991D01*
X025329Y025185D01*
X025583Y025290D01*
X025602Y025290D01*
X025530Y025463D01*
X025530Y025737D01*
X025635Y025991D01*
X025829Y026185D01*
X026083Y026290D01*
X026357Y026290D01*
X026611Y026185D01*
X026805Y025991D01*
X026813Y025971D01*
X026862Y026020D01*
X026932Y026070D01*
X027009Y026110D01*
X027091Y026136D01*
X027177Y026150D01*
X027200Y026150D01*
X027200Y025620D01*
X027240Y025620D01*
X027240Y026150D01*
X027263Y026150D01*
X027349Y026136D01*
X027431Y026110D01*
X027508Y026070D01*
X027578Y026020D01*
X027627Y025971D01*
X027635Y025991D01*
X027829Y026185D01*
X028083Y026290D01*
X028357Y026290D01*
X028611Y026185D01*
X028805Y025991D01*
X028910Y025737D01*
X028910Y025463D01*
X028805Y025209D01*
X028676Y025080D01*
X034271Y025080D01*
X034850Y025659D01*
X034850Y025857D01*
X035213Y026220D01*
X035727Y026220D01*
X035970Y025977D01*
X036213Y026220D01*
X036727Y026220D01*
X037090Y025857D01*
X037090Y025343D01*
X036847Y025100D01*
X037090Y024857D01*
X037090Y024343D01*
X036847Y024100D01*
X037090Y023857D01*
X037090Y023343D01*
X036847Y023100D01*
X037090Y022857D01*
X037090Y022343D01*
X036847Y022100D01*
X037090Y021857D01*
X037090Y021343D01*
X036847Y021100D01*
X037090Y020857D01*
X037090Y020343D01*
X036847Y020100D01*
X037090Y019857D01*
X037090Y019343D01*
X036847Y019100D01*
X037090Y018857D01*
X037090Y018343D01*
X036847Y018100D01*
X037090Y017857D01*
X037090Y017343D01*
X036847Y017100D01*
X037090Y016857D01*
X037090Y016343D01*
X036847Y016100D01*
X037090Y015857D01*
X037090Y015343D01*
X036847Y015100D01*
X037090Y014857D01*
X037090Y014343D01*
X036847Y014100D01*
X037090Y013857D01*
X037090Y013343D01*
X036847Y013100D01*
X037090Y012857D01*
X037090Y012343D01*
X036847Y012100D01*
X037090Y011857D01*
X037090Y011343D01*
X036847Y011100D01*
X037090Y010857D01*
X037090Y010343D01*
X036847Y010100D01*
X037090Y009857D01*
X037090Y009343D01*
X036847Y009100D01*
X037090Y008857D01*
X037090Y008343D01*
X036847Y008100D01*
X037090Y007857D01*
X037090Y007343D01*
X036847Y007100D01*
X037090Y006857D01*
X037090Y006343D01*
X036727Y005980D01*
X036213Y005980D01*
X035970Y006223D01*
X035727Y005980D01*
X035213Y005980D01*
X034850Y006343D01*
X034850Y006857D01*
X035093Y007100D01*
X034850Y007343D01*
X034850Y007857D01*
X035093Y008100D01*
X034850Y008343D01*
X034850Y008857D01*
X035093Y009100D01*
X034850Y009343D01*
X034850Y009857D01*
X035093Y010100D01*
X034850Y010343D01*
X034850Y010857D01*
X035093Y011100D01*
X034850Y011343D01*
X034850Y011857D01*
X035093Y012100D01*
X034850Y012343D01*
X034850Y012857D01*
X035093Y013100D01*
X034850Y013343D01*
X034850Y013857D01*
X035093Y014100D01*
X034850Y014343D01*
X034850Y014857D01*
X035093Y015100D01*
X034850Y015343D01*
X034850Y015857D01*
X035093Y016100D01*
X034850Y016343D01*
X034850Y016857D01*
X035093Y017100D01*
X034871Y017322D01*
X030700Y013151D01*
X030700Y005255D01*
X030627Y005078D01*
X030492Y004943D01*
X028992Y003443D01*
X029136Y003587D02*
X037910Y003587D01*
X037910Y003746D02*
X029294Y003746D01*
X029453Y003904D02*
X037910Y003904D01*
X037910Y004063D02*
X029611Y004063D01*
X029770Y004221D02*
X037910Y004221D01*
X037910Y004380D02*
X029928Y004380D01*
X030087Y004538D02*
X037910Y004538D01*
X037910Y004697D02*
X030245Y004697D01*
X030404Y004855D02*
X037910Y004855D01*
X037910Y005014D02*
X030562Y005014D01*
X030666Y005172D02*
X037910Y005172D01*
X037910Y005331D02*
X030700Y005331D01*
X030700Y005489D02*
X037910Y005489D01*
X037910Y005648D02*
X030700Y005648D01*
X030700Y005806D02*
X037910Y005806D01*
X037910Y005965D02*
X030700Y005965D01*
X030700Y006123D02*
X035070Y006123D01*
X034912Y006282D02*
X030700Y006282D01*
X030700Y006440D02*
X034850Y006440D01*
X034850Y006599D02*
X030700Y006599D01*
X030700Y006757D02*
X034850Y006757D01*
X034909Y006916D02*
X030700Y006916D01*
X030700Y007074D02*
X035067Y007074D01*
X034961Y007233D02*
X030700Y007233D01*
X030700Y007391D02*
X034850Y007391D01*
X034850Y007550D02*
X030700Y007550D01*
X030700Y007708D02*
X034850Y007708D01*
X034860Y007867D02*
X030700Y007867D01*
X030700Y008025D02*
X035018Y008025D01*
X035010Y008184D02*
X030700Y008184D01*
X030700Y008342D02*
X034851Y008342D01*
X034850Y008501D02*
X030700Y008501D01*
X030700Y008659D02*
X034850Y008659D01*
X034850Y008818D02*
X030700Y008818D01*
X030700Y008976D02*
X034969Y008976D01*
X035059Y009135D02*
X030700Y009135D01*
X030700Y009293D02*
X034900Y009293D01*
X034850Y009452D02*
X030700Y009452D01*
X030700Y009610D02*
X034850Y009610D01*
X034850Y009769D02*
X030700Y009769D01*
X030700Y009927D02*
X034920Y009927D01*
X035079Y010086D02*
X030700Y010086D01*
X030700Y010244D02*
X034949Y010244D01*
X034850Y010403D02*
X030700Y010403D01*
X030700Y010561D02*
X034850Y010561D01*
X034850Y010720D02*
X030700Y010720D01*
X030700Y010878D02*
X034871Y010878D01*
X035030Y011037D02*
X030700Y011037D01*
X030700Y011195D02*
X034998Y011195D01*
X034850Y011354D02*
X030700Y011354D01*
X030700Y011512D02*
X034850Y011512D01*
X034850Y011671D02*
X030700Y011671D01*
X030700Y011829D02*
X034850Y011829D01*
X034981Y011988D02*
X030700Y011988D01*
X030700Y012146D02*
X035047Y012146D01*
X034889Y012305D02*
X030700Y012305D01*
X030700Y012463D02*
X034850Y012463D01*
X034850Y012622D02*
X030700Y012622D01*
X030700Y012780D02*
X034850Y012780D01*
X034932Y012939D02*
X030700Y012939D01*
X030700Y013097D02*
X035090Y013097D01*
X034938Y013256D02*
X030804Y013256D01*
X030963Y013414D02*
X034850Y013414D01*
X034850Y013573D02*
X031121Y013573D01*
X031280Y013731D02*
X034850Y013731D01*
X034883Y013890D02*
X031438Y013890D01*
X031597Y014048D02*
X035041Y014048D01*
X034987Y014207D02*
X031755Y014207D01*
X031914Y014365D02*
X034850Y014365D01*
X034850Y014524D02*
X032072Y014524D01*
X032231Y014682D02*
X034850Y014682D01*
X034850Y014841D02*
X032389Y014841D01*
X032548Y014999D02*
X034992Y014999D01*
X035036Y015158D02*
X032706Y015158D01*
X032865Y015316D02*
X034877Y015316D01*
X034850Y015475D02*
X033023Y015475D01*
X033182Y015633D02*
X034850Y015633D01*
X034850Y015792D02*
X033340Y015792D01*
X033499Y015950D02*
X034943Y015950D01*
X035085Y016109D02*
X033657Y016109D01*
X033816Y016267D02*
X034926Y016267D01*
X034850Y016426D02*
X033974Y016426D01*
X034133Y016584D02*
X034850Y016584D01*
X034850Y016743D02*
X034291Y016743D01*
X034450Y016901D02*
X034894Y016901D01*
X035053Y017060D02*
X034608Y017060D01*
X034767Y017218D02*
X034975Y017218D01*
X034202Y018011D02*
X033559Y018011D01*
X033718Y018169D02*
X034360Y018169D01*
X034519Y018328D02*
X033876Y018328D01*
X034035Y018486D02*
X034677Y018486D01*
X034836Y018645D02*
X034193Y018645D01*
X034352Y018803D02*
X034850Y018803D01*
X034955Y018962D02*
X034510Y018962D01*
X034669Y019120D02*
X035073Y019120D01*
X034915Y019279D02*
X034827Y019279D01*
X034043Y017852D02*
X033401Y017852D01*
X033242Y017694D02*
X033885Y017694D01*
X033726Y017535D02*
X033084Y017535D01*
X032925Y017377D02*
X033568Y017377D01*
X033409Y017218D02*
X032767Y017218D01*
X032608Y017060D02*
X033251Y017060D01*
X033092Y016901D02*
X032450Y016901D01*
X032291Y016743D02*
X032934Y016743D01*
X032775Y016584D02*
X032133Y016584D01*
X031974Y016426D02*
X032617Y016426D01*
X032458Y016267D02*
X031816Y016267D01*
X031657Y016109D02*
X032300Y016109D01*
X032141Y015950D02*
X031499Y015950D01*
X031824Y015633D02*
X002030Y015633D01*
X002030Y015475D02*
X031666Y015475D01*
X031507Y015316D02*
X002030Y015316D01*
X002030Y015158D02*
X031349Y015158D01*
X031190Y014999D02*
X002030Y014999D01*
X002030Y014841D02*
X031032Y014841D01*
X030873Y014682D02*
X002030Y014682D01*
X002030Y014524D02*
X030715Y014524D01*
X030556Y014365D02*
X002030Y014365D01*
X002030Y014207D02*
X030398Y014207D01*
X030239Y014048D02*
X002030Y014048D01*
X002030Y013890D02*
X030081Y013890D01*
X029922Y013731D02*
X028500Y013731D01*
X027940Y013731D02*
X026500Y013731D01*
X026723Y013573D02*
X026936Y013573D01*
X027200Y013573D02*
X027240Y013573D01*
X027240Y013414D02*
X027200Y013414D01*
X027200Y013256D02*
X027240Y013256D01*
X027504Y013573D02*
X027717Y013573D01*
X028485Y012463D02*
X029740Y012463D01*
X029740Y012305D02*
X028382Y012305D01*
X028410Y012146D02*
X029740Y012146D01*
X029740Y011988D02*
X028410Y011988D01*
X028355Y011829D02*
X029740Y011829D01*
X029740Y011671D02*
X028266Y011671D01*
X028104Y011512D02*
X029740Y011512D01*
X029740Y011354D02*
X026652Y011354D01*
X026494Y011195D02*
X029740Y011195D01*
X029740Y011037D02*
X026335Y011037D01*
X026177Y010878D02*
X029740Y010878D01*
X029740Y010720D02*
X029119Y010720D01*
X028821Y010720D02*
X026018Y010720D01*
X025860Y010561D02*
X028395Y010561D01*
X028189Y010403D02*
X025751Y010403D01*
X025892Y010244D02*
X028049Y010244D01*
X027957Y010086D02*
X025983Y010086D01*
X026042Y009927D02*
X027898Y009927D01*
X027856Y009769D02*
X026084Y009769D01*
X026090Y009610D02*
X027850Y009610D01*
X027850Y009452D02*
X026090Y009452D01*
X026047Y009293D02*
X027893Y009293D01*
X027946Y009135D02*
X025995Y009135D01*
X025903Y008976D02*
X028037Y008976D01*
X028169Y008818D02*
X025772Y008818D01*
X025580Y008659D02*
X028360Y008659D01*
X028746Y008501D02*
X025194Y008501D01*
X024746Y008501D02*
X019694Y008501D01*
X019618Y008480D02*
X019323Y008480D01*
X019038Y008556D01*
X018782Y008704D01*
X018574Y008912D01*
X018426Y009168D01*
X018350Y009453D01*
X018350Y009747D01*
X018426Y010032D01*
X018556Y010258D01*
X016450Y008151D01*
X016450Y005096D01*
X016555Y004991D01*
X016660Y004737D01*
X016660Y004463D01*
X016555Y004209D01*
X016361Y004015D01*
X016107Y003910D01*
X015833Y003910D01*
X015579Y004015D01*
X015385Y004209D01*
X015280Y004463D01*
X015280Y004737D01*
X015385Y004991D01*
X015490Y005096D01*
X015490Y008445D01*
X015504Y008480D01*
X015323Y008480D01*
X015038Y008556D01*
X014782Y008704D01*
X014574Y008912D01*
X014426Y009168D01*
X014350Y009453D01*
X014350Y009747D01*
X014426Y010032D01*
X014574Y010288D01*
X014656Y010370D01*
X014419Y010370D01*
X013660Y009611D01*
X013660Y009463D01*
X013555Y009209D01*
X013361Y009015D01*
X013107Y008910D01*
X012833Y008910D01*
X012579Y009015D01*
X012385Y009209D01*
X012280Y009463D01*
X012280Y009737D01*
X012385Y009991D01*
X012579Y010185D01*
X012833Y010290D01*
X012981Y010290D01*
X013813Y011122D01*
X013948Y011257D01*
X014125Y011330D01*
X015771Y011330D01*
X015919Y011478D01*
X015829Y011515D01*
X015635Y011709D01*
X015530Y011963D01*
X015530Y012237D01*
X015635Y012491D01*
X015829Y012685D01*
X016083Y012790D01*
X016102Y012790D01*
X016030Y012963D01*
X016030Y013237D01*
X016135Y013491D01*
X016329Y013685D01*
X016583Y013790D01*
X016857Y013790D01*
X017111Y013685D01*
X017305Y013491D01*
X017313Y013471D01*
X017362Y013520D01*
X017432Y013570D01*
X017509Y013610D01*
X017591Y013636D01*
X017677Y013650D01*
X017700Y013650D01*
X017700Y013120D01*
X017740Y013120D01*
X017740Y013650D01*
X017763Y013650D01*
X017849Y013636D01*
X017931Y013610D01*
X018008Y013570D01*
X018078Y013520D01*
X018127Y013471D01*
X018135Y013491D01*
X018329Y013685D01*
X018583Y013790D01*
X018857Y013790D01*
X019111Y013685D01*
X019305Y013491D01*
X019338Y013411D01*
X019377Y013372D01*
X019450Y013195D01*
X019450Y011255D01*
X019377Y011078D01*
X019242Y010943D01*
X018813Y010514D01*
X019038Y010644D01*
X019323Y010720D01*
X019618Y010720D01*
X019902Y010644D01*
X020158Y010496D01*
X020366Y010288D01*
X020514Y010032D01*
X020590Y009747D01*
X020590Y009453D01*
X020514Y009168D01*
X020366Y008912D01*
X020158Y008704D01*
X019902Y008556D01*
X019618Y008480D01*
X019246Y008501D02*
X016799Y008501D01*
X016958Y008659D02*
X018860Y008659D01*
X018669Y008818D02*
X017116Y008818D01*
X017275Y008976D02*
X018537Y008976D01*
X018446Y009135D02*
X017433Y009135D01*
X017592Y009293D02*
X018393Y009293D01*
X018350Y009452D02*
X017750Y009452D01*
X017909Y009610D02*
X018350Y009610D01*
X018356Y009769D02*
X018067Y009769D01*
X018226Y009927D02*
X018398Y009927D01*
X018384Y010086D02*
X018457Y010086D01*
X018543Y010244D02*
X018549Y010244D01*
X018860Y010561D02*
X018895Y010561D01*
X019018Y010720D02*
X019321Y010720D01*
X019177Y010878D02*
X023069Y010878D01*
X022911Y010720D02*
X019619Y010720D01*
X019335Y011037D02*
X023228Y011037D01*
X023386Y011195D02*
X019425Y011195D01*
X019450Y011354D02*
X025295Y011354D01*
X025337Y011512D02*
X019450Y011512D01*
X019450Y011671D02*
X025174Y011671D01*
X025085Y011829D02*
X019450Y011829D01*
X019450Y011988D02*
X025030Y011988D01*
X025030Y012146D02*
X022781Y012146D01*
X022758Y012130D02*
X022681Y012090D01*
X022599Y012064D01*
X022513Y012050D01*
X022479Y012050D01*
X022479Y012591D01*
X022461Y012591D01*
X022461Y012609D01*
X022479Y012609D01*
X022479Y013150D01*
X022513Y013150D01*
X022599Y013136D01*
X022681Y013110D01*
X022758Y013070D01*
X022828Y013020D01*
X022890Y012958D01*
X022940Y012888D01*
X022980Y012811D01*
X023007Y012729D01*
X023020Y012643D01*
X023020Y012609D01*
X022479Y012609D01*
X022479Y012591D01*
X023020Y012591D01*
X023020Y012557D01*
X023007Y012471D01*
X022980Y012389D01*
X022940Y012312D01*
X022890Y012242D01*
X022828Y012180D01*
X022758Y012130D01*
X022935Y012305D02*
X025058Y012305D01*
X025124Y012463D02*
X023004Y012463D01*
X023020Y012622D02*
X025266Y012622D01*
X025559Y012780D02*
X022990Y012780D01*
X022904Y012939D02*
X025540Y012939D01*
X025530Y013097D02*
X022706Y013097D01*
X022479Y013097D02*
X022461Y013097D01*
X022461Y013150D02*
X022461Y012609D01*
X021920Y012609D01*
X021920Y012643D01*
X021934Y012729D01*
X021960Y012811D01*
X022000Y012888D01*
X022051Y012958D01*
X022112Y013020D01*
X022182Y013070D01*
X022259Y013110D01*
X022341Y013136D01*
X022427Y013150D01*
X022461Y013150D01*
X022479Y012939D02*
X022461Y012939D01*
X022461Y012780D02*
X022479Y012780D01*
X022479Y012622D02*
X022461Y012622D01*
X022461Y012591D02*
X021920Y012591D01*
X021920Y012557D01*
X021934Y012471D01*
X021960Y012389D01*
X022000Y012312D01*
X022051Y012242D01*
X022112Y012180D01*
X022182Y012130D01*
X022259Y012090D01*
X022341Y012064D01*
X022427Y012050D01*
X022461Y012050D01*
X022461Y012591D01*
X022461Y012463D02*
X022479Y012463D01*
X022479Y012305D02*
X022461Y012305D01*
X022461Y012146D02*
X022479Y012146D01*
X022159Y012146D02*
X019450Y012146D01*
X019450Y012305D02*
X022005Y012305D01*
X021936Y012463D02*
X019450Y012463D01*
X019450Y012622D02*
X021920Y012622D01*
X021950Y012780D02*
X019450Y012780D01*
X019450Y012939D02*
X022036Y012939D01*
X022234Y013097D02*
X019450Y013097D01*
X019425Y013256D02*
X025538Y013256D01*
X025603Y013414D02*
X019337Y013414D01*
X019223Y013573D02*
X025717Y013573D01*
X025940Y013731D02*
X019000Y013731D01*
X018440Y013731D02*
X017000Y013731D01*
X017223Y013573D02*
X017436Y013573D01*
X017700Y013573D02*
X017740Y013573D01*
X017740Y013414D02*
X017700Y013414D01*
X017700Y013256D02*
X017740Y013256D01*
X018004Y013573D02*
X018217Y013573D01*
X016440Y013731D02*
X009500Y013731D01*
X009611Y013685D02*
X009805Y013491D01*
X009910Y013237D01*
X009910Y012963D01*
X009805Y012709D01*
X009611Y012515D01*
X009357Y012410D01*
X009339Y012410D01*
X009410Y012237D01*
X009410Y011963D01*
X009305Y011709D01*
X009111Y011515D01*
X008857Y011410D01*
X008583Y011410D01*
X008329Y011515D01*
X008220Y011624D01*
X008111Y011515D01*
X007857Y011410D01*
X007709Y011410D01*
X006877Y010578D01*
X006742Y010443D01*
X006720Y010434D01*
X006866Y010288D01*
X007014Y010032D01*
X007090Y009747D01*
X007090Y009453D01*
X007014Y009168D01*
X006866Y008912D01*
X006658Y008704D01*
X006402Y008556D01*
X006118Y008480D01*
X005823Y008480D01*
X005538Y008556D01*
X005282Y008704D01*
X005074Y008912D01*
X004926Y009168D01*
X004850Y009453D01*
X004850Y009747D01*
X004926Y010032D01*
X005074Y010288D01*
X005156Y010370D01*
X004919Y010370D01*
X004160Y009611D01*
X004160Y009463D01*
X004055Y009209D01*
X003861Y009015D01*
X003607Y008910D01*
X003333Y008910D01*
X003079Y009015D01*
X002885Y009209D01*
X002780Y009463D01*
X002780Y009737D01*
X002885Y009991D01*
X003079Y010185D01*
X003333Y010290D01*
X003481Y010290D01*
X004448Y011257D01*
X004625Y011330D01*
X006271Y011330D01*
X006419Y011478D01*
X006329Y011515D01*
X006135Y011709D01*
X006030Y011963D01*
X006030Y012237D01*
X006135Y012491D01*
X006329Y012685D01*
X006583Y012790D01*
X006602Y012790D01*
X006530Y012963D01*
X006530Y013237D01*
X006635Y013491D01*
X006829Y013685D01*
X007083Y013790D01*
X007357Y013790D01*
X007611Y013685D01*
X007805Y013491D01*
X007813Y013471D01*
X007862Y013520D01*
X007932Y013570D01*
X008009Y013610D01*
X008091Y013636D01*
X008177Y013650D01*
X008200Y013650D01*
X008200Y013120D01*
X008240Y013120D01*
X008240Y013650D01*
X008263Y013650D01*
X008349Y013636D01*
X008431Y013610D01*
X008508Y013570D01*
X008578Y013520D01*
X008627Y013471D01*
X008635Y013491D01*
X008829Y013685D01*
X009083Y013790D01*
X009357Y013790D01*
X009611Y013685D01*
X009723Y013573D02*
X016217Y013573D01*
X016103Y013414D02*
X009837Y013414D01*
X009903Y013256D02*
X016038Y013256D01*
X016030Y013097D02*
X013206Y013097D01*
X013181Y013110D02*
X013258Y013070D01*
X013328Y013020D01*
X013390Y012958D01*
X013440Y012888D01*
X013480Y012811D01*
X013507Y012729D01*
X013520Y012643D01*
X013520Y012609D01*
X012979Y012609D01*
X012979Y013150D01*
X013013Y013150D01*
X013099Y013136D01*
X013181Y013110D01*
X012979Y013097D02*
X012961Y013097D01*
X012961Y013150D02*
X012961Y012609D01*
X012979Y012609D01*
X012979Y012591D01*
X012961Y012591D01*
X012961Y012609D01*
X012420Y012609D01*
X012420Y012643D01*
X012434Y012729D01*
X012460Y012811D01*
X012500Y012888D01*
X012551Y012958D01*
X012612Y013020D01*
X012682Y013070D01*
X012759Y013110D01*
X012841Y013136D01*
X012927Y013150D01*
X012961Y013150D01*
X012979Y012939D02*
X012961Y012939D01*
X012961Y012780D02*
X012979Y012780D01*
X012979Y012622D02*
X012961Y012622D01*
X012961Y012591D02*
X012420Y012591D01*
X012420Y012557D01*
X012434Y012471D01*
X012460Y012389D01*
X012500Y012312D01*
X012551Y012242D01*
X012612Y012180D01*
X012682Y012130D01*
X012759Y012090D01*
X012841Y012064D01*
X012927Y012050D01*
X012961Y012050D01*
X012961Y012591D01*
X012979Y012591D02*
X012979Y012050D01*
X013013Y012050D01*
X013099Y012064D01*
X013181Y012090D01*
X013258Y012130D01*
X013328Y012180D01*
X013390Y012242D01*
X013440Y012312D01*
X013480Y012389D01*
X013507Y012471D01*
X013520Y012557D01*
X013520Y012591D01*
X012979Y012591D01*
X012979Y012463D02*
X012961Y012463D01*
X012961Y012305D02*
X012979Y012305D01*
X012979Y012146D02*
X012961Y012146D01*
X012659Y012146D02*
X009410Y012146D01*
X009410Y011988D02*
X015530Y011988D01*
X015530Y012146D02*
X013281Y012146D01*
X013435Y012305D02*
X015558Y012305D01*
X015624Y012463D02*
X013504Y012463D01*
X013520Y012622D02*
X015766Y012622D01*
X016059Y012780D02*
X013490Y012780D01*
X013404Y012939D02*
X016040Y012939D01*
X015585Y011829D02*
X009355Y011829D01*
X009266Y011671D02*
X015674Y011671D01*
X015837Y011512D02*
X009104Y011512D01*
X008337Y011512D02*
X008104Y011512D01*
X007652Y011354D02*
X015795Y011354D01*
X014549Y010244D02*
X014293Y010244D01*
X014134Y010086D02*
X014457Y010086D01*
X014398Y009927D02*
X013976Y009927D01*
X013817Y009769D02*
X014356Y009769D01*
X014350Y009610D02*
X013660Y009610D01*
X013655Y009452D02*
X014350Y009452D01*
X014393Y009293D02*
X013590Y009293D01*
X013480Y009135D02*
X014446Y009135D01*
X014537Y008976D02*
X013267Y008976D01*
X012673Y008976D02*
X010903Y008976D01*
X010866Y008912D02*
X010658Y008704D01*
X010402Y008556D01*
X010118Y008480D01*
X009823Y008480D01*
X009538Y008556D01*
X009282Y008704D01*
X009074Y008912D01*
X008926Y009168D01*
X008850Y009453D01*
X008850Y009747D01*
X008926Y010032D01*
X009074Y010288D01*
X009282Y010496D01*
X009538Y010644D01*
X009823Y010720D01*
X010118Y010720D01*
X010402Y010644D01*
X010658Y010496D01*
X010866Y010288D01*
X011014Y010032D01*
X011090Y009747D01*
X011090Y009453D01*
X011014Y009168D01*
X010866Y008912D01*
X010772Y008818D02*
X014669Y008818D01*
X014860Y008659D02*
X010580Y008659D01*
X010194Y008501D02*
X015246Y008501D01*
X015490Y008342D02*
X002030Y008342D01*
X002030Y008184D02*
X015490Y008184D01*
X015490Y008025D02*
X002030Y008025D01*
X002030Y007867D02*
X015490Y007867D01*
X015490Y007708D02*
X002030Y007708D01*
X002030Y007550D02*
X015490Y007550D01*
X015490Y007391D02*
X002030Y007391D01*
X002030Y007233D02*
X015490Y007233D01*
X015490Y007074D02*
X002030Y007074D01*
X002030Y006916D02*
X015490Y006916D01*
X015490Y006757D02*
X002030Y006757D01*
X002030Y006599D02*
X015490Y006599D01*
X015490Y006440D02*
X002030Y006440D01*
X002030Y006282D02*
X015490Y006282D01*
X015490Y006123D02*
X002030Y006123D01*
X002030Y005965D02*
X015490Y005965D01*
X015490Y005806D02*
X002030Y005806D01*
X002030Y005648D02*
X015490Y005648D01*
X015490Y005489D02*
X002030Y005489D01*
X002030Y005331D02*
X015490Y005331D01*
X015490Y005172D02*
X009874Y005172D01*
X009861Y005185D02*
X010055Y004991D01*
X010160Y004737D01*
X010160Y004463D01*
X010055Y004209D01*
X009861Y004015D01*
X009607Y003910D01*
X009333Y003910D01*
X009079Y004015D01*
X008885Y004209D01*
X008780Y004463D01*
X008780Y004737D01*
X008885Y004991D01*
X009079Y005185D01*
X009333Y005290D01*
X009607Y005290D01*
X009861Y005185D01*
X010032Y005014D02*
X015408Y005014D01*
X015329Y004855D02*
X010111Y004855D01*
X010160Y004697D02*
X015280Y004697D01*
X015280Y004538D02*
X010160Y004538D01*
X010126Y004380D02*
X015315Y004380D01*
X015380Y004221D02*
X010060Y004221D01*
X009908Y004063D02*
X015532Y004063D01*
X016408Y004063D02*
X018532Y004063D01*
X018380Y004221D02*
X016560Y004221D01*
X016626Y004380D02*
X018315Y004380D01*
X018280Y004538D02*
X016660Y004538D01*
X016660Y004697D02*
X018280Y004697D01*
X018329Y004855D02*
X016611Y004855D01*
X016532Y005014D02*
X018408Y005014D01*
X018566Y005172D02*
X016450Y005172D01*
X016450Y005331D02*
X019022Y005331D01*
X019180Y005489D02*
X016450Y005489D01*
X016450Y005648D02*
X019339Y005648D01*
X019567Y005806D02*
X016450Y005806D01*
X016450Y005965D02*
X029740Y005965D01*
X029740Y006123D02*
X016450Y006123D01*
X016450Y006282D02*
X029740Y006282D01*
X029740Y006440D02*
X016450Y006440D01*
X016450Y006599D02*
X029740Y006599D01*
X029740Y006757D02*
X016450Y006757D01*
X016450Y006916D02*
X029740Y006916D01*
X029740Y007074D02*
X016450Y007074D01*
X016450Y007233D02*
X029740Y007233D01*
X029740Y007391D02*
X016450Y007391D01*
X016450Y007550D02*
X029740Y007550D01*
X029740Y007708D02*
X016450Y007708D01*
X016450Y007867D02*
X029740Y007867D01*
X029740Y008025D02*
X016450Y008025D01*
X016482Y008184D02*
X029740Y008184D01*
X029740Y008342D02*
X016641Y008342D01*
X020080Y008659D02*
X024360Y008659D01*
X024169Y008818D02*
X020272Y008818D01*
X020403Y008976D02*
X022173Y008976D01*
X021960Y009135D02*
X020495Y009135D01*
X020547Y009293D02*
X021850Y009293D01*
X021785Y009452D02*
X020590Y009452D01*
X020590Y009610D02*
X021780Y009610D01*
X021793Y009769D02*
X020584Y009769D01*
X020542Y009927D02*
X021859Y009927D01*
X021980Y010086D02*
X020483Y010086D01*
X020392Y010244D02*
X022222Y010244D01*
X022594Y010403D02*
X020251Y010403D01*
X020046Y010561D02*
X022752Y010561D01*
X023476Y009927D02*
X023898Y009927D01*
X023856Y009769D02*
X023317Y009769D01*
X023160Y009610D02*
X023850Y009610D01*
X023850Y009452D02*
X023155Y009452D01*
X023090Y009293D02*
X023893Y009293D01*
X023946Y009135D02*
X022980Y009135D01*
X022767Y008976D02*
X024037Y008976D01*
X023957Y010086D02*
X023634Y010086D01*
X023793Y010244D02*
X024049Y010244D01*
X027104Y011512D02*
X027337Y011512D01*
X029546Y010561D02*
X029740Y010561D01*
X029740Y008659D02*
X029580Y008659D01*
X029740Y008501D02*
X029194Y008501D01*
X029740Y005806D02*
X027873Y005806D01*
X028101Y005648D02*
X029740Y005648D01*
X029680Y005489D02*
X028260Y005489D01*
X028418Y005331D02*
X029522Y005331D01*
X029363Y005172D02*
X028874Y005172D01*
X029032Y005014D02*
X029205Y005014D01*
X025983Y003429D02*
X002030Y003429D01*
X002030Y003587D02*
X025804Y003587D01*
X025646Y003746D02*
X002030Y003746D01*
X002030Y003904D02*
X025487Y003904D01*
X025032Y004063D02*
X019408Y004063D01*
X019560Y004221D02*
X024880Y004221D01*
X024815Y004380D02*
X019626Y004380D01*
X019660Y004538D02*
X024780Y004538D01*
X024780Y004697D02*
X019745Y004697D01*
X019904Y004855D02*
X024829Y004855D01*
X029813Y013622D02*
X029813Y013622D01*
X031983Y015792D02*
X002030Y015792D01*
X002030Y015950D02*
X006941Y015950D01*
X006783Y016109D02*
X002030Y016109D01*
X002030Y016267D02*
X006624Y016267D01*
X006295Y016426D02*
X002030Y016426D01*
X002030Y016584D02*
X006010Y016584D01*
X005871Y016743D02*
X002030Y016743D01*
X002030Y016901D02*
X005806Y016901D01*
X005780Y017060D02*
X002030Y017060D01*
X002030Y017218D02*
X005780Y017218D01*
X005838Y017377D02*
X002030Y017377D01*
X002030Y017535D02*
X005929Y017535D01*
X006100Y017694D02*
X002030Y017694D01*
X002030Y017852D02*
X010740Y017852D01*
X010740Y017694D02*
X009840Y017694D01*
X010011Y017535D02*
X010740Y017535D01*
X010740Y017377D02*
X010102Y017377D01*
X010160Y017218D02*
X010740Y017218D01*
X010740Y017060D02*
X010160Y017060D01*
X010135Y016901D02*
X010740Y016901D01*
X011700Y016901D02*
X015306Y016901D01*
X015280Y017060D02*
X011700Y017060D01*
X011700Y017218D02*
X015280Y017218D01*
X015338Y017377D02*
X011700Y017377D01*
X011700Y017535D02*
X015429Y017535D01*
X015600Y017694D02*
X011700Y017694D01*
X011700Y017852D02*
X016043Y017852D01*
X016202Y018011D02*
X011700Y018011D01*
X011700Y018169D02*
X016360Y018169D01*
X016619Y018328D02*
X011700Y018328D01*
X011700Y018486D02*
X020240Y018486D01*
X020240Y018645D02*
X011700Y018645D01*
X011700Y018803D02*
X020240Y018803D01*
X020240Y018962D02*
X011700Y018962D01*
X011700Y019120D02*
X020240Y019120D01*
X020240Y019279D02*
X011700Y019279D01*
X011700Y019437D02*
X020240Y019437D01*
X020240Y019596D02*
X011700Y019596D01*
X011700Y019754D02*
X020240Y019754D01*
X020240Y019913D02*
X011700Y019913D01*
X011700Y020071D02*
X020240Y020071D01*
X020240Y020230D02*
X011700Y020230D01*
X011700Y020388D02*
X020240Y020388D01*
X020240Y020547D02*
X011700Y020547D01*
X011700Y020705D02*
X020240Y020705D01*
X020240Y020864D02*
X011700Y020864D01*
X011700Y021022D02*
X012572Y021022D01*
X012414Y021181D02*
X011700Y021181D01*
X011700Y021339D02*
X012331Y021339D01*
X012280Y021498D02*
X011700Y021498D01*
X011700Y021656D02*
X012280Y021656D01*
X012312Y021815D02*
X011700Y021815D01*
X011700Y021973D02*
X012378Y021973D01*
X012526Y022132D02*
X011700Y022132D01*
X011700Y022290D02*
X012981Y022290D01*
X013140Y022449D02*
X011700Y022449D01*
X011700Y022607D02*
X013298Y022607D01*
X013457Y022766D02*
X011700Y022766D01*
X011700Y022924D02*
X013615Y022924D01*
X013774Y023083D02*
X011700Y023083D01*
X011681Y023241D02*
X013932Y023241D01*
X014091Y023400D02*
X011599Y023400D01*
X011492Y023507D02*
X011492Y023507D01*
X011441Y023558D02*
X014249Y023558D01*
X014408Y023717D02*
X011282Y023717D01*
X011124Y023875D02*
X015816Y023875D01*
X015811Y024034D02*
X010965Y024034D01*
X010807Y024192D02*
X012600Y024192D01*
X012612Y024180D02*
X012551Y024242D01*
X012500Y024312D01*
X012460Y024389D01*
X012434Y024471D01*
X012420Y024557D01*
X012420Y024591D01*
X012961Y024591D01*
X012961Y024609D01*
X012979Y024609D01*
X012979Y025150D01*
X013013Y025150D01*
X013099Y025136D01*
X013181Y025110D01*
X013258Y025070D01*
X013328Y025020D01*
X013390Y024958D01*
X013440Y024888D01*
X013480Y024811D01*
X013507Y024729D01*
X013520Y024643D01*
X013520Y024609D01*
X012979Y024609D01*
X012979Y024591D01*
X012961Y024591D01*
X012961Y024050D01*
X012927Y024050D01*
X012841Y024064D01*
X012759Y024090D01*
X012682Y024130D01*
X012612Y024180D01*
X012480Y024351D02*
X010648Y024351D01*
X010490Y024509D02*
X012428Y024509D01*
X012420Y024609D02*
X012420Y024643D01*
X012434Y024729D01*
X012460Y024811D01*
X012500Y024888D01*
X012551Y024958D01*
X012612Y025020D01*
X012682Y025070D01*
X012759Y025110D01*
X012841Y025136D01*
X012927Y025150D01*
X012961Y025150D01*
X012961Y024609D01*
X012420Y024609D01*
X012424Y024668D02*
X010331Y024668D01*
X010173Y024826D02*
X012468Y024826D01*
X012577Y024985D02*
X010014Y024985D01*
X009856Y025143D02*
X012883Y025143D01*
X012961Y025143D02*
X012979Y025143D01*
X013057Y025143D02*
X015787Y025143D01*
X015633Y024985D02*
X013363Y024985D01*
X013472Y024826D02*
X015567Y024826D01*
X015530Y024668D02*
X013516Y024668D01*
X013520Y024591D02*
X013520Y024557D01*
X013507Y024471D01*
X013480Y024389D01*
X013440Y024312D01*
X013390Y024242D01*
X013328Y024180D01*
X013258Y024130D01*
X013181Y024090D01*
X013099Y024064D01*
X013013Y024050D01*
X012979Y024050D01*
X012979Y024591D01*
X013520Y024591D01*
X013513Y024509D02*
X015530Y024509D01*
X015577Y024351D02*
X013460Y024351D01*
X013340Y024192D02*
X015652Y024192D01*
X016097Y025302D02*
X009843Y025302D01*
X009909Y025460D02*
X016031Y025460D01*
X016030Y025619D02*
X009910Y025619D01*
X009894Y025777D02*
X016047Y025777D01*
X016112Y025936D02*
X009828Y025936D01*
X009702Y026094D02*
X016238Y026094D01*
X016492Y026253D02*
X009448Y026253D01*
X008992Y026253D02*
X007448Y026253D01*
X007702Y026094D02*
X007978Y026094D01*
X008200Y026094D02*
X008240Y026094D01*
X008240Y025936D02*
X008200Y025936D01*
X008200Y025777D02*
X008240Y025777D01*
X008462Y026094D02*
X008738Y026094D01*
X006992Y026253D02*
X002030Y026253D01*
X002030Y026411D02*
X037910Y026411D01*
X037910Y026253D02*
X028448Y026253D01*
X028702Y026094D02*
X035087Y026094D01*
X034929Y025936D02*
X028828Y025936D01*
X028894Y025777D02*
X034850Y025777D01*
X034810Y025619D02*
X028910Y025619D01*
X028909Y025460D02*
X034651Y025460D01*
X034493Y025302D02*
X028843Y025302D01*
X028739Y025143D02*
X034334Y025143D01*
X034739Y024192D02*
X035001Y024192D01*
X035160Y024034D02*
X028129Y024034D01*
X027311Y024034D02*
X027129Y024034D01*
X026674Y023875D02*
X035066Y023875D01*
X034990Y023717D02*
X026515Y023717D01*
X026357Y023558D02*
X034990Y023558D01*
X034992Y023400D02*
X026198Y023400D01*
X026040Y023241D02*
X035150Y023241D01*
X035076Y023083D02*
X029508Y023083D01*
X029730Y022924D02*
X034917Y022924D01*
X034850Y022766D02*
X029879Y022766D01*
X029971Y022607D02*
X034798Y022607D01*
X034640Y022449D02*
X030036Y022449D01*
X030079Y022290D02*
X034481Y022290D01*
X034323Y022132D02*
X030090Y022132D01*
X030090Y021973D02*
X034164Y021973D01*
X034006Y021815D02*
X030053Y021815D01*
X030007Y021656D02*
X033847Y021656D01*
X033689Y021498D02*
X029916Y021498D01*
X029793Y021339D02*
X033530Y021339D01*
X036927Y021181D02*
X037910Y021181D01*
X037910Y021339D02*
X037086Y021339D01*
X037090Y021498D02*
X037910Y021498D01*
X037910Y021656D02*
X037090Y021656D01*
X037090Y021815D02*
X037910Y021815D01*
X037910Y021973D02*
X036974Y021973D01*
X036878Y022132D02*
X037910Y022132D01*
X037910Y022290D02*
X037037Y022290D01*
X037090Y022449D02*
X037910Y022449D01*
X037910Y022607D02*
X037090Y022607D01*
X037090Y022766D02*
X037910Y022766D01*
X037910Y022924D02*
X037023Y022924D01*
X036864Y023083D02*
X037910Y023083D01*
X037910Y023241D02*
X036988Y023241D01*
X037090Y023400D02*
X037910Y023400D01*
X037910Y023558D02*
X037090Y023558D01*
X037090Y023717D02*
X037910Y023717D01*
X037910Y023875D02*
X037072Y023875D01*
X036913Y024034D02*
X037910Y024034D01*
X037910Y024192D02*
X036939Y024192D01*
X037090Y024351D02*
X037910Y024351D01*
X037910Y024509D02*
X037090Y024509D01*
X037090Y024668D02*
X037910Y024668D01*
X037910Y024826D02*
X037090Y024826D01*
X036962Y024985D02*
X037910Y024985D01*
X037910Y025143D02*
X036890Y025143D01*
X037048Y025302D02*
X037910Y025302D01*
X037910Y025460D02*
X037090Y025460D01*
X037090Y025619D02*
X037910Y025619D01*
X037910Y025777D02*
X037090Y025777D01*
X037011Y025936D02*
X037910Y025936D01*
X037910Y026094D02*
X036853Y026094D01*
X036087Y026094D02*
X035853Y026094D01*
X037910Y026570D02*
X002030Y026570D01*
X002030Y026728D02*
X037910Y026728D01*
X037910Y026887D02*
X002030Y026887D01*
X002030Y026094D02*
X006738Y026094D01*
X006612Y025936D02*
X002030Y025936D01*
X002030Y025777D02*
X006547Y025777D01*
X006530Y025619D02*
X002030Y025619D01*
X002030Y025460D02*
X006531Y025460D01*
X006597Y025302D02*
X002030Y025302D01*
X002030Y025143D02*
X003383Y025143D01*
X003341Y025136D02*
X003427Y025150D01*
X003461Y025150D01*
X003461Y024609D01*
X003479Y024609D01*
X003479Y025150D01*
X003513Y025150D01*
X003599Y025136D01*
X003681Y025110D01*
X003758Y025070D01*
X003828Y025020D01*
X003890Y024958D01*
X003940Y024888D01*
X003980Y024811D01*
X004007Y024729D01*
X004020Y024643D01*
X004020Y024609D01*
X003479Y024609D01*
X003479Y024591D01*
X003461Y024591D01*
X003461Y024609D01*
X002920Y024609D01*
X002920Y024643D01*
X002934Y024729D01*
X002960Y024811D01*
X003000Y024888D01*
X003051Y024958D01*
X003112Y025020D01*
X003182Y025070D01*
X003259Y025110D01*
X003341Y025136D01*
X003461Y025143D02*
X003479Y025143D01*
X003557Y025143D02*
X006287Y025143D01*
X006133Y024985D02*
X003863Y024985D01*
X003972Y024826D02*
X006067Y024826D01*
X006030Y024668D02*
X004016Y024668D01*
X004020Y024591D02*
X004020Y024557D01*
X004007Y024471D01*
X003980Y024389D01*
X003940Y024312D01*
X003890Y024242D01*
X003828Y024180D01*
X003758Y024130D01*
X003681Y024090D01*
X003599Y024064D01*
X003513Y024050D01*
X003479Y024050D01*
X003479Y024591D01*
X004020Y024591D01*
X004013Y024509D02*
X006030Y024509D01*
X006077Y024351D02*
X003960Y024351D01*
X003840Y024192D02*
X006152Y024192D01*
X006311Y024034D02*
X002030Y024034D01*
X002030Y024192D02*
X003100Y024192D01*
X003112Y024180D02*
X003051Y024242D01*
X003000Y024312D01*
X002960Y024389D01*
X002934Y024471D01*
X002920Y024557D01*
X002920Y024591D01*
X003461Y024591D01*
X003461Y024050D01*
X003427Y024050D01*
X003341Y024064D01*
X003259Y024090D01*
X003182Y024130D01*
X003112Y024180D01*
X002980Y024351D02*
X002030Y024351D01*
X002030Y024509D02*
X002928Y024509D01*
X002924Y024668D02*
X002030Y024668D01*
X002030Y024826D02*
X002968Y024826D01*
X003077Y024985D02*
X002030Y024985D01*
X002030Y023875D02*
X006316Y023875D01*
X007040Y023241D02*
X010400Y023241D01*
X010508Y023083D02*
X010559Y023083D01*
X010242Y023400D02*
X007198Y023400D01*
X007357Y023558D02*
X010083Y023558D01*
X009925Y023717D02*
X007515Y023717D01*
X007674Y023875D02*
X009766Y023875D01*
X009608Y024034D02*
X009129Y024034D01*
X009288Y024192D02*
X009449Y024192D01*
X008311Y024034D02*
X008129Y024034D01*
X009210Y022924D02*
X006730Y022924D01*
X006879Y022766D02*
X009061Y022766D01*
X008970Y022607D02*
X006971Y022607D01*
X007036Y022449D02*
X008904Y022449D01*
X008861Y022290D02*
X007079Y022290D01*
X007090Y022132D02*
X008850Y022132D01*
X008850Y021973D02*
X007090Y021973D01*
X007053Y021815D02*
X008887Y021815D01*
X008933Y021656D02*
X007007Y021656D01*
X006916Y021498D02*
X009025Y021498D01*
X009147Y021339D02*
X006793Y021339D01*
X006618Y021181D02*
X009323Y021181D01*
X009666Y021022D02*
X006274Y021022D01*
X005666Y021022D02*
X003868Y021022D01*
X004026Y021181D02*
X005323Y021181D01*
X005147Y021339D02*
X004109Y021339D01*
X004160Y021498D02*
X005025Y021498D01*
X004933Y021656D02*
X004205Y021656D01*
X004363Y021815D02*
X004887Y021815D01*
X004850Y021973D02*
X004522Y021973D01*
X004680Y022132D02*
X004850Y022132D01*
X004861Y022290D02*
X004839Y022290D01*
X004115Y022924D02*
X002030Y022924D01*
X002030Y022766D02*
X003957Y022766D01*
X003798Y022607D02*
X002030Y022607D01*
X002030Y022449D02*
X003640Y022449D01*
X003481Y022290D02*
X002030Y022290D01*
X002030Y022132D02*
X003026Y022132D01*
X002878Y021973D02*
X002030Y021973D01*
X002030Y021815D02*
X002812Y021815D01*
X002780Y021656D02*
X002030Y021656D01*
X002030Y021498D02*
X002780Y021498D01*
X002831Y021339D02*
X002030Y021339D01*
X002030Y021181D02*
X002914Y021181D01*
X003072Y021022D02*
X002030Y021022D01*
X002030Y020864D02*
X010740Y020864D01*
X010740Y021022D02*
X010274Y021022D01*
X010618Y021181D02*
X010740Y021181D01*
X010740Y020705D02*
X002030Y020705D01*
X002030Y020547D02*
X010740Y020547D01*
X010740Y020388D02*
X002030Y020388D01*
X002030Y020230D02*
X010740Y020230D01*
X010740Y020071D02*
X002030Y020071D01*
X002030Y019913D02*
X010740Y019913D01*
X010740Y019754D02*
X002030Y019754D01*
X002030Y019596D02*
X010740Y019596D01*
X010740Y019437D02*
X002030Y019437D01*
X002030Y019279D02*
X010740Y019279D01*
X010740Y019120D02*
X002030Y019120D01*
X002030Y018962D02*
X010740Y018962D01*
X010740Y018803D02*
X002030Y018803D01*
X002030Y018645D02*
X010740Y018645D01*
X010740Y018486D02*
X002030Y018486D01*
X002030Y018328D02*
X010740Y018328D01*
X010740Y018169D02*
X002030Y018169D01*
X002030Y018011D02*
X010740Y018011D01*
X009100Y017694D02*
X006840Y017694D01*
X007011Y017535D02*
X008929Y017535D01*
X008838Y017377D02*
X007102Y017377D01*
X007160Y017218D02*
X008780Y017218D01*
X008780Y017060D02*
X007189Y017060D01*
X007348Y016901D02*
X008806Y016901D01*
X008940Y013731D02*
X007500Y013731D01*
X007723Y013573D02*
X007936Y013573D01*
X008200Y013573D02*
X008240Y013573D01*
X008240Y013414D02*
X008200Y013414D01*
X008200Y013256D02*
X008240Y013256D01*
X008504Y013573D02*
X008717Y013573D01*
X009834Y012780D02*
X012450Y012780D01*
X012420Y012622D02*
X009717Y012622D01*
X009485Y012463D02*
X012436Y012463D01*
X012505Y012305D02*
X009382Y012305D01*
X009900Y012939D02*
X012536Y012939D01*
X012734Y013097D02*
X009910Y013097D01*
X007494Y011195D02*
X013886Y011195D01*
X013813Y011122D02*
X013813Y011122D01*
X013728Y011037D02*
X007335Y011037D01*
X007177Y010878D02*
X013569Y010878D01*
X013411Y010720D02*
X010119Y010720D01*
X009821Y010720D02*
X007018Y010720D01*
X006877Y010578D02*
X006877Y010578D01*
X006860Y010561D02*
X009395Y010561D01*
X009189Y010403D02*
X006751Y010403D01*
X006892Y010244D02*
X009049Y010244D01*
X008957Y010086D02*
X006983Y010086D01*
X007042Y009927D02*
X008898Y009927D01*
X008856Y009769D02*
X007084Y009769D01*
X007090Y009610D02*
X008850Y009610D01*
X008850Y009452D02*
X007090Y009452D01*
X007047Y009293D02*
X008893Y009293D01*
X008946Y009135D02*
X006995Y009135D01*
X006903Y008976D02*
X009037Y008976D01*
X009169Y008818D02*
X006772Y008818D01*
X006580Y008659D02*
X009360Y008659D01*
X009746Y008501D02*
X006194Y008501D01*
X005746Y008501D02*
X002030Y008501D01*
X002030Y008659D02*
X005360Y008659D01*
X005169Y008818D02*
X002030Y008818D01*
X002030Y008976D02*
X003173Y008976D01*
X002960Y009135D02*
X002030Y009135D01*
X002030Y009293D02*
X002850Y009293D01*
X002785Y009452D02*
X002030Y009452D01*
X002030Y009610D02*
X002780Y009610D01*
X002793Y009769D02*
X002030Y009769D01*
X002030Y009927D02*
X002859Y009927D01*
X002980Y010086D02*
X002030Y010086D01*
X002030Y010244D02*
X003222Y010244D01*
X003594Y010403D02*
X002030Y010403D01*
X002030Y010561D02*
X003752Y010561D01*
X003911Y010720D02*
X002030Y010720D01*
X002030Y010878D02*
X004069Y010878D01*
X004228Y011037D02*
X002030Y011037D01*
X002030Y011195D02*
X004386Y011195D01*
X004793Y010244D02*
X005049Y010244D01*
X004957Y010086D02*
X004634Y010086D01*
X004476Y009927D02*
X004898Y009927D01*
X004856Y009769D02*
X004317Y009769D01*
X004160Y009610D02*
X004850Y009610D01*
X004850Y009452D02*
X004155Y009452D01*
X004090Y009293D02*
X004893Y009293D01*
X004946Y009135D02*
X003980Y009135D01*
X003767Y008976D02*
X005037Y008976D01*
X006295Y011354D02*
X002030Y011354D01*
X002030Y011512D02*
X006337Y011512D01*
X006174Y011671D02*
X002030Y011671D01*
X002030Y011829D02*
X006085Y011829D01*
X006030Y011988D02*
X002030Y011988D01*
X002030Y012146D02*
X003159Y012146D01*
X003182Y012130D02*
X003112Y012180D01*
X003051Y012242D01*
X003000Y012312D01*
X002960Y012389D01*
X002934Y012471D01*
X002920Y012557D01*
X002920Y012591D01*
X003461Y012591D01*
X003461Y012609D01*
X003479Y012609D01*
X003479Y013150D01*
X003513Y013150D01*
X003599Y013136D01*
X003681Y013110D01*
X003758Y013070D01*
X003828Y013020D01*
X003890Y012958D01*
X003940Y012888D01*
X003980Y012811D01*
X004007Y012729D01*
X004020Y012643D01*
X004020Y012609D01*
X003479Y012609D01*
X003479Y012591D01*
X003461Y012591D01*
X003461Y012050D01*
X003427Y012050D01*
X003341Y012064D01*
X003259Y012090D01*
X003182Y012130D01*
X003005Y012305D02*
X002030Y012305D01*
X002030Y012463D02*
X002936Y012463D01*
X002920Y012609D02*
X002920Y012643D01*
X002934Y012729D01*
X002960Y012811D01*
X003000Y012888D01*
X003051Y012958D01*
X003112Y013020D01*
X003182Y013070D01*
X003259Y013110D01*
X003341Y013136D01*
X003427Y013150D01*
X003461Y013150D01*
X003461Y012609D01*
X002920Y012609D01*
X002920Y012622D02*
X002030Y012622D01*
X002030Y012780D02*
X002950Y012780D01*
X003036Y012939D02*
X002030Y012939D01*
X002030Y013097D02*
X003234Y013097D01*
X003461Y013097D02*
X003479Y013097D01*
X003479Y012939D02*
X003461Y012939D01*
X003461Y012780D02*
X003479Y012780D01*
X003479Y012622D02*
X003461Y012622D01*
X003479Y012591D02*
X004020Y012591D01*
X004020Y012557D01*
X004007Y012471D01*
X003980Y012389D01*
X003940Y012312D01*
X003890Y012242D01*
X003828Y012180D01*
X003758Y012130D01*
X003681Y012090D01*
X003599Y012064D01*
X003513Y012050D01*
X003479Y012050D01*
X003479Y012591D01*
X003479Y012463D02*
X003461Y012463D01*
X003461Y012305D02*
X003479Y012305D01*
X003479Y012146D02*
X003461Y012146D01*
X003781Y012146D02*
X006030Y012146D01*
X006058Y012305D02*
X003935Y012305D01*
X004004Y012463D02*
X006124Y012463D01*
X006266Y012622D02*
X004020Y012622D01*
X003990Y012780D02*
X006559Y012780D01*
X006540Y012939D02*
X003904Y012939D01*
X003706Y013097D02*
X006530Y013097D01*
X006538Y013256D02*
X002030Y013256D01*
X002030Y013414D02*
X006603Y013414D01*
X006717Y013573D02*
X002030Y013573D01*
X002030Y013731D02*
X006940Y013731D01*
X010546Y010561D02*
X013252Y010561D01*
X013094Y010403D02*
X010751Y010403D01*
X010892Y010244D02*
X012722Y010244D01*
X012480Y010086D02*
X010983Y010086D01*
X011042Y009927D02*
X012359Y009927D01*
X012293Y009769D02*
X011084Y009769D01*
X011090Y009610D02*
X012280Y009610D01*
X012285Y009452D02*
X011090Y009452D01*
X011047Y009293D02*
X012350Y009293D01*
X012460Y009135D02*
X010995Y009135D01*
X009066Y005172D02*
X006874Y005172D01*
X006861Y005185D02*
X007055Y004991D01*
X007160Y004737D01*
X007160Y004463D01*
X007055Y004209D01*
X006861Y004015D01*
X006607Y003910D01*
X006333Y003910D01*
X006079Y004015D01*
X005885Y004209D01*
X005780Y004463D01*
X005780Y004737D01*
X005885Y004991D01*
X006079Y005185D01*
X006333Y005290D01*
X006607Y005290D01*
X006861Y005185D01*
X007032Y005014D02*
X008908Y005014D01*
X008829Y004855D02*
X007111Y004855D01*
X007160Y004697D02*
X008780Y004697D01*
X008780Y004538D02*
X007160Y004538D01*
X007126Y004380D02*
X008815Y004380D01*
X008880Y004221D02*
X007060Y004221D01*
X006908Y004063D02*
X009032Y004063D01*
X006032Y004063D02*
X002030Y004063D01*
X002030Y004221D02*
X005880Y004221D01*
X005815Y004380D02*
X002030Y004380D01*
X002030Y004538D02*
X005780Y004538D01*
X005780Y004697D02*
X002030Y004697D01*
X002030Y004855D02*
X005829Y004855D01*
X005908Y005014D02*
X002030Y005014D01*
X002030Y005172D02*
X006066Y005172D01*
X019635Y016901D02*
X024806Y016901D01*
X024780Y017060D02*
X019660Y017060D01*
X019660Y017218D02*
X024780Y017218D01*
X024838Y017377D02*
X020831Y017377D01*
X021084Y017535D02*
X024929Y017535D01*
X025100Y017694D02*
X021175Y017694D01*
X021200Y017852D02*
X025543Y017852D01*
X025702Y018011D02*
X021200Y018011D01*
X021200Y018169D02*
X025860Y018169D01*
X026019Y018328D02*
X021200Y018328D01*
X021200Y018486D02*
X026177Y018486D01*
X026336Y018645D02*
X021200Y018645D01*
X021200Y018803D02*
X026494Y018803D01*
X026653Y018962D02*
X021200Y018962D01*
X021200Y019120D02*
X026811Y019120D01*
X026970Y019279D02*
X021200Y019279D01*
X021200Y019437D02*
X027128Y019437D01*
X027287Y019596D02*
X021200Y019596D01*
X021200Y019754D02*
X027445Y019754D01*
X027604Y019913D02*
X021200Y019913D01*
X021200Y020071D02*
X027762Y020071D01*
X027921Y020230D02*
X021200Y020230D01*
X021200Y020388D02*
X028079Y020388D01*
X028238Y020547D02*
X021200Y020547D01*
X021200Y020705D02*
X028396Y020705D01*
X028555Y020864D02*
X021200Y020864D01*
X021200Y021022D02*
X022072Y021022D01*
X021914Y021181D02*
X021200Y021181D01*
X021200Y021339D02*
X021831Y021339D01*
X021780Y021498D02*
X021200Y021498D01*
X021200Y021656D02*
X021780Y021656D01*
X021812Y021815D02*
X021200Y021815D01*
X021200Y021973D02*
X021878Y021973D01*
X022026Y022132D02*
X021200Y022132D01*
X021200Y022290D02*
X022481Y022290D01*
X022640Y022449D02*
X021200Y022449D01*
X021200Y022607D02*
X022798Y022607D01*
X022957Y022766D02*
X021200Y022766D01*
X021200Y022924D02*
X023115Y022924D01*
X023274Y023083D02*
X021200Y023083D01*
X021181Y023241D02*
X023432Y023241D01*
X023591Y023400D02*
X021099Y023400D01*
X020941Y023558D02*
X023749Y023558D01*
X023908Y023717D02*
X020782Y023717D01*
X020624Y023875D02*
X025316Y023875D01*
X025311Y024034D02*
X020465Y024034D01*
X020307Y024192D02*
X022100Y024192D01*
X022112Y024180D02*
X022051Y024242D01*
X022000Y024312D01*
X021960Y024389D01*
X021934Y024471D01*
X021920Y024557D01*
X021920Y024591D01*
X022461Y024591D01*
X022461Y024609D01*
X022479Y024609D01*
X022479Y025150D01*
X022513Y025150D01*
X022599Y025136D01*
X022681Y025110D01*
X022758Y025070D01*
X022828Y025020D01*
X022890Y024958D01*
X022940Y024888D01*
X022980Y024811D01*
X023007Y024729D01*
X023020Y024643D01*
X023020Y024609D01*
X022479Y024609D01*
X022479Y024591D01*
X022461Y024591D01*
X022461Y024050D01*
X022427Y024050D01*
X022341Y024064D01*
X022259Y024090D01*
X022182Y024130D01*
X022112Y024180D01*
X021980Y024351D02*
X020148Y024351D01*
X019990Y024509D02*
X021928Y024509D01*
X021920Y024609D02*
X021920Y024643D01*
X021934Y024729D01*
X021960Y024811D01*
X022000Y024888D01*
X022051Y024958D01*
X022112Y025020D01*
X022182Y025070D01*
X022259Y025110D01*
X022341Y025136D01*
X022427Y025150D01*
X022461Y025150D01*
X022461Y024609D01*
X021920Y024609D01*
X021924Y024668D02*
X019831Y024668D01*
X019673Y024826D02*
X021968Y024826D01*
X022077Y024985D02*
X019514Y024985D01*
X019356Y025143D02*
X022383Y025143D01*
X022461Y025143D02*
X022479Y025143D01*
X022557Y025143D02*
X025287Y025143D01*
X025133Y024985D02*
X022863Y024985D01*
X022972Y024826D02*
X025067Y024826D01*
X025030Y024668D02*
X023016Y024668D01*
X023020Y024591D02*
X023020Y024557D01*
X023007Y024471D01*
X022980Y024389D01*
X022940Y024312D01*
X022890Y024242D01*
X022828Y024180D01*
X022758Y024130D01*
X022681Y024090D01*
X022599Y024064D01*
X022513Y024050D01*
X022479Y024050D01*
X022479Y024591D01*
X023020Y024591D01*
X023013Y024509D02*
X025030Y024509D01*
X025077Y024351D02*
X022960Y024351D01*
X022840Y024192D02*
X025152Y024192D01*
X025597Y025302D02*
X019343Y025302D01*
X019409Y025460D02*
X025531Y025460D01*
X025530Y025619D02*
X019410Y025619D01*
X019394Y025777D02*
X025547Y025777D01*
X025612Y025936D02*
X019328Y025936D01*
X019202Y026094D02*
X025738Y026094D01*
X025992Y026253D02*
X018948Y026253D01*
X018492Y026253D02*
X016948Y026253D01*
X017202Y026094D02*
X017478Y026094D01*
X017700Y026094D02*
X017740Y026094D01*
X017740Y025936D02*
X017700Y025936D01*
X017700Y025777D02*
X017740Y025777D01*
X017962Y026094D02*
X018238Y026094D01*
X018788Y024192D02*
X018949Y024192D01*
X019108Y024034D02*
X018629Y024034D01*
X019266Y023875D02*
X017174Y023875D01*
X017015Y023717D02*
X019425Y023717D01*
X019583Y023558D02*
X016857Y023558D01*
X016698Y023400D02*
X019742Y023400D01*
X019900Y023241D02*
X016540Y023241D01*
X016381Y023083D02*
X018932Y023083D01*
X018710Y022924D02*
X016230Y022924D01*
X016379Y022766D02*
X018561Y022766D01*
X018470Y022607D02*
X016471Y022607D01*
X016536Y022449D02*
X018404Y022449D01*
X018361Y022290D02*
X016579Y022290D01*
X016590Y022132D02*
X018350Y022132D01*
X018350Y021973D02*
X016590Y021973D01*
X016553Y021815D02*
X018387Y021815D01*
X018433Y021656D02*
X016507Y021656D01*
X016416Y021498D02*
X018525Y021498D01*
X018647Y021339D02*
X016293Y021339D01*
X016118Y021181D02*
X018823Y021181D01*
X019166Y021022D02*
X015774Y021022D01*
X015166Y021022D02*
X013368Y021022D01*
X013526Y021181D02*
X014823Y021181D01*
X014647Y021339D02*
X013609Y021339D01*
X013660Y021498D02*
X014525Y021498D01*
X014433Y021656D02*
X013705Y021656D01*
X013863Y021815D02*
X014387Y021815D01*
X014350Y021973D02*
X014022Y021973D01*
X014180Y022132D02*
X014350Y022132D01*
X014361Y022290D02*
X014339Y022290D01*
X012979Y024192D02*
X012961Y024192D01*
X012961Y024351D02*
X012979Y024351D01*
X012979Y024509D02*
X012961Y024509D01*
X012961Y024668D02*
X012979Y024668D01*
X012979Y024826D02*
X012961Y024826D01*
X012961Y024985D02*
X012979Y024985D01*
X009432Y023083D02*
X006881Y023083D01*
X004908Y023717D02*
X002030Y023717D01*
X002030Y023558D02*
X004749Y023558D01*
X004591Y023400D02*
X002030Y023400D01*
X002030Y023241D02*
X004432Y023241D01*
X004274Y023083D02*
X002030Y023083D01*
X003461Y024192D02*
X003479Y024192D01*
X003479Y024351D02*
X003461Y024351D01*
X003461Y024509D02*
X003479Y024509D01*
X003479Y024668D02*
X003461Y024668D01*
X003461Y024826D02*
X003479Y024826D01*
X003479Y024985D02*
X003461Y024985D01*
X017629Y024034D02*
X017811Y024034D01*
X020008Y023083D02*
X020059Y023083D01*
X020118Y021181D02*
X020240Y021181D01*
X020240Y021022D02*
X019774Y021022D01*
X022868Y021022D02*
X024666Y021022D01*
X024323Y021181D02*
X023026Y021181D01*
X023109Y021339D02*
X024147Y021339D01*
X024025Y021498D02*
X023160Y021498D01*
X023205Y021656D02*
X023933Y021656D01*
X023887Y021815D02*
X023363Y021815D01*
X023522Y021973D02*
X023850Y021973D01*
X023850Y022132D02*
X023680Y022132D01*
X023839Y022290D02*
X023861Y022290D01*
X025274Y021022D02*
X028666Y021022D01*
X028323Y021181D02*
X025618Y021181D01*
X025793Y021339D02*
X028147Y021339D01*
X028025Y021498D02*
X025916Y021498D01*
X026007Y021656D02*
X027933Y021656D01*
X027887Y021815D02*
X026053Y021815D01*
X026090Y021973D02*
X027850Y021973D01*
X027850Y022132D02*
X026090Y022132D01*
X026079Y022290D02*
X027861Y022290D01*
X027904Y022449D02*
X026036Y022449D01*
X025971Y022607D02*
X027970Y022607D01*
X028061Y022766D02*
X025879Y022766D01*
X025730Y022924D02*
X028210Y022924D01*
X028432Y023083D02*
X025881Y023083D01*
X027200Y025777D02*
X027240Y025777D01*
X027240Y025936D02*
X027200Y025936D01*
X027200Y026094D02*
X027240Y026094D01*
X027462Y026094D02*
X027738Y026094D01*
X027992Y026253D02*
X026448Y026253D01*
X026702Y026094D02*
X026978Y026094D01*
X022479Y024985D02*
X022461Y024985D01*
X022461Y024826D02*
X022479Y024826D01*
X022479Y024668D02*
X022461Y024668D01*
X022461Y024509D02*
X022479Y024509D01*
X022479Y024351D02*
X022461Y024351D01*
X022461Y024192D02*
X022479Y024192D01*
X036925Y021022D02*
X037910Y021022D01*
X037910Y020864D02*
X037083Y020864D01*
X037090Y020705D02*
X037910Y020705D01*
X037910Y020547D02*
X037090Y020547D01*
X037090Y020388D02*
X037910Y020388D01*
X037910Y020230D02*
X036976Y020230D01*
X036876Y020071D02*
X037910Y020071D01*
X037910Y019913D02*
X037034Y019913D01*
X037090Y019754D02*
X037910Y019754D01*
X037910Y019596D02*
X037090Y019596D01*
X037090Y019437D02*
X037910Y019437D01*
X037910Y019279D02*
X037025Y019279D01*
X036867Y019120D02*
X037910Y019120D01*
X037910Y018962D02*
X036985Y018962D01*
X037090Y018803D02*
X037910Y018803D01*
X037910Y018645D02*
X037090Y018645D01*
X037090Y018486D02*
X037910Y018486D01*
X037910Y018328D02*
X037074Y018328D01*
X036916Y018169D02*
X037910Y018169D01*
X037910Y018011D02*
X036936Y018011D01*
X037090Y017852D02*
X037910Y017852D01*
X037910Y017694D02*
X037090Y017694D01*
X037090Y017535D02*
X037910Y017535D01*
X037910Y017377D02*
X037090Y017377D01*
X036965Y017218D02*
X037910Y017218D01*
X037910Y017060D02*
X036887Y017060D01*
X037046Y016901D02*
X037910Y016901D01*
X037910Y016743D02*
X037090Y016743D01*
X037090Y016584D02*
X037910Y016584D01*
X037910Y016426D02*
X037090Y016426D01*
X037014Y016267D02*
X037910Y016267D01*
X037910Y016109D02*
X036855Y016109D01*
X036997Y015950D02*
X037910Y015950D01*
X037910Y015792D02*
X037090Y015792D01*
X037090Y015633D02*
X037910Y015633D01*
X037910Y015475D02*
X037090Y015475D01*
X037063Y015316D02*
X037910Y015316D01*
X037910Y015158D02*
X036904Y015158D01*
X036948Y014999D02*
X037910Y014999D01*
X037910Y014841D02*
X037090Y014841D01*
X037090Y014682D02*
X037910Y014682D01*
X037910Y014524D02*
X037090Y014524D01*
X037090Y014365D02*
X037910Y014365D01*
X037910Y014207D02*
X036953Y014207D01*
X036899Y014048D02*
X037910Y014048D01*
X037910Y013890D02*
X037057Y013890D01*
X037090Y013731D02*
X037910Y013731D01*
X037910Y013573D02*
X037090Y013573D01*
X037090Y013414D02*
X037910Y013414D01*
X037910Y013256D02*
X037002Y013256D01*
X036850Y013097D02*
X037910Y013097D01*
X037910Y012939D02*
X037008Y012939D01*
X037090Y012780D02*
X037910Y012780D01*
X037910Y012622D02*
X037090Y012622D01*
X037090Y012463D02*
X037910Y012463D01*
X037910Y012305D02*
X037051Y012305D01*
X036893Y012146D02*
X037910Y012146D01*
X037910Y011988D02*
X036959Y011988D01*
X037090Y011829D02*
X037910Y011829D01*
X037910Y011671D02*
X037090Y011671D01*
X037090Y011512D02*
X037910Y011512D01*
X037910Y011354D02*
X037090Y011354D01*
X036942Y011195D02*
X037910Y011195D01*
X037910Y011037D02*
X036910Y011037D01*
X037069Y010878D02*
X037910Y010878D01*
X037910Y010720D02*
X037090Y010720D01*
X037090Y010561D02*
X037910Y010561D01*
X037910Y010403D02*
X037090Y010403D01*
X036991Y010244D02*
X037910Y010244D01*
X037910Y010086D02*
X036861Y010086D01*
X037020Y009927D02*
X037910Y009927D01*
X037910Y009769D02*
X037090Y009769D01*
X037090Y009610D02*
X037910Y009610D01*
X037910Y009452D02*
X037090Y009452D01*
X037040Y009293D02*
X037910Y009293D01*
X037910Y009135D02*
X036881Y009135D01*
X036971Y008976D02*
X037910Y008976D01*
X037910Y008818D02*
X037090Y008818D01*
X037090Y008659D02*
X037910Y008659D01*
X037910Y008501D02*
X037090Y008501D01*
X037089Y008342D02*
X037910Y008342D01*
X037910Y008184D02*
X036930Y008184D01*
X036922Y008025D02*
X037910Y008025D01*
X037910Y007867D02*
X037080Y007867D01*
X037090Y007708D02*
X037910Y007708D01*
X037910Y007550D02*
X037090Y007550D01*
X037090Y007391D02*
X037910Y007391D01*
X037910Y007233D02*
X036979Y007233D01*
X036873Y007074D02*
X037910Y007074D01*
X037910Y006916D02*
X037031Y006916D01*
X037090Y006757D02*
X037910Y006757D01*
X037910Y006599D02*
X037090Y006599D01*
X037090Y006440D02*
X037910Y006440D01*
X037910Y006282D02*
X037028Y006282D01*
X036870Y006123D02*
X037910Y006123D01*
X036070Y006123D02*
X035870Y006123D01*
M02*
