%
M48
M72
T01C0.0354
T02C0.0400
T03C0.1280
%
T01
X11100Y4600
X14100Y4600
X17100Y9600
X17100Y12600
X14100Y17100
X11100Y17100
X17100Y21600
X17100Y24600
X20600Y17100
X23600Y17100
X26600Y12600
X26600Y9600
X23600Y4600
X20600Y4600
X30100Y4600
X33100Y4600
X36100Y9600
X36100Y12600
X33100Y17100
X30100Y17100
X26600Y21600
X26600Y24600
X36100Y24600
X36100Y21600
T02
X3100Y6600
X3100Y7600
X4100Y7600
X4100Y6600
X4100Y8600
X4100Y9600
X4100Y10600
X4100Y11600
X4100Y12600
X4100Y13600
X3100Y13600
X3100Y12600
X3100Y11600
X3100Y10600
X3100Y9600
X3100Y8600
X3100Y14600
X3100Y15600
X3100Y16600
X3100Y17600
X3100Y18600
X3100Y19600
X3100Y20600
X4100Y20600
X4100Y19600
X4100Y18600
X4100Y17600
X4100Y16600
X4100Y15600
X4100Y14600
X11350Y13100
X12350Y13100
X13350Y13100
X12850Y12100
X11850Y12100
X13850Y12100
X20850Y13100
X21850Y13100
X22850Y13100
X22350Y12100
X21350Y12100
X23350Y12100
X30350Y13100
X31350Y13100
X32350Y13100
X31850Y12100
X30850Y12100
X32850Y12100
X32850Y24600
X31850Y24600
X30850Y24600
X30350Y25600
X31350Y25600
X32350Y25600
X23350Y24600
X22350Y24600
X21350Y24600
X20850Y25600
X21850Y25600
X22850Y25600
X13850Y24600
X12850Y24600
X11850Y24600
X11350Y25600
X12350Y25600
X13350Y25600
X4100Y25600
X4100Y24600
X4100Y23600
X4100Y22600
X4100Y21600
X3100Y21600
X3100Y22600
X3100Y23600
X3100Y24600
X3100Y25600
T03
X10600Y22100
X14600Y22100
X20100Y22100
X24100Y22100
X29600Y22100
X33600Y22100
X33600Y9600
X29600Y9600
X24100Y9600
X20100Y9600
X14600Y9600
X10600Y9600
M30
