solid OpenSCAD_Model
  facet normal -1 0 0
    outer loop
      vertex -19 20 -2
      vertex -19 7 2
      vertex -19 20 2
    endloop
  endfacet
  facet normal -1 0 0
    outer loop
      vertex -19 7 2
      vertex -19 5 16
      vertex -19 7 30
    endloop
  endfacet
  facet normal -1 0 0
    outer loop
      vertex -19 7 2
      vertex -19 0 16
      vertex -19 5 16
    endloop
  endfacet
  facet normal -1 0 0
    outer loop
      vertex -19 -2 30
      vertex -19 0 16
      vertex -19 -2 2
    endloop
  endfacet
  facet normal -1 0 0
    outer loop
      vertex -19 7 2
      vertex -19 -2 2
      vertex -19 0 16
    endloop
  endfacet
  facet normal -1 0 0
    outer loop
      vertex -19 20 -2
      vertex -19 -2 2
      vertex -19 7 2
    endloop
  endfacet
  facet normal -1 0 0
    outer loop
      vertex -19 -20 -2
      vertex -19 -2 2
      vertex -19 20 -2
    endloop
  endfacet
  facet normal -1 -0 0
    outer loop
      vertex -19 -2 2
      vertex -19 -20 -2
      vertex -19 -20 2
    endloop
  endfacet
  facet normal -1 -0 0
    outer loop
      vertex -19 7 30
      vertex -19 5 16
      vertex -19 5 30
    endloop
  endfacet
  facet normal -1 0 0
    outer loop
      vertex -19 0 16
      vertex -19 -2 30
      vertex -19 0 30
    endloop
  endfacet
  facet normal -0 0 1
    outer loop
      vertex -19 5 16
      vertex -15 0 16
      vertex -15 5 16
    endloop
  endfacet
  facet normal 0 0 1
    outer loop
      vertex -15 0 16
      vertex -19 5 16
      vertex -19 0 16
    endloop
  endfacet
  facet normal 1 0 0
    outer loop
      vertex -15 0 30
      vertex -15 -2 30
      vertex -15 0 16
    endloop
  endfacet
  facet normal 1 0 0
    outer loop
      vertex -15 5 16
      vertex -15 7 30
      vertex -15 5 30
    endloop
  endfacet
  facet normal 1 0 0
    outer loop
      vertex -15 7 30
      vertex -15 5 16
      vertex -15 7 2
    endloop
  endfacet
  facet normal 1 -0 0
    outer loop
      vertex -15 0 16
      vertex -15 7 2
      vertex -15 5 16
    endloop
  endfacet
  facet normal 1 0 0
    outer loop
      vertex -15 0 16
      vertex -15 -2 2
      vertex -15 7 2
    endloop
  endfacet
  facet normal 1 0 0
    outer loop
      vertex -15 -2 2
      vertex -15 0 16
      vertex -15 -2 30
    endloop
  endfacet
  facet normal 0 1 -0
    outer loop
      vertex -15 7 2
      vertex -19 7 30
      vertex -15 7 30
    endloop
  endfacet
  facet normal 0 1 0
    outer loop
      vertex -19 7 30
      vertex -15 7 2
      vertex -19 7 2
    endloop
  endfacet
  facet normal 0 0 1
    outer loop
      vertex -6.5 20 2
      vertex -15 7 2
      vertex -6.5 -8 2
    endloop
  endfacet
  facet normal -0 0 1
    outer loop
      vertex -19 20 2
      vertex -15 7 2
      vertex -6.5 20 2
    endloop
  endfacet
  facet normal 0 0 1
    outer loop
      vertex -15 7 2
      vertex -19 20 2
      vertex -19 7 2
    endloop
  endfacet
  facet normal 0 0 1
    outer loop
      vertex 19 20 2
      vertex 15 7 2
      vertex 19 7 2
    endloop
  endfacet
  facet normal 0 0 1
    outer loop
      vertex 6.5 -8 2
      vertex 15 7 2
      vertex 6.5 20 2
    endloop
  endfacet
  facet normal -0 0 1
    outer loop
      vertex 6.5 20 2
      vertex 15 7 2
      vertex 19 20 2
    endloop
  endfacet
  facet normal -0 0 1
    outer loop
      vertex 15 -2 2
      vertex 19 -20 2
      vertex 19 -2 2
    endloop
  endfacet
  facet normal 0 0 1
    outer loop
      vertex 15 7 2
      vertex 6.5 -8 2
      vertex 15 -2 2
    endloop
  endfacet
  facet normal 0 0 1
    outer loop
      vertex 15 -2 2
      vertex 6.5 -8 2
      vertex 19 -20 2
    endloop
  endfacet
  facet normal -0 0 1
    outer loop
      vertex -6.5 -8 2
      vertex 19 -20 2
      vertex 6.5 -8 2
    endloop
  endfacet
  facet normal -0 0 1
    outer loop
      vertex -15 -2 2
      vertex -6.5 -8 2
      vertex -15 7 2
    endloop
  endfacet
  facet normal 0 0 1
    outer loop
      vertex -19 -20 2
      vertex -15 -2 2
      vertex -19 -2 2
    endloop
  endfacet
  facet normal 0 0 1
    outer loop
      vertex -6.5 -8 2
      vertex -19 -20 2
      vertex 19 -20 2
    endloop
  endfacet
  facet normal 0 0 1
    outer loop
      vertex -15 -2 2
      vertex -19 -20 2
      vertex -6.5 -8 2
    endloop
  endfacet
  facet normal 0 -1 0
    outer loop
      vertex -19 -2 2
      vertex -15 -2 30
      vertex -19 -2 30
    endloop
  endfacet
  facet normal 0 -1 -0
    outer loop
      vertex -15 -2 30
      vertex -19 -2 2
      vertex -15 -2 2
    endloop
  endfacet
  facet normal -0 0 1
    outer loop
      vertex -19 7 30
      vertex -15 5 30
      vertex -15 7 30
    endloop
  endfacet
  facet normal 0 0 1
    outer loop
      vertex -15 5 30
      vertex -19 7 30
      vertex -19 5 30
    endloop
  endfacet
  facet normal 0 -1 0
    outer loop
      vertex -19 5 16
      vertex -15 5 30
      vertex -19 5 30
    endloop
  endfacet
  facet normal 0 -1 -0
    outer loop
      vertex -15 5 30
      vertex -19 5 16
      vertex -15 5 16
    endloop
  endfacet
  facet normal -0 0 1
    outer loop
      vertex -19 0 30
      vertex -15 -2 30
      vertex -15 0 30
    endloop
  endfacet
  facet normal 0 0 1
    outer loop
      vertex -15 -2 30
      vertex -19 0 30
      vertex -19 -2 30
    endloop
  endfacet
  facet normal 0 1 -0
    outer loop
      vertex -15 0 16
      vertex -19 0 30
      vertex -15 0 30
    endloop
  endfacet
  facet normal 0 1 0
    outer loop
      vertex -19 0 30
      vertex -15 0 16
      vertex -19 0 16
    endloop
  endfacet
  facet normal -1 0 0
    outer loop
      vertex 15 7 2
      vertex 15 5 16
      vertex 15 7 30
    endloop
  endfacet
  facet normal -1 0 0
    outer loop
      vertex 15 7 2
      vertex 15 0 16
      vertex 15 5 16
    endloop
  endfacet
  facet normal -1 0 0
    outer loop
      vertex 15 -2 2
      vertex 15 0 16
      vertex 15 7 2
    endloop
  endfacet
  facet normal -1 0 0
    outer loop
      vertex 15 -2 30
      vertex 15 0 16
      vertex 15 -2 2
    endloop
  endfacet
  facet normal -1 0 0
    outer loop
      vertex 15 0 16
      vertex 15 -2 30
      vertex 15 0 30
    endloop
  endfacet
  facet normal -1 -0 0
    outer loop
      vertex 15 7 30
      vertex 15 5 16
      vertex 15 5 30
    endloop
  endfacet
  facet normal -0 0 1
    outer loop
      vertex 15 5 16
      vertex 19 0 16
      vertex 19 5 16
    endloop
  endfacet
  facet normal 0 0 1
    outer loop
      vertex 19 0 16
      vertex 15 5 16
      vertex 15 0 16
    endloop
  endfacet
  facet normal 1 0 0
    outer loop
      vertex 19 0 30
      vertex 19 -2 30
      vertex 19 0 16
    endloop
  endfacet
  facet normal 1 0 0
    outer loop
      vertex 19 5 16
      vertex 19 7 30
      vertex 19 5 30
    endloop
  endfacet
  facet normal 1 -0 0
    outer loop
      vertex 19 7 2
      vertex 19 20 -2
      vertex 19 20 2
    endloop
  endfacet
  facet normal 1 0 0
    outer loop
      vertex 19 7 30
      vertex 19 5 16
      vertex 19 7 2
    endloop
  endfacet
  facet normal 1 -0 0
    outer loop
      vertex 19 0 16
      vertex 19 7 2
      vertex 19 5 16
    endloop
  endfacet
  facet normal 1 0 0
    outer loop
      vertex 19 -2 2
      vertex 19 0 16
      vertex 19 -2 30
    endloop
  endfacet
  facet normal 1 0 0
    outer loop
      vertex 19 -2 2
      vertex 19 7 2
      vertex 19 0 16
    endloop
  endfacet
  facet normal 1 -0 0
    outer loop
      vertex 19 -2 2
      vertex 19 20 -2
      vertex 19 7 2
    endloop
  endfacet
  facet normal 1 0 0
    outer loop
      vertex 19 -20 -2
      vertex 19 -2 2
      vertex 19 -20 2
    endloop
  endfacet
  facet normal 1 0 0
    outer loop
      vertex 19 -2 2
      vertex 19 -20 -2
      vertex 19 20 -2
    endloop
  endfacet
  facet normal 0 1 -0
    outer loop
      vertex 19 7 2
      vertex 15 7 30
      vertex 19 7 30
    endloop
  endfacet
  facet normal 0 1 0
    outer loop
      vertex 15 7 30
      vertex 19 7 2
      vertex 15 7 2
    endloop
  endfacet
  facet normal 0 -1 0
    outer loop
      vertex 15 -2 2
      vertex 19 -2 30
      vertex 15 -2 30
    endloop
  endfacet
  facet normal 0 -1 -0
    outer loop
      vertex 19 -2 30
      vertex 15 -2 2
      vertex 19 -2 2
    endloop
  endfacet
  facet normal -0 0 1
    outer loop
      vertex 15 7 30
      vertex 19 5 30
      vertex 19 7 30
    endloop
  endfacet
  facet normal 0 0 1
    outer loop
      vertex 19 5 30
      vertex 15 7 30
      vertex 15 5 30
    endloop
  endfacet
  facet normal 0 -1 0
    outer loop
      vertex 15 5 16
      vertex 19 5 30
      vertex 15 5 30
    endloop
  endfacet
  facet normal 0 -1 -0
    outer loop
      vertex 19 5 30
      vertex 15 5 16
      vertex 19 5 16
    endloop
  endfacet
  facet normal -0 0 1
    outer loop
      vertex 15 0 30
      vertex 19 -2 30
      vertex 19 0 30
    endloop
  endfacet
  facet normal 0 0 1
    outer loop
      vertex 19 -2 30
      vertex 15 0 30
      vertex 15 -2 30
    endloop
  endfacet
  facet normal 0 1 -0
    outer loop
      vertex 19 0 16
      vertex 15 0 30
      vertex 19 0 30
    endloop
  endfacet
  facet normal 0 1 0
    outer loop
      vertex 15 0 30
      vertex 19 0 16
      vertex 15 0 16
    endloop
  endfacet
  facet normal 0 0 -1
    outer loop
      vertex -19 -20 -2
      vertex 19 20 -2
      vertex 19 -20 -2
    endloop
  endfacet
  facet normal -0 0 -1
    outer loop
      vertex 19 20 -2
      vertex -19 -20 -2
      vertex -19 20 -2
    endloop
  endfacet
  facet normal 0 -1 0
    outer loop
      vertex -19 -20 -2
      vertex 19 -20 2
      vertex -19 -20 2
    endloop
  endfacet
  facet normal 0 -1 -0
    outer loop
      vertex 19 -20 2
      vertex -19 -20 -2
      vertex 19 -20 -2
    endloop
  endfacet
  facet normal 0 1 -0
    outer loop
      vertex 19 20 -2
      vertex 6.5 20 2
      vertex 19 20 2
    endloop
  endfacet
  facet normal 0 1 0
    outer loop
      vertex 6.5 20 2
      vertex 19 20 -2
      vertex -6.5 20 2
    endloop
  endfacet
  facet normal 0 1 0
    outer loop
      vertex -19 20 -2
      vertex -6.5 20 2
      vertex 19 20 -2
    endloop
  endfacet
  facet normal 0 1 0
    outer loop
      vertex -6.5 20 2
      vertex -19 20 -2
      vertex -19 20 2
    endloop
  endfacet
  facet normal 0 1 -0
    outer loop
      vertex 6.5 20 2
      vertex -6.5 20 17.5
      vertex 6.5 20 17.5
    endloop
  endfacet
  facet normal 0 1 0
    outer loop
      vertex -6.5 20 17.5
      vertex 6.5 20 2
      vertex -6.5 20 2
    endloop
  endfacet
  facet normal -1 0 0
    outer loop
      vertex -6.5 -8 2
      vertex -6.5 20 17.5
      vertex -6.5 20 2
    endloop
  endfacet
  facet normal -1 -0 0
    outer loop
      vertex -6.5 20 17.5
      vertex -6.5 -8 2
      vertex -6.5 -8 17.5
    endloop
  endfacet
  facet normal -0 0 1
    outer loop
      vertex -6.5 20 17.5
      vertex 6.5 -8 17.5
      vertex 6.5 20 17.5
    endloop
  endfacet
  facet normal 0 0 1
    outer loop
      vertex 6.5 -8 17.5
      vertex -6.5 20 17.5
      vertex -6.5 -8 17.5
    endloop
  endfacet
  facet normal 1 -0 0
    outer loop
      vertex 6.5 -8 17.5
      vertex 6.5 20 2
      vertex 6.5 20 17.5
    endloop
  endfacet
  facet normal 1 0 0
    outer loop
      vertex 6.5 20 2
      vertex 6.5 -8 17.5
      vertex 6.5 -8 2
    endloop
  endfacet
  facet normal 0 -1 0
    outer loop
      vertex -6.5 -8 2
      vertex 6.5 -8 17.5
      vertex -6.5 -8 17.5
    endloop
  endfacet
  facet normal 0 -1 -0
    outer loop
      vertex 6.5 -8 17.5
      vertex -6.5 -8 2
      vertex 6.5 -8 2
    endloop
  endfacet
endsolid OpenSCAD_Model
