solid OpenSCAD_Model
  facet normal -1 0 0
    outer loop
      vertex -14 -17 2
      vertex -14 11 16
      vertex -14 11 2
    endloop
  endfacet
  facet normal -1 -0 0
    outer loop
      vertex -14 11 16
      vertex -14 -17 2
      vertex -14 -17 16
    endloop
  endfacet
  facet normal 0 0 1
    outer loop
      vertex -13 11 16
      vertex -14 11 16
      vertex -13 -15 16
    endloop
  endfacet
  facet normal 0 0 1
    outer loop
      vertex 13 -15 16
      vertex 14 11 16
      vertex 13 11 16
    endloop
  endfacet
  facet normal 0 0 1
    outer loop
      vertex 14 11 16
      vertex 13 -15 16
      vertex 14 -17 16
    endloop
  endfacet
  facet normal -0 0 1
    outer loop
      vertex 7 -15 16
      vertex 14 -17 16
      vertex 13 -15 16
    endloop
  endfacet
  facet normal -0 0 1
    outer loop
      vertex -7 -15 16
      vertex 14 -17 16
      vertex 7 -15 16
    endloop
  endfacet
  facet normal 0 0 1
    outer loop
      vertex -14 -17 16
      vertex -7 -15 16
      vertex -13 -15 16
    endloop
  endfacet
  facet normal 0 0 1
    outer loop
      vertex -7 -15 16
      vertex -14 -17 16
      vertex 14 -17 16
    endloop
  endfacet
  facet normal 0 0 1
    outer loop
      vertex -14 -17 16
      vertex -13 -15 16
      vertex -14 11 16
    endloop
  endfacet
  facet normal 0 0 -1
    outer loop
      vertex -7 -15 16
      vertex 7 -11 16
      vertex 7 -15 16
    endloop
  endfacet
  facet normal -0 0 -1
    outer loop
      vertex 7 -11 16
      vertex -7 -15 16
      vertex -7 -11 16
    endloop
  endfacet
  facet normal 1 -0 0
    outer loop
      vertex 14 -17 16
      vertex 14 11 2
      vertex 14 11 16
    endloop
  endfacet
  facet normal 1 0 0
    outer loop
      vertex 14 11 2
      vertex 14 -17 16
      vertex 14 -17 2
    endloop
  endfacet
  facet normal 0 1 0
    outer loop
      vertex 14 11 16
      vertex 14 11 2
      vertex 13 11 16
    endloop
  endfacet
  facet normal 0 1 -0
    outer loop
      vertex 13 11 16
      vertex 7 11 30
      vertex 13 11 30
    endloop
  endfacet
  facet normal 0 1 0
    outer loop
      vertex 7 11 2
      vertex 13 11 16
      vertex 14 11 2
    endloop
  endfacet
  facet normal 0 1 0
    outer loop
      vertex 13 11 16
      vertex 7 11 2
      vertex 7 11 30
    endloop
  endfacet
  facet normal 0 1 0
    outer loop
      vertex -7 11 30
      vertex -13 11 16
      vertex -13 11 30
    endloop
  endfacet
  facet normal 0 1 -0
    outer loop
      vertex -7 11 2
      vertex -13 11 16
      vertex -7 11 30
    endloop
  endfacet
  facet normal 0 1 0
    outer loop
      vertex -14 11 2
      vertex -13 11 16
      vertex -7 11 2
    endloop
  endfacet
  facet normal 0 1 0
    outer loop
      vertex -13 11 16
      vertex -14 11 2
      vertex -14 11 16
    endloop
  endfacet
  facet normal 0 0 1
    outer loop
      vertex -6.5 20 2
      vertex -7 11 2
      vertex -6.5 -8 2
    endloop
  endfacet
  facet normal 0 0 1
    outer loop
      vertex -6.5 20 2
      vertex -14 11 2
      vertex -7 11 2
    endloop
  endfacet
  facet normal 0 0 1
    outer loop
      vertex -15 -2 2
      vertex -14 11 2
      vertex -15 7 2
    endloop
  endfacet
  facet normal -0 0 1
    outer loop
      vertex -19 20 2
      vertex -14 11 2
      vertex -6.5 20 2
    endloop
  endfacet
  facet normal 0 0 1
    outer loop
      vertex -19 7 2
      vertex -14 11 2
      vertex -19 20 2
    endloop
  endfacet
  facet normal 0 0 1
    outer loop
      vertex -14 11 2
      vertex -19 7 2
      vertex -15 7 2
    endloop
  endfacet
  facet normal -0 0 1
    outer loop
      vertex 14 11 2
      vertex 19 7 2
      vertex 19 20 2
    endloop
  endfacet
  facet normal 0 0 1
    outer loop
      vertex 15 7 2
      vertex 14 11 2
      vertex 15 -2 2
    endloop
  endfacet
  facet normal 0 0 1
    outer loop
      vertex 19 7 2
      vertex 14 11 2
      vertex 15 7 2
    endloop
  endfacet
  facet normal -0 0 1
    outer loop
      vertex 6.5 20 2
      vertex 14 11 2
      vertex 19 20 2
    endloop
  endfacet
  facet normal 0 0 1
    outer loop
      vertex 14 11 2
      vertex 6.5 20 2
      vertex 7 11 2
    endloop
  endfacet
  facet normal 0 0 1
    outer loop
      vertex 6.5 -8 2
      vertex 7 11 2
      vertex 6.5 20 2
    endloop
  endfacet
  facet normal 0 0 1
    outer loop
      vertex 7 11 2
      vertex 6.5 -8 2
      vertex 7 -15 2
    endloop
  endfacet
  facet normal -0 0 1
    outer loop
      vertex -6.5 -8 2
      vertex 7 -15 2
      vertex 6.5 -8 2
    endloop
  endfacet
  facet normal 0 0 1
    outer loop
      vertex -6.5 -8 2
      vertex -7 -15 2
      vertex 7 -15 2
    endloop
  endfacet
  facet normal 0 0 1
    outer loop
      vertex -7 -15 2
      vertex -6.5 -8 2
      vertex -7 11 2
    endloop
  endfacet
  facet normal 0 0 1
    outer loop
      vertex 14 -17 2
      vertex 19 -2 2
      vertex 15 -2 2
    endloop
  endfacet
  facet normal 0 0 1
    outer loop
      vertex 14 -17 2
      vertex 15 -2 2
      vertex 14 11 2
    endloop
  endfacet
  facet normal 0 0 1
    outer loop
      vertex 19 -2 2
      vertex 14 -17 2
      vertex 19 -20 2
    endloop
  endfacet
  facet normal -0 0 1
    outer loop
      vertex -14 -17 2
      vertex 19 -20 2
      vertex 14 -17 2
    endloop
  endfacet
  facet normal 0 0 1
    outer loop
      vertex -14 11 2
      vertex -15 -2 2
      vertex -14 -17 2
    endloop
  endfacet
  facet normal -0 0 1
    outer loop
      vertex -19 -2 2
      vertex -14 -17 2
      vertex -15 -2 2
    endloop
  endfacet
  facet normal 0 0 1
    outer loop
      vertex -14 -17 2
      vertex -19 -20 2
      vertex 19 -20 2
    endloop
  endfacet
  facet normal 0 0 1
    outer loop
      vertex -19 -20 2
      vertex -14 -17 2
      vertex -19 -2 2
    endloop
  endfacet
  facet normal 0 -1 0
    outer loop
      vertex -14 -17 2
      vertex 14 -17 16
      vertex -14 -17 16
    endloop
  endfacet
  facet normal 0 -1 -0
    outer loop
      vertex 14 -17 16
      vertex -14 -17 2
      vertex 14 -17 2
    endloop
  endfacet
  facet normal 1 0 0
    outer loop
      vertex -7 0.799999 30
      vertex -7 -11 30
      vertex -7 0.799999 17
    endloop
  endfacet
  facet normal 1 0 0
    outer loop
      vertex -7 1.8 30
      vertex -7 1.2 30
      vertex -7 1.8 17
    endloop
  endfacet
  facet normal 1 0 0
    outer loop
      vertex -7 2.8 30
      vertex -7 2.2 30
      vertex -7 2.8 17
    endloop
  endfacet
  facet normal 1 0 0
    outer loop
      vertex -7 3.8 30
      vertex -7 3.2 30
      vertex -7 3.8 17
    endloop
  endfacet
  facet normal 1 0 0
    outer loop
      vertex -7 4.2 17
      vertex -7 11 30
      vertex -7 4.2 30
    endloop
  endfacet
  facet normal 1 0 0
    outer loop
      vertex -7 11 30
      vertex -7 4.2 17
      vertex -7 11 2
    endloop
  endfacet
  facet normal 1 -0 0
    outer loop
      vertex -7 3.8 17
      vertex -7 11 2
      vertex -7 4.2 17
    endloop
  endfacet
  facet normal 1 0 0
    outer loop
      vertex -7 3.2 17
      vertex -7 3.8 17
      vertex -7 3.2 30
    endloop
  endfacet
  facet normal 1 -0 0
    outer loop
      vertex -7 3.2 17
      vertex -7 11 2
      vertex -7 3.8 17
    endloop
  endfacet
  facet normal 1 -0 0
    outer loop
      vertex -7 2.8 17
      vertex -7 11 2
      vertex -7 3.2 17
    endloop
  endfacet
  facet normal 1 0 0
    outer loop
      vertex -7 2.2 17
      vertex -7 2.8 17
      vertex -7 2.2 30
    endloop
  endfacet
  facet normal 1 -0 0
    outer loop
      vertex -7 2.2 17
      vertex -7 11 2
      vertex -7 2.8 17
    endloop
  endfacet
  facet normal 1 -0 0
    outer loop
      vertex -7 1.8 17
      vertex -7 11 2
      vertex -7 2.2 17
    endloop
  endfacet
  facet normal 1 0 0
    outer loop
      vertex -7 1.2 17
      vertex -7 1.8 17
      vertex -7 1.2 30
    endloop
  endfacet
  facet normal 1 -0 0
    outer loop
      vertex -7 1.2 17
      vertex -7 11 2
      vertex -7 1.8 17
    endloop
  endfacet
  facet normal 1 -0 0
    outer loop
      vertex -7 0.799999 17
      vertex -7 11 2
      vertex -7 1.2 17
    endloop
  endfacet
  facet normal 1 0 0
    outer loop
      vertex -7 -11 16
      vertex -7 0.799999 17
      vertex -7 -11 30
    endloop
  endfacet
  facet normal 1 0 0
    outer loop
      vertex -7 -15 2
      vertex -7 0.799999 17
      vertex -7 -11 16
    endloop
  endfacet
  facet normal 1 0 0
    outer loop
      vertex -7 -15 2
      vertex -7 -11 16
      vertex -7 -15 16
    endloop
  endfacet
  facet normal 1 0 0
    outer loop
      vertex -7 0.799999 17
      vertex -7 -15 2
      vertex -7 11 2
    endloop
  endfacet
  facet normal -1 0 0
    outer loop
      vertex 7 11 2
      vertex 7 4.2 17
      vertex 7 11 30
    endloop
  endfacet
  facet normal -1 0 0
    outer loop
      vertex 7 11 2
      vertex 7 3.8 17
      vertex 7 4.2 17
    endloop
  endfacet
  facet normal -1 0 0
    outer loop
      vertex 7 3.8 17
      vertex 7 3.2 17
      vertex 7 3.8 30
    endloop
  endfacet
  facet normal -1 0 0
    outer loop
      vertex 7 11 2
      vertex 7 3.2 17
      vertex 7 3.8 17
    endloop
  endfacet
  facet normal -1 0 0
    outer loop
      vertex 7 11 2
      vertex 7 2.8 17
      vertex 7 3.2 17
    endloop
  endfacet
  facet normal -1 0 0
    outer loop
      vertex 7 2.8 17
      vertex 7 2.2 17
      vertex 7 2.8 30
    endloop
  endfacet
  facet normal -1 0 0
    outer loop
      vertex 7 11 2
      vertex 7 2.2 17
      vertex 7 2.8 17
    endloop
  endfacet
  facet normal -1 0 0
    outer loop
      vertex 7 11 2
      vertex 7 1.8 17
      vertex 7 2.2 17
    endloop
  endfacet
  facet normal -1 0 0
    outer loop
      vertex 7 1.8 17
      vertex 7 1.2 17
      vertex 7 1.8 30
    endloop
  endfacet
  facet normal -1 0 0
    outer loop
      vertex 7 11 2
      vertex 7 1.2 17
      vertex 7 1.8 17
    endloop
  endfacet
  facet normal -1 0 0
    outer loop
      vertex 7 11 2
      vertex 7 0.799999 17
      vertex 7 1.2 17
    endloop
  endfacet
  facet normal -1 0 0
    outer loop
      vertex 7 -11 30
      vertex 7 0.799999 17
      vertex 7 -11 16
    endloop
  endfacet
  facet normal -1 0 0
    outer loop
      vertex 7 -15 2
      vertex 7 0.799999 17
      vertex 7 11 2
    endloop
  endfacet
  facet normal -1 0 0
    outer loop
      vertex 7 0.799999 17
      vertex 7 -15 2
      vertex 7 -11 16
    endloop
  endfacet
  facet normal -1 -0 0
    outer loop
      vertex 7 -11 16
      vertex 7 -15 2
      vertex 7 -15 16
    endloop
  endfacet
  facet normal -1 -0 0
    outer loop
      vertex 7 11 30
      vertex 7 4.2 17
      vertex 7 4.2 30
    endloop
  endfacet
  facet normal -1 -0 0
    outer loop
      vertex 7 3.8 30
      vertex 7 3.2 17
      vertex 7 3.2 30
    endloop
  endfacet
  facet normal -1 -0 0
    outer loop
      vertex 7 2.8 30
      vertex 7 2.2 17
      vertex 7 2.2 30
    endloop
  endfacet
  facet normal -1 -0 0
    outer loop
      vertex 7 1.8 30
      vertex 7 1.2 17
      vertex 7 1.2 30
    endloop
  endfacet
  facet normal -1 0 0
    outer loop
      vertex 7 0.799999 17
      vertex 7 -11 30
      vertex 7 0.799999 30
    endloop
  endfacet
  facet normal 0 1 -0
    outer loop
      vertex 7 -15 2
      vertex -7 -15 16
      vertex 7 -15 16
    endloop
  endfacet
  facet normal 0 1 0
    outer loop
      vertex -7 -15 16
      vertex 7 -15 2
      vertex -7 -15 2
    endloop
  endfacet
  facet normal 0 -1 0
    outer loop
      vertex -13 1.2 17
      vertex -7 1.2 30
      vertex -13 1.2 30
    endloop
  endfacet
  facet normal 0 -1 -0
    outer loop
      vertex -7 1.2 30
      vertex -13 1.2 17
      vertex -7 1.2 17
    endloop
  endfacet
  facet normal 0 -1 0
    outer loop
      vertex 7 1.2 17
      vertex 13 1.2 30
      vertex 7 1.2 30
    endloop
  endfacet
  facet normal 0 -1 -0
    outer loop
      vertex 13 1.2 30
      vertex 7 1.2 17
      vertex 13 1.2 17
    endloop
  endfacet
  facet normal -0 0 1
    outer loop
      vertex -13 1.2 17
      vertex -7 0.799999 17
      vertex -7 1.2 17
    endloop
  endfacet
  facet normal 0 0 1
    outer loop
      vertex -7 0.799999 17
      vertex -13 1.2 17
      vertex -13 0.799999 17
    endloop
  endfacet
  facet normal -0 0 1
    outer loop
      vertex 7 1.2 17
      vertex 13 0.799999 17
      vertex 13 1.2 17
    endloop
  endfacet
  facet normal 0 0 1
    outer loop
      vertex 13 0.799999 17
      vertex 7 1.2 17
      vertex 7 0.799999 17
    endloop
  endfacet
  facet normal 0 1 -0
    outer loop
      vertex -7 0.799999 17
      vertex -13 0.799999 30
      vertex -7 0.799999 30
    endloop
  endfacet
  facet normal 0 1 0
    outer loop
      vertex -13 0.799999 30
      vertex -7 0.799999 17
      vertex -13 0.799999 17
    endloop
  endfacet
  facet normal 0 1 -0
    outer loop
      vertex 13 0.799999 17
      vertex 7 0.799999 30
      vertex 13 0.799999 30
    endloop
  endfacet
  facet normal 0 1 0
    outer loop
      vertex 7 0.799999 30
      vertex 13 0.799999 17
      vertex 7 0.799999 17
    endloop
  endfacet
  facet normal 0 -1 0
    outer loop
      vertex -13 2.2 17
      vertex -7 2.2 30
      vertex -13 2.2 30
    endloop
  endfacet
  facet normal 0 -1 -0
    outer loop
      vertex -7 2.2 30
      vertex -13 2.2 17
      vertex -7 2.2 17
    endloop
  endfacet
  facet normal 0 -1 0
    outer loop
      vertex 7 2.2 17
      vertex 13 2.2 30
      vertex 7 2.2 30
    endloop
  endfacet
  facet normal 0 -1 -0
    outer loop
      vertex 13 2.2 30
      vertex 7 2.2 17
      vertex 13 2.2 17
    endloop
  endfacet
  facet normal -0 0 1
    outer loop
      vertex -13 2.2 17
      vertex -7 1.8 17
      vertex -7 2.2 17
    endloop
  endfacet
  facet normal 0 0 1
    outer loop
      vertex -7 1.8 17
      vertex -13 2.2 17
      vertex -13 1.8 17
    endloop
  endfacet
  facet normal -0 0 1
    outer loop
      vertex 7 2.2 17
      vertex 13 1.8 17
      vertex 13 2.2 17
    endloop
  endfacet
  facet normal 0 0 1
    outer loop
      vertex 13 1.8 17
      vertex 7 2.2 17
      vertex 7 1.8 17
    endloop
  endfacet
  facet normal 0 1 -0
    outer loop
      vertex -7 1.8 17
      vertex -13 1.8 30
      vertex -7 1.8 30
    endloop
  endfacet
  facet normal 0 1 0
    outer loop
      vertex -13 1.8 30
      vertex -7 1.8 17
      vertex -13 1.8 17
    endloop
  endfacet
  facet normal 0 1 -0
    outer loop
      vertex 13 1.8 17
      vertex 7 1.8 30
      vertex 13 1.8 30
    endloop
  endfacet
  facet normal 0 1 0
    outer loop
      vertex 7 1.8 30
      vertex 13 1.8 17
      vertex 7 1.8 17
    endloop
  endfacet
  facet normal 0 -1 0
    outer loop
      vertex -13 3.2 17
      vertex -7 3.2 30
      vertex -13 3.2 30
    endloop
  endfacet
  facet normal 0 -1 -0
    outer loop
      vertex -7 3.2 30
      vertex -13 3.2 17
      vertex -7 3.2 17
    endloop
  endfacet
  facet normal 0 -1 0
    outer loop
      vertex 7 3.2 17
      vertex 13 3.2 30
      vertex 7 3.2 30
    endloop
  endfacet
  facet normal 0 -1 -0
    outer loop
      vertex 13 3.2 30
      vertex 7 3.2 17
      vertex 13 3.2 17
    endloop
  endfacet
  facet normal -0 0 1
    outer loop
      vertex -13 3.2 17
      vertex -7 2.8 17
      vertex -7 3.2 17
    endloop
  endfacet
  facet normal 0 0 1
    outer loop
      vertex -7 2.8 17
      vertex -13 3.2 17
      vertex -13 2.8 17
    endloop
  endfacet
  facet normal -0 0 1
    outer loop
      vertex 7 3.2 17
      vertex 13 2.8 17
      vertex 13 3.2 17
    endloop
  endfacet
  facet normal 0 0 1
    outer loop
      vertex 13 2.8 17
      vertex 7 3.2 17
      vertex 7 2.8 17
    endloop
  endfacet
  facet normal 0 1 -0
    outer loop
      vertex -7 2.8 17
      vertex -13 2.8 30
      vertex -7 2.8 30
    endloop
  endfacet
  facet normal 0 1 0
    outer loop
      vertex -13 2.8 30
      vertex -7 2.8 17
      vertex -13 2.8 17
    endloop
  endfacet
  facet normal 0 1 -0
    outer loop
      vertex 13 2.8 17
      vertex 7 2.8 30
      vertex 13 2.8 30
    endloop
  endfacet
  facet normal 0 1 0
    outer loop
      vertex 7 2.8 30
      vertex 13 2.8 17
      vertex 7 2.8 17
    endloop
  endfacet
  facet normal -0 0 1
    outer loop
      vertex -13 4.2 17
      vertex -7 3.8 17
      vertex -7 4.2 17
    endloop
  endfacet
  facet normal 0 0 1
    outer loop
      vertex -7 3.8 17
      vertex -13 4.2 17
      vertex -13 3.8 17
    endloop
  endfacet
  facet normal -0 0 1
    outer loop
      vertex 7 4.2 17
      vertex 13 3.8 17
      vertex 13 4.2 17
    endloop
  endfacet
  facet normal 0 0 1
    outer loop
      vertex 13 3.8 17
      vertex 7 4.2 17
      vertex 7 3.8 17
    endloop
  endfacet
  facet normal 0 1 -0
    outer loop
      vertex -7 3.8 17
      vertex -13 3.8 30
      vertex -7 3.8 30
    endloop
  endfacet
  facet normal 0 1 0
    outer loop
      vertex -13 3.8 30
      vertex -7 3.8 17
      vertex -13 3.8 17
    endloop
  endfacet
  facet normal 0 1 -0
    outer loop
      vertex 13 3.8 17
      vertex 7 3.8 30
      vertex 13 3.8 30
    endloop
  endfacet
  facet normal 0 1 0
    outer loop
      vertex 7 3.8 30
      vertex 13 3.8 17
      vertex 7 3.8 17
    endloop
  endfacet
  facet normal 0 -1 0
    outer loop
      vertex -13 4.2 17
      vertex -7 4.2 30
      vertex -13 4.2 30
    endloop
  endfacet
  facet normal 0 -1 -0
    outer loop
      vertex -7 4.2 30
      vertex -13 4.2 17
      vertex -7 4.2 17
    endloop
  endfacet
  facet normal 0 -1 0
    outer loop
      vertex 7 4.2 17
      vertex 13 4.2 30
      vertex 7 4.2 30
    endloop
  endfacet
  facet normal 0 -1 -0
    outer loop
      vertex 13 4.2 30
      vertex 7 4.2 17
      vertex 13 4.2 17
    endloop
  endfacet
  facet normal -1 0 0
    outer loop
      vertex -13 11 16
      vertex -13 4.2 17
      vertex -13 11 30
    endloop
  endfacet
  facet normal -1 0 0
    outer loop
      vertex -13 11 16
      vertex -13 3.8 17
      vertex -13 4.2 17
    endloop
  endfacet
  facet normal -1 0 0
    outer loop
      vertex -13 3.8 17
      vertex -13 3.2 17
      vertex -13 3.8 30
    endloop
  endfacet
  facet normal -1 0 0
    outer loop
      vertex -13 11 16
      vertex -13 3.2 17
      vertex -13 3.8 17
    endloop
  endfacet
  facet normal -1 0 0
    outer loop
      vertex -13 11 16
      vertex -13 2.8 17
      vertex -13 3.2 17
    endloop
  endfacet
  facet normal -1 0 0
    outer loop
      vertex -13 2.8 17
      vertex -13 2.2 17
      vertex -13 2.8 30
    endloop
  endfacet
  facet normal -1 0 0
    outer loop
      vertex -13 11 16
      vertex -13 2.2 17
      vertex -13 2.8 17
    endloop
  endfacet
  facet normal -1 0 0
    outer loop
      vertex -13 11 16
      vertex -13 1.8 17
      vertex -13 2.2 17
    endloop
  endfacet
  facet normal -1 0 0
    outer loop
      vertex -13 1.8 17
      vertex -13 1.2 17
      vertex -13 1.8 30
    endloop
  endfacet
  facet normal -1 0 0
    outer loop
      vertex -13 11 16
      vertex -13 1.2 17
      vertex -13 1.8 17
    endloop
  endfacet
  facet normal -1 0 0
    outer loop
      vertex -13 11 16
      vertex -13 0.799999 17
      vertex -13 1.2 17
    endloop
  endfacet
  facet normal -1 0 0
    outer loop
      vertex -13 -15 16
      vertex -13 0.799999 17
      vertex -13 11 16
    endloop
  endfacet
  facet normal -1 0 0
    outer loop
      vertex -13 -15 30
      vertex -13 0.799999 17
      vertex -13 -15 16
    endloop
  endfacet
  facet normal -1 0 0
    outer loop
      vertex -13 0.799999 17
      vertex -13 -15 30
      vertex -13 0.799999 30
    endloop
  endfacet
  facet normal -1 -0 0
    outer loop
      vertex -13 11 30
      vertex -13 4.2 17
      vertex -13 4.2 30
    endloop
  endfacet
  facet normal -1 -0 0
    outer loop
      vertex -13 3.8 30
      vertex -13 3.2 17
      vertex -13 3.2 30
    endloop
  endfacet
  facet normal -1 -0 0
    outer loop
      vertex -13 2.8 30
      vertex -13 2.2 17
      vertex -13 2.2 30
    endloop
  endfacet
  facet normal -1 -0 0
    outer loop
      vertex -13 1.8 30
      vertex -13 1.2 17
      vertex -13 1.2 30
    endloop
  endfacet
  facet normal 0 0 1
    outer loop
      vertex -7 0.799999 30
      vertex -13 0.799999 30
      vertex -7 -11 30
    endloop
  endfacet
  facet normal 0 0 1
    outer loop
      vertex 7 -11 30
      vertex 13 0.799999 30
      vertex 7 0.799999 30
    endloop
  endfacet
  facet normal 0 0 1
    outer loop
      vertex 13 0.799999 30
      vertex 7 -11 30
      vertex 13 -15 30
    endloop
  endfacet
  facet normal -0 0 1
    outer loop
      vertex -7 -11 30
      vertex 13 -15 30
      vertex 7 -11 30
    endloop
  endfacet
  facet normal 0 0 1
    outer loop
      vertex -7 -11 30
      vertex -13 -15 30
      vertex 13 -15 30
    endloop
  endfacet
  facet normal 0 0 1
    outer loop
      vertex -13 -15 30
      vertex -7 -11 30
      vertex -13 0.799999 30
    endloop
  endfacet
  facet normal -0 0 1
    outer loop
      vertex 7 11 30
      vertex 13 4.2 30
      vertex 13 11 30
    endloop
  endfacet
  facet normal 0 0 1
    outer loop
      vertex 13 4.2 30
      vertex 7 11 30
      vertex 7 4.2 30
    endloop
  endfacet
  facet normal -0 0 1
    outer loop
      vertex -13 11 30
      vertex -7 4.2 30
      vertex -7 11 30
    endloop
  endfacet
  facet normal 0 0 1
    outer loop
      vertex -7 4.2 30
      vertex -13 11 30
      vertex -13 4.2 30
    endloop
  endfacet
  facet normal -0 0 1
    outer loop
      vertex -13 1.8 30
      vertex -7 1.2 30
      vertex -7 1.8 30
    endloop
  endfacet
  facet normal 0 0 1
    outer loop
      vertex -7 1.2 30
      vertex -13 1.8 30
      vertex -13 1.2 30
    endloop
  endfacet
  facet normal -0 0 1
    outer loop
      vertex 7 1.8 30
      vertex 13 1.2 30
      vertex 13 1.8 30
    endloop
  endfacet
  facet normal 0 0 1
    outer loop
      vertex 13 1.2 30
      vertex 7 1.8 30
      vertex 7 1.2 30
    endloop
  endfacet
  facet normal -0 0 1
    outer loop
      vertex -13 2.8 30
      vertex -7 2.2 30
      vertex -7 2.8 30
    endloop
  endfacet
  facet normal 0 0 1
    outer loop
      vertex -7 2.2 30
      vertex -13 2.8 30
      vertex -13 2.2 30
    endloop
  endfacet
  facet normal -0 0 1
    outer loop
      vertex 7 2.8 30
      vertex 13 2.2 30
      vertex 13 2.8 30
    endloop
  endfacet
  facet normal 0 0 1
    outer loop
      vertex 13 2.2 30
      vertex 7 2.8 30
      vertex 7 2.2 30
    endloop
  endfacet
  facet normal -0 0 1
    outer loop
      vertex -13 3.8 30
      vertex -7 3.2 30
      vertex -7 3.8 30
    endloop
  endfacet
  facet normal 0 0 1
    outer loop
      vertex -7 3.2 30
      vertex -13 3.8 30
      vertex -13 3.2 30
    endloop
  endfacet
  facet normal -0 0 1
    outer loop
      vertex 7 3.8 30
      vertex 13 3.2 30
      vertex 13 3.8 30
    endloop
  endfacet
  facet normal 0 0 1
    outer loop
      vertex 13 3.2 30
      vertex 7 3.8 30
      vertex 7 3.2 30
    endloop
  endfacet
  facet normal 1 0 0
    outer loop
      vertex 13 0.799999 30
      vertex 13 -15 30
      vertex 13 0.799999 17
    endloop
  endfacet
  facet normal 1 0 0
    outer loop
      vertex 13 1.8 30
      vertex 13 1.2 30
      vertex 13 1.8 17
    endloop
  endfacet
  facet normal 1 0 0
    outer loop
      vertex 13 2.8 30
      vertex 13 2.2 30
      vertex 13 2.8 17
    endloop
  endfacet
  facet normal 1 0 0
    outer loop
      vertex 13 3.8 30
      vertex 13 3.2 30
      vertex 13 3.8 17
    endloop
  endfacet
  facet normal 1 0 0
    outer loop
      vertex 13 4.2 17
      vertex 13 11 30
      vertex 13 4.2 30
    endloop
  endfacet
  facet normal 1 0 0
    outer loop
      vertex 13 11 30
      vertex 13 4.2 17
      vertex 13 11 16
    endloop
  endfacet
  facet normal 1 -0 0
    outer loop
      vertex 13 3.8 17
      vertex 13 11 16
      vertex 13 4.2 17
    endloop
  endfacet
  facet normal 1 0 0
    outer loop
      vertex 13 3.2 17
      vertex 13 3.8 17
      vertex 13 3.2 30
    endloop
  endfacet
  facet normal 1 -0 0
    outer loop
      vertex 13 3.2 17
      vertex 13 11 16
      vertex 13 3.8 17
    endloop
  endfacet
  facet normal 1 -0 0
    outer loop
      vertex 13 2.8 17
      vertex 13 11 16
      vertex 13 3.2 17
    endloop
  endfacet
  facet normal 1 0 0
    outer loop
      vertex 13 2.2 17
      vertex 13 2.8 17
      vertex 13 2.2 30
    endloop
  endfacet
  facet normal 1 -0 0
    outer loop
      vertex 13 2.2 17
      vertex 13 11 16
      vertex 13 2.8 17
    endloop
  endfacet
  facet normal 1 -0 0
    outer loop
      vertex 13 1.8 17
      vertex 13 11 16
      vertex 13 2.2 17
    endloop
  endfacet
  facet normal 1 0 0
    outer loop
      vertex 13 1.2 17
      vertex 13 1.8 17
      vertex 13 1.2 30
    endloop
  endfacet
  facet normal 1 -0 0
    outer loop
      vertex 13 1.2 17
      vertex 13 11 16
      vertex 13 1.8 17
    endloop
  endfacet
  facet normal 1 -0 0
    outer loop
      vertex 13 0.799999 17
      vertex 13 11 16
      vertex 13 1.2 17
    endloop
  endfacet
  facet normal 1 0 0
    outer loop
      vertex 13 0.799999 17
      vertex 13 -15 16
      vertex 13 11 16
    endloop
  endfacet
  facet normal 1 0 0
    outer loop
      vertex 13 -15 16
      vertex 13 0.799999 17
      vertex 13 -15 30
    endloop
  endfacet
  facet normal 0 -1 0
    outer loop
      vertex -7 -15 16
      vertex -13 -15 30
      vertex -13 -15 16
    endloop
  endfacet
  facet normal 0 -1 0
    outer loop
      vertex -13 -15 30
      vertex -7 -15 16
      vertex 13 -15 30
    endloop
  endfacet
  facet normal 0 -1 0
    outer loop
      vertex 7 -15 16
      vertex 13 -15 30
      vertex -7 -15 16
    endloop
  endfacet
  facet normal 0 -1 -0
    outer loop
      vertex 13 -15 30
      vertex 7 -15 16
      vertex 13 -15 16
    endloop
  endfacet
  facet normal 0 1 -0
    outer loop
      vertex 7 -11 16
      vertex -7 -11 30
      vertex 7 -11 30
    endloop
  endfacet
  facet normal 0 1 0
    outer loop
      vertex -7 -11 30
      vertex 7 -11 16
      vertex -7 -11 16
    endloop
  endfacet
  facet normal -1 0 0
    outer loop
      vertex -19 20 -2
      vertex -19 7 2
      vertex -19 20 2
    endloop
  endfacet
  facet normal -1 0 0
    outer loop
      vertex -19 7 2
      vertex -19 5 16
      vertex -19 7 30
    endloop
  endfacet
  facet normal -1 0 0
    outer loop
      vertex -19 7 2
      vertex -19 0 16
      vertex -19 5 16
    endloop
  endfacet
  facet normal -1 0 0
    outer loop
      vertex -19 -2 30
      vertex -19 0 16
      vertex -19 -2 2
    endloop
  endfacet
  facet normal -1 0 0
    outer loop
      vertex -19 7 2
      vertex -19 -2 2
      vertex -19 0 16
    endloop
  endfacet
  facet normal -1 0 0
    outer loop
      vertex -19 20 -2
      vertex -19 -2 2
      vertex -19 7 2
    endloop
  endfacet
  facet normal -1 0 0
    outer loop
      vertex -19 -20 -2
      vertex -19 -2 2
      vertex -19 20 -2
    endloop
  endfacet
  facet normal -1 -0 0
    outer loop
      vertex -19 -2 2
      vertex -19 -20 -2
      vertex -19 -20 2
    endloop
  endfacet
  facet normal -1 -0 0
    outer loop
      vertex -19 7 30
      vertex -19 5 16
      vertex -19 5 30
    endloop
  endfacet
  facet normal -1 0 0
    outer loop
      vertex -19 0 16
      vertex -19 -2 30
      vertex -19 0 30
    endloop
  endfacet
  facet normal -0 0 1
    outer loop
      vertex -19 5 16
      vertex -15 0 16
      vertex -15 5 16
    endloop
  endfacet
  facet normal 0 0 1
    outer loop
      vertex -15 0 16
      vertex -19 5 16
      vertex -19 0 16
    endloop
  endfacet
  facet normal 1 0 0
    outer loop
      vertex -15 0 30
      vertex -15 -2 30
      vertex -15 0 16
    endloop
  endfacet
  facet normal 1 0 0
    outer loop
      vertex -15 5 16
      vertex -15 7 30
      vertex -15 5 30
    endloop
  endfacet
  facet normal 1 0 0
    outer loop
      vertex -15 7 30
      vertex -15 5 16
      vertex -15 7 2
    endloop
  endfacet
  facet normal 1 -0 0
    outer loop
      vertex -15 0 16
      vertex -15 7 2
      vertex -15 5 16
    endloop
  endfacet
  facet normal 1 0 0
    outer loop
      vertex -15 0 16
      vertex -15 -2 2
      vertex -15 7 2
    endloop
  endfacet
  facet normal 1 0 0
    outer loop
      vertex -15 -2 2
      vertex -15 0 16
      vertex -15 -2 30
    endloop
  endfacet
  facet normal 0 1 -0
    outer loop
      vertex -15 7 2
      vertex -19 7 30
      vertex -15 7 30
    endloop
  endfacet
  facet normal 0 1 0
    outer loop
      vertex -19 7 30
      vertex -15 7 2
      vertex -19 7 2
    endloop
  endfacet
  facet normal 0 -1 0
    outer loop
      vertex -19 -2 2
      vertex -15 -2 30
      vertex -19 -2 30
    endloop
  endfacet
  facet normal 0 -1 -0
    outer loop
      vertex -15 -2 30
      vertex -19 -2 2
      vertex -15 -2 2
    endloop
  endfacet
  facet normal -0 0 1
    outer loop
      vertex -19 7 30
      vertex -15 5 30
      vertex -15 7 30
    endloop
  endfacet
  facet normal 0 0 1
    outer loop
      vertex -15 5 30
      vertex -19 7 30
      vertex -19 5 30
    endloop
  endfacet
  facet normal 0 -1 0
    outer loop
      vertex -19 5 16
      vertex -15 5 30
      vertex -19 5 30
    endloop
  endfacet
  facet normal 0 -1 -0
    outer loop
      vertex -15 5 30
      vertex -19 5 16
      vertex -15 5 16
    endloop
  endfacet
  facet normal -0 0 1
    outer loop
      vertex -19 0 30
      vertex -15 -2 30
      vertex -15 0 30
    endloop
  endfacet
  facet normal 0 0 1
    outer loop
      vertex -15 -2 30
      vertex -19 0 30
      vertex -19 -2 30
    endloop
  endfacet
  facet normal 0 1 -0
    outer loop
      vertex -15 0 16
      vertex -19 0 30
      vertex -15 0 30
    endloop
  endfacet
  facet normal 0 1 0
    outer loop
      vertex -19 0 30
      vertex -15 0 16
      vertex -19 0 16
    endloop
  endfacet
  facet normal -1 0 0
    outer loop
      vertex 15 7 2
      vertex 15 5 16
      vertex 15 7 30
    endloop
  endfacet
  facet normal -1 0 0
    outer loop
      vertex 15 7 2
      vertex 15 0 16
      vertex 15 5 16
    endloop
  endfacet
  facet normal -1 0 0
    outer loop
      vertex 15 -2 2
      vertex 15 0 16
      vertex 15 7 2
    endloop
  endfacet
  facet normal -1 0 0
    outer loop
      vertex 15 -2 30
      vertex 15 0 16
      vertex 15 -2 2
    endloop
  endfacet
  facet normal -1 0 0
    outer loop
      vertex 15 0 16
      vertex 15 -2 30
      vertex 15 0 30
    endloop
  endfacet
  facet normal -1 -0 0
    outer loop
      vertex 15 7 30
      vertex 15 5 16
      vertex 15 5 30
    endloop
  endfacet
  facet normal -0 0 1
    outer loop
      vertex 15 5 16
      vertex 19 0 16
      vertex 19 5 16
    endloop
  endfacet
  facet normal 0 0 1
    outer loop
      vertex 19 0 16
      vertex 15 5 16
      vertex 15 0 16
    endloop
  endfacet
  facet normal 1 0 0
    outer loop
      vertex 19 0 30
      vertex 19 -2 30
      vertex 19 0 16
    endloop
  endfacet
  facet normal 1 0 0
    outer loop
      vertex 19 5 16
      vertex 19 7 30
      vertex 19 5 30
    endloop
  endfacet
  facet normal 1 -0 0
    outer loop
      vertex 19 7 2
      vertex 19 20 -2
      vertex 19 20 2
    endloop
  endfacet
  facet normal 1 0 0
    outer loop
      vertex 19 7 30
      vertex 19 5 16
      vertex 19 7 2
    endloop
  endfacet
  facet normal 1 -0 0
    outer loop
      vertex 19 0 16
      vertex 19 7 2
      vertex 19 5 16
    endloop
  endfacet
  facet normal 1 0 0
    outer loop
      vertex 19 -2 2
      vertex 19 0 16
      vertex 19 -2 30
    endloop
  endfacet
  facet normal 1 0 0
    outer loop
      vertex 19 -2 2
      vertex 19 7 2
      vertex 19 0 16
    endloop
  endfacet
  facet normal 1 -0 0
    outer loop
      vertex 19 -2 2
      vertex 19 20 -2
      vertex 19 7 2
    endloop
  endfacet
  facet normal 1 0 0
    outer loop
      vertex 19 -20 -2
      vertex 19 -2 2
      vertex 19 -20 2
    endloop
  endfacet
  facet normal 1 0 0
    outer loop
      vertex 19 -2 2
      vertex 19 -20 -2
      vertex 19 20 -2
    endloop
  endfacet
  facet normal 0 1 -0
    outer loop
      vertex 19 7 2
      vertex 15 7 30
      vertex 19 7 30
    endloop
  endfacet
  facet normal 0 1 0
    outer loop
      vertex 15 7 30
      vertex 19 7 2
      vertex 15 7 2
    endloop
  endfacet
  facet normal 0 -1 0
    outer loop
      vertex 15 -2 2
      vertex 19 -2 30
      vertex 15 -2 30
    endloop
  endfacet
  facet normal 0 -1 -0
    outer loop
      vertex 19 -2 30
      vertex 15 -2 2
      vertex 19 -2 2
    endloop
  endfacet
  facet normal -0 0 1
    outer loop
      vertex 15 7 30
      vertex 19 5 30
      vertex 19 7 30
    endloop
  endfacet
  facet normal 0 0 1
    outer loop
      vertex 19 5 30
      vertex 15 7 30
      vertex 15 5 30
    endloop
  endfacet
  facet normal 0 -1 0
    outer loop
      vertex 15 5 16
      vertex 19 5 30
      vertex 15 5 30
    endloop
  endfacet
  facet normal 0 -1 -0
    outer loop
      vertex 19 5 30
      vertex 15 5 16
      vertex 19 5 16
    endloop
  endfacet
  facet normal -0 0 1
    outer loop
      vertex 15 0 30
      vertex 19 -2 30
      vertex 19 0 30
    endloop
  endfacet
  facet normal 0 0 1
    outer loop
      vertex 19 -2 30
      vertex 15 0 30
      vertex 15 -2 30
    endloop
  endfacet
  facet normal 0 1 -0
    outer loop
      vertex 19 0 16
      vertex 15 0 30
      vertex 19 0 30
    endloop
  endfacet
  facet normal 0 1 0
    outer loop
      vertex 15 0 30
      vertex 19 0 16
      vertex 15 0 16
    endloop
  endfacet
  facet normal 0 1 -0
    outer loop
      vertex 19 20 -2
      vertex 6.5 20 2
      vertex 19 20 2
    endloop
  endfacet
  facet normal 0 1 0
    outer loop
      vertex 6.5 20 2
      vertex 19 20 -2
      vertex -6.5 20 2
    endloop
  endfacet
  facet normal 0 1 0
    outer loop
      vertex -19 20 -2
      vertex -6.5 20 2
      vertex 19 20 -2
    endloop
  endfacet
  facet normal 0 1 0
    outer loop
      vertex -6.5 20 2
      vertex -19 20 -2
      vertex -19 20 2
    endloop
  endfacet
  facet normal 0 1 -0
    outer loop
      vertex 6.5 20 2
      vertex -6.5 20 17.5
      vertex 6.5 20 17.5
    endloop
  endfacet
  facet normal 0 1 0
    outer loop
      vertex -6.5 20 17.5
      vertex 6.5 20 2
      vertex -6.5 20 2
    endloop
  endfacet
  facet normal 0 0 -1
    outer loop
      vertex -19 -20 -2
      vertex 19 20 -2
      vertex 19 -20 -2
    endloop
  endfacet
  facet normal -0 0 -1
    outer loop
      vertex 19 20 -2
      vertex -19 -20 -2
      vertex -19 20 -2
    endloop
  endfacet
  facet normal 0 -1 0
    outer loop
      vertex -19 -20 -2
      vertex 19 -20 2
      vertex -19 -20 2
    endloop
  endfacet
  facet normal 0 -1 -0
    outer loop
      vertex 19 -20 2
      vertex -19 -20 -2
      vertex 19 -20 -2
    endloop
  endfacet
  facet normal -1 0 0
    outer loop
      vertex -6.5 -8 2
      vertex -6.5 20 17.5
      vertex -6.5 20 2
    endloop
  endfacet
  facet normal -1 -0 0
    outer loop
      vertex -6.5 20 17.5
      vertex -6.5 -8 2
      vertex -6.5 -8 17.5
    endloop
  endfacet
  facet normal -0 0 1
    outer loop
      vertex -6.5 20 17.5
      vertex 6.5 -8 17.5
      vertex 6.5 20 17.5
    endloop
  endfacet
  facet normal 0 0 1
    outer loop
      vertex 6.5 -8 17.5
      vertex -6.5 20 17.5
      vertex -6.5 -8 17.5
    endloop
  endfacet
  facet normal 1 -0 0
    outer loop
      vertex 6.5 -8 17.5
      vertex 6.5 20 2
      vertex 6.5 20 17.5
    endloop
  endfacet
  facet normal 1 0 0
    outer loop
      vertex 6.5 20 2
      vertex 6.5 -8 17.5
      vertex 6.5 -8 2
    endloop
  endfacet
  facet normal 0 -1 0
    outer loop
      vertex -6.5 -8 2
      vertex 6.5 -8 17.5
      vertex -6.5 -8 17.5
    endloop
  endfacet
  facet normal 0 -1 -0
    outer loop
      vertex 6.5 -8 17.5
      vertex -6.5 -8 2
      vertex 6.5 -8 2
    endloop
  endfacet
endsolid OpenSCAD_Model
