solid OpenSCAD_Model
  facet normal 0 -1 0
    outer loop
      vertex -13 1.2 17
      vertex -7 1.2 30
      vertex -13 1.2 30
    endloop
  endfacet
  facet normal 0 -1 -0
    outer loop
      vertex -7 1.2 30
      vertex -13 1.2 17
      vertex -7 1.2 17
    endloop
  endfacet
  facet normal 0 -1 0
    outer loop
      vertex 7 1.2 17
      vertex 13 1.2 30
      vertex 7 1.2 30
    endloop
  endfacet
  facet normal 0 -1 -0
    outer loop
      vertex 13 1.2 30
      vertex 7 1.2 17
      vertex 13 1.2 17
    endloop
  endfacet
  facet normal -0 0 1
    outer loop
      vertex -13 1.2 17
      vertex -7 0.799999 17
      vertex -7 1.2 17
    endloop
  endfacet
  facet normal 0 0 1
    outer loop
      vertex -7 0.799999 17
      vertex -13 1.2 17
      vertex -13 0.799999 17
    endloop
  endfacet
  facet normal -0 0 1
    outer loop
      vertex 7 1.2 17
      vertex 13 0.799999 17
      vertex 13 1.2 17
    endloop
  endfacet
  facet normal 0 0 1
    outer loop
      vertex 13 0.799999 17
      vertex 7 1.2 17
      vertex 7 0.799999 17
    endloop
  endfacet
  facet normal 0 1 -0
    outer loop
      vertex -7 0.799999 17
      vertex -13 0.799999 30
      vertex -7 0.799999 30
    endloop
  endfacet
  facet normal 0 1 0
    outer loop
      vertex -13 0.799999 30
      vertex -7 0.799999 17
      vertex -13 0.799999 17
    endloop
  endfacet
  facet normal 0 1 -0
    outer loop
      vertex 13 0.799999 17
      vertex 7 0.799999 30
      vertex 13 0.799999 30
    endloop
  endfacet
  facet normal 0 1 0
    outer loop
      vertex 7 0.799999 30
      vertex 13 0.799999 17
      vertex 7 0.799999 17
    endloop
  endfacet
  facet normal 0 -1 0
    outer loop
      vertex -13 2.2 17
      vertex -7 2.2 30
      vertex -13 2.2 30
    endloop
  endfacet
  facet normal 0 -1 -0
    outer loop
      vertex -7 2.2 30
      vertex -13 2.2 17
      vertex -7 2.2 17
    endloop
  endfacet
  facet normal 0 -1 0
    outer loop
      vertex 7 2.2 17
      vertex 13 2.2 30
      vertex 7 2.2 30
    endloop
  endfacet
  facet normal 0 -1 -0
    outer loop
      vertex 13 2.2 30
      vertex 7 2.2 17
      vertex 13 2.2 17
    endloop
  endfacet
  facet normal -0 0 1
    outer loop
      vertex -13 2.2 17
      vertex -7 1.8 17
      vertex -7 2.2 17
    endloop
  endfacet
  facet normal 0 0 1
    outer loop
      vertex -7 1.8 17
      vertex -13 2.2 17
      vertex -13 1.8 17
    endloop
  endfacet
  facet normal -0 0 1
    outer loop
      vertex 7 2.2 17
      vertex 13 1.8 17
      vertex 13 2.2 17
    endloop
  endfacet
  facet normal 0 0 1
    outer loop
      vertex 13 1.8 17
      vertex 7 2.2 17
      vertex 7 1.8 17
    endloop
  endfacet
  facet normal 0 1 -0
    outer loop
      vertex -7 1.8 17
      vertex -13 1.8 30
      vertex -7 1.8 30
    endloop
  endfacet
  facet normal 0 1 0
    outer loop
      vertex -13 1.8 30
      vertex -7 1.8 17
      vertex -13 1.8 17
    endloop
  endfacet
  facet normal 0 1 -0
    outer loop
      vertex 13 1.8 17
      vertex 7 1.8 30
      vertex 13 1.8 30
    endloop
  endfacet
  facet normal 0 1 0
    outer loop
      vertex 7 1.8 30
      vertex 13 1.8 17
      vertex 7 1.8 17
    endloop
  endfacet
  facet normal -0 0 1
    outer loop
      vertex -13 3.2 17
      vertex -7 2.8 17
      vertex -7 3.2 17
    endloop
  endfacet
  facet normal 0 0 1
    outer loop
      vertex -7 2.8 17
      vertex -13 3.2 17
      vertex -13 2.8 17
    endloop
  endfacet
  facet normal -0 0 1
    outer loop
      vertex 7 3.2 17
      vertex 13 2.8 17
      vertex 13 3.2 17
    endloop
  endfacet
  facet normal 0 0 1
    outer loop
      vertex 13 2.8 17
      vertex 7 3.2 17
      vertex 7 2.8 17
    endloop
  endfacet
  facet normal 0 1 -0
    outer loop
      vertex -7 2.8 17
      vertex -13 2.8 30
      vertex -7 2.8 30
    endloop
  endfacet
  facet normal 0 1 0
    outer loop
      vertex -13 2.8 30
      vertex -7 2.8 17
      vertex -13 2.8 17
    endloop
  endfacet
  facet normal 0 1 -0
    outer loop
      vertex 13 2.8 17
      vertex 7 2.8 30
      vertex 13 2.8 30
    endloop
  endfacet
  facet normal 0 1 0
    outer loop
      vertex 7 2.8 30
      vertex 13 2.8 17
      vertex 7 2.8 17
    endloop
  endfacet
  facet normal 0 -1 0
    outer loop
      vertex -13 3.2 17
      vertex -7 3.2 30
      vertex -13 3.2 30
    endloop
  endfacet
  facet normal 0 -1 -0
    outer loop
      vertex -7 3.2 30
      vertex -13 3.2 17
      vertex -7 3.2 17
    endloop
  endfacet
  facet normal 0 -1 0
    outer loop
      vertex 7 3.2 17
      vertex 13 3.2 30
      vertex 7 3.2 30
    endloop
  endfacet
  facet normal 0 -1 -0
    outer loop
      vertex 13 3.2 30
      vertex 7 3.2 17
      vertex 13 3.2 17
    endloop
  endfacet
  facet normal 0 -1 0
    outer loop
      vertex -13 4.2 17
      vertex -7 4.2 30
      vertex -13 4.2 30
    endloop
  endfacet
  facet normal 0 -1 -0
    outer loop
      vertex -7 4.2 30
      vertex -13 4.2 17
      vertex -7 4.2 17
    endloop
  endfacet
  facet normal 0 -1 0
    outer loop
      vertex 7 4.2 17
      vertex 13 4.2 30
      vertex 7 4.2 30
    endloop
  endfacet
  facet normal 0 -1 -0
    outer loop
      vertex 13 4.2 30
      vertex 7 4.2 17
      vertex 13 4.2 17
    endloop
  endfacet
  facet normal -0 0 1
    outer loop
      vertex -13 4.2 17
      vertex -7 3.8 17
      vertex -7 4.2 17
    endloop
  endfacet
  facet normal 0 0 1
    outer loop
      vertex -7 3.8 17
      vertex -13 4.2 17
      vertex -13 3.8 17
    endloop
  endfacet
  facet normal -0 0 1
    outer loop
      vertex 7 4.2 17
      vertex 13 3.8 17
      vertex 13 4.2 17
    endloop
  endfacet
  facet normal 0 0 1
    outer loop
      vertex 13 3.8 17
      vertex 7 4.2 17
      vertex 7 3.8 17
    endloop
  endfacet
  facet normal 0 1 -0
    outer loop
      vertex -7 3.8 17
      vertex -13 3.8 30
      vertex -7 3.8 30
    endloop
  endfacet
  facet normal 0 1 0
    outer loop
      vertex -13 3.8 30
      vertex -7 3.8 17
      vertex -13 3.8 17
    endloop
  endfacet
  facet normal 0 1 -0
    outer loop
      vertex 13 3.8 17
      vertex 7 3.8 30
      vertex 13 3.8 30
    endloop
  endfacet
  facet normal 0 1 0
    outer loop
      vertex 7 3.8 30
      vertex 13 3.8 17
      vertex 7 3.8 17
    endloop
  endfacet
  facet normal -1 0 0
    outer loop
      vertex -13 11 16
      vertex -13 4.2 17
      vertex -13 11 30
    endloop
  endfacet
  facet normal -1 0 0
    outer loop
      vertex -13 11 16
      vertex -13 3.8 17
      vertex -13 4.2 17
    endloop
  endfacet
  facet normal -1 0 0
    outer loop
      vertex -13 3.8 17
      vertex -13 3.2 17
      vertex -13 3.8 30
    endloop
  endfacet
  facet normal -1 0 0
    outer loop
      vertex -13 11 16
      vertex -13 3.2 17
      vertex -13 3.8 17
    endloop
  endfacet
  facet normal -1 0 0
    outer loop
      vertex -13 11 16
      vertex -13 2.8 17
      vertex -13 3.2 17
    endloop
  endfacet
  facet normal -1 0 0
    outer loop
      vertex -13 2.8 17
      vertex -13 2.2 17
      vertex -13 2.8 30
    endloop
  endfacet
  facet normal -1 0 0
    outer loop
      vertex -13 11 16
      vertex -13 2.2 17
      vertex -13 2.8 17
    endloop
  endfacet
  facet normal -1 0 0
    outer loop
      vertex -13 11 16
      vertex -13 1.8 17
      vertex -13 2.2 17
    endloop
  endfacet
  facet normal -1 0 0
    outer loop
      vertex -13 1.8 17
      vertex -13 1.2 17
      vertex -13 1.8 30
    endloop
  endfacet
  facet normal -1 0 0
    outer loop
      vertex -13 11 16
      vertex -13 1.2 17
      vertex -13 1.8 17
    endloop
  endfacet
  facet normal -1 0 0
    outer loop
      vertex -13 11 16
      vertex -13 0.799999 17
      vertex -13 1.2 17
    endloop
  endfacet
  facet normal -1 0 0
    outer loop
      vertex -13 -15 16
      vertex -13 0.799999 17
      vertex -13 11 16
    endloop
  endfacet
  facet normal -1 0 0
    outer loop
      vertex -13 -15 30
      vertex -13 0.799999 17
      vertex -13 -15 16
    endloop
  endfacet
  facet normal -1 0 0
    outer loop
      vertex -13 0.799999 17
      vertex -13 -15 30
      vertex -13 0.799999 30
    endloop
  endfacet
  facet normal -1 -0 0
    outer loop
      vertex -13 11 30
      vertex -13 4.2 17
      vertex -13 4.2 30
    endloop
  endfacet
  facet normal -1 -0 0
    outer loop
      vertex -13 3.8 30
      vertex -13 3.2 17
      vertex -13 3.2 30
    endloop
  endfacet
  facet normal -1 -0 0
    outer loop
      vertex -13 2.8 30
      vertex -13 2.2 17
      vertex -13 2.2 30
    endloop
  endfacet
  facet normal -1 -0 0
    outer loop
      vertex -13 1.8 30
      vertex -13 1.2 17
      vertex -13 1.2 30
    endloop
  endfacet
  facet normal 0 0 1
    outer loop
      vertex -7 0.799999 30
      vertex -13 0.799999 30
      vertex -7 -11 30
    endloop
  endfacet
  facet normal 0 0 1
    outer loop
      vertex 7 -11 30
      vertex 13 0.799999 30
      vertex 7 0.799999 30
    endloop
  endfacet
  facet normal 0 0 1
    outer loop
      vertex 13 0.799999 30
      vertex 7 -11 30
      vertex 13 -15 30
    endloop
  endfacet
  facet normal -0 0 1
    outer loop
      vertex -7 -11 30
      vertex 13 -15 30
      vertex 7 -11 30
    endloop
  endfacet
  facet normal 0 0 1
    outer loop
      vertex -7 -11 30
      vertex -13 -15 30
      vertex 13 -15 30
    endloop
  endfacet
  facet normal 0 0 1
    outer loop
      vertex -13 -15 30
      vertex -7 -11 30
      vertex -13 0.799999 30
    endloop
  endfacet
  facet normal -0 0 1
    outer loop
      vertex 7 11 30
      vertex 13 4.2 30
      vertex 13 11 30
    endloop
  endfacet
  facet normal 0 0 1
    outer loop
      vertex 13 4.2 30
      vertex 7 11 30
      vertex 7 4.2 30
    endloop
  endfacet
  facet normal -0 0 1
    outer loop
      vertex -13 11 30
      vertex -7 4.2 30
      vertex -7 11 30
    endloop
  endfacet
  facet normal 0 0 1
    outer loop
      vertex -7 4.2 30
      vertex -13 11 30
      vertex -13 4.2 30
    endloop
  endfacet
  facet normal -0 0 1
    outer loop
      vertex -13 1.8 30
      vertex -7 1.2 30
      vertex -7 1.8 30
    endloop
  endfacet
  facet normal 0 0 1
    outer loop
      vertex -7 1.2 30
      vertex -13 1.8 30
      vertex -13 1.2 30
    endloop
  endfacet
  facet normal -0 0 1
    outer loop
      vertex 7 1.8 30
      vertex 13 1.2 30
      vertex 13 1.8 30
    endloop
  endfacet
  facet normal 0 0 1
    outer loop
      vertex 13 1.2 30
      vertex 7 1.8 30
      vertex 7 1.2 30
    endloop
  endfacet
  facet normal -0 0 1
    outer loop
      vertex -13 2.8 30
      vertex -7 2.2 30
      vertex -7 2.8 30
    endloop
  endfacet
  facet normal 0 0 1
    outer loop
      vertex -7 2.2 30
      vertex -13 2.8 30
      vertex -13 2.2 30
    endloop
  endfacet
  facet normal -0 0 1
    outer loop
      vertex 7 2.8 30
      vertex 13 2.2 30
      vertex 13 2.8 30
    endloop
  endfacet
  facet normal 0 0 1
    outer loop
      vertex 13 2.2 30
      vertex 7 2.8 30
      vertex 7 2.2 30
    endloop
  endfacet
  facet normal -0 0 1
    outer loop
      vertex -13 3.8 30
      vertex -7 3.2 30
      vertex -7 3.8 30
    endloop
  endfacet
  facet normal 0 0 1
    outer loop
      vertex -7 3.2 30
      vertex -13 3.8 30
      vertex -13 3.2 30
    endloop
  endfacet
  facet normal -0 0 1
    outer loop
      vertex 7 3.8 30
      vertex 13 3.2 30
      vertex 13 3.8 30
    endloop
  endfacet
  facet normal 0 0 1
    outer loop
      vertex 13 3.2 30
      vertex 7 3.8 30
      vertex 7 3.2 30
    endloop
  endfacet
  facet normal 1 0 0
    outer loop
      vertex 13 0.799999 30
      vertex 13 -15 30
      vertex 13 0.799999 17
    endloop
  endfacet
  facet normal 1 0 0
    outer loop
      vertex 13 1.8 30
      vertex 13 1.2 30
      vertex 13 1.8 17
    endloop
  endfacet
  facet normal 1 0 0
    outer loop
      vertex 13 2.8 30
      vertex 13 2.2 30
      vertex 13 2.8 17
    endloop
  endfacet
  facet normal 1 0 0
    outer loop
      vertex 13 3.8 30
      vertex 13 3.2 30
      vertex 13 3.8 17
    endloop
  endfacet
  facet normal 1 0 0
    outer loop
      vertex 13 4.2 17
      vertex 13 11 30
      vertex 13 4.2 30
    endloop
  endfacet
  facet normal 1 0 0
    outer loop
      vertex 13 11 30
      vertex 13 4.2 17
      vertex 13 11 16
    endloop
  endfacet
  facet normal 1 -0 0
    outer loop
      vertex 13 3.8 17
      vertex 13 11 16
      vertex 13 4.2 17
    endloop
  endfacet
  facet normal 1 0 0
    outer loop
      vertex 13 3.2 17
      vertex 13 3.8 17
      vertex 13 3.2 30
    endloop
  endfacet
  facet normal 1 -0 0
    outer loop
      vertex 13 3.2 17
      vertex 13 11 16
      vertex 13 3.8 17
    endloop
  endfacet
  facet normal 1 -0 0
    outer loop
      vertex 13 2.8 17
      vertex 13 11 16
      vertex 13 3.2 17
    endloop
  endfacet
  facet normal 1 0 0
    outer loop
      vertex 13 2.2 17
      vertex 13 2.8 17
      vertex 13 2.2 30
    endloop
  endfacet
  facet normal 1 -0 0
    outer loop
      vertex 13 2.2 17
      vertex 13 11 16
      vertex 13 2.8 17
    endloop
  endfacet
  facet normal 1 -0 0
    outer loop
      vertex 13 1.8 17
      vertex 13 11 16
      vertex 13 2.2 17
    endloop
  endfacet
  facet normal 1 0 0
    outer loop
      vertex 13 1.2 17
      vertex 13 1.8 17
      vertex 13 1.2 30
    endloop
  endfacet
  facet normal 1 -0 0
    outer loop
      vertex 13 1.2 17
      vertex 13 11 16
      vertex 13 1.8 17
    endloop
  endfacet
  facet normal 1 -0 0
    outer loop
      vertex 13 0.799999 17
      vertex 13 11 16
      vertex 13 1.2 17
    endloop
  endfacet
  facet normal 1 0 0
    outer loop
      vertex 13 0.799999 17
      vertex 13 -15 16
      vertex 13 11 16
    endloop
  endfacet
  facet normal 1 0 0
    outer loop
      vertex 13 -15 16
      vertex 13 0.799999 17
      vertex 13 -15 30
    endloop
  endfacet
  facet normal 0 0 -1
    outer loop
      vertex 13 -15 16
      vertex 7 -11 16
      vertex 13 11 16
    endloop
  endfacet
  facet normal 0 0 -1
    outer loop
      vertex 13 -15 16
      vertex -7 -11 16
      vertex 7 -11 16
    endloop
  endfacet
  facet normal 0 0 -1
    outer loop
      vertex -13 -15 16
      vertex -7 -11 16
      vertex 13 -15 16
    endloop
  endfacet
  facet normal 0 0 -1
    outer loop
      vertex -13 11 16
      vertex -7 -11 16
      vertex -13 -15 16
    endloop
  endfacet
  facet normal 0 0 -1
    outer loop
      vertex -7 -11 16
      vertex -13 11 16
      vertex -7 11 16
    endloop
  endfacet
  facet normal -0 0 -1
    outer loop
      vertex 13 11 16
      vertex 7 -11 16
      vertex 7 11 16
    endloop
  endfacet
  facet normal 0 -1 0
    outer loop
      vertex -13 -15 16
      vertex 13 -15 30
      vertex -13 -15 30
    endloop
  endfacet
  facet normal 0 -1 -0
    outer loop
      vertex 13 -15 30
      vertex -13 -15 16
      vertex 13 -15 16
    endloop
  endfacet
  facet normal 0 1 -0
    outer loop
      vertex 13 11 16
      vertex 7 11 30
      vertex 13 11 30
    endloop
  endfacet
  facet normal 0 1 0
    outer loop
      vertex 7 11 30
      vertex 13 11 16
      vertex 7 11 16
    endloop
  endfacet
  facet normal 0 1 -0
    outer loop
      vertex -7 11 16
      vertex -13 11 30
      vertex -7 11 30
    endloop
  endfacet
  facet normal 0 1 0
    outer loop
      vertex -13 11 30
      vertex -7 11 16
      vertex -13 11 16
    endloop
  endfacet
  facet normal 1 0 0
    outer loop
      vertex -7 0.799999 30
      vertex -7 -11 30
      vertex -7 0.799999 17
    endloop
  endfacet
  facet normal 1 0 0
    outer loop
      vertex -7 1.8 30
      vertex -7 1.2 30
      vertex -7 1.8 17
    endloop
  endfacet
  facet normal 1 0 0
    outer loop
      vertex -7 2.8 30
      vertex -7 2.2 30
      vertex -7 2.8 17
    endloop
  endfacet
  facet normal 1 0 0
    outer loop
      vertex -7 3.8 30
      vertex -7 3.2 30
      vertex -7 3.8 17
    endloop
  endfacet
  facet normal 1 0 0
    outer loop
      vertex -7 4.2 17
      vertex -7 11 30
      vertex -7 4.2 30
    endloop
  endfacet
  facet normal 1 0 0
    outer loop
      vertex -7 11 30
      vertex -7 4.2 17
      vertex -7 11 16
    endloop
  endfacet
  facet normal 1 -0 0
    outer loop
      vertex -7 3.8 17
      vertex -7 11 16
      vertex -7 4.2 17
    endloop
  endfacet
  facet normal 1 0 0
    outer loop
      vertex -7 3.2 17
      vertex -7 3.8 17
      vertex -7 3.2 30
    endloop
  endfacet
  facet normal 1 -0 0
    outer loop
      vertex -7 3.2 17
      vertex -7 11 16
      vertex -7 3.8 17
    endloop
  endfacet
  facet normal 1 -0 0
    outer loop
      vertex -7 2.8 17
      vertex -7 11 16
      vertex -7 3.2 17
    endloop
  endfacet
  facet normal 1 0 0
    outer loop
      vertex -7 2.2 17
      vertex -7 2.8 17
      vertex -7 2.2 30
    endloop
  endfacet
  facet normal 1 -0 0
    outer loop
      vertex -7 2.2 17
      vertex -7 11 16
      vertex -7 2.8 17
    endloop
  endfacet
  facet normal 1 -0 0
    outer loop
      vertex -7 1.8 17
      vertex -7 11 16
      vertex -7 2.2 17
    endloop
  endfacet
  facet normal 1 0 0
    outer loop
      vertex -7 1.2 17
      vertex -7 1.8 17
      vertex -7 1.2 30
    endloop
  endfacet
  facet normal 1 -0 0
    outer loop
      vertex -7 1.2 17
      vertex -7 11 16
      vertex -7 1.8 17
    endloop
  endfacet
  facet normal 1 -0 0
    outer loop
      vertex -7 0.799999 17
      vertex -7 11 16
      vertex -7 1.2 17
    endloop
  endfacet
  facet normal 1 0 0
    outer loop
      vertex -7 0.799999 17
      vertex -7 -11 16
      vertex -7 11 16
    endloop
  endfacet
  facet normal 1 0 0
    outer loop
      vertex -7 -11 16
      vertex -7 0.799999 17
      vertex -7 -11 30
    endloop
  endfacet
  facet normal -1 0 0
    outer loop
      vertex 7 11 16
      vertex 7 4.2 17
      vertex 7 11 30
    endloop
  endfacet
  facet normal -1 0 0
    outer loop
      vertex 7 11 16
      vertex 7 3.8 17
      vertex 7 4.2 17
    endloop
  endfacet
  facet normal -1 0 0
    outer loop
      vertex 7 3.8 17
      vertex 7 3.2 17
      vertex 7 3.8 30
    endloop
  endfacet
  facet normal -1 0 0
    outer loop
      vertex 7 11 16
      vertex 7 3.2 17
      vertex 7 3.8 17
    endloop
  endfacet
  facet normal -1 0 0
    outer loop
      vertex 7 11 16
      vertex 7 2.8 17
      vertex 7 3.2 17
    endloop
  endfacet
  facet normal -1 0 0
    outer loop
      vertex 7 2.8 17
      vertex 7 2.2 17
      vertex 7 2.8 30
    endloop
  endfacet
  facet normal -1 0 0
    outer loop
      vertex 7 11 16
      vertex 7 2.2 17
      vertex 7 2.8 17
    endloop
  endfacet
  facet normal -1 0 0
    outer loop
      vertex 7 11 16
      vertex 7 1.8 17
      vertex 7 2.2 17
    endloop
  endfacet
  facet normal -1 0 0
    outer loop
      vertex 7 1.8 17
      vertex 7 1.2 17
      vertex 7 1.8 30
    endloop
  endfacet
  facet normal -1 0 0
    outer loop
      vertex 7 11 16
      vertex 7 1.2 17
      vertex 7 1.8 17
    endloop
  endfacet
  facet normal -1 0 0
    outer loop
      vertex 7 11 16
      vertex 7 0.799999 17
      vertex 7 1.2 17
    endloop
  endfacet
  facet normal -1 0 0
    outer loop
      vertex 7 -11 16
      vertex 7 0.799999 17
      vertex 7 11 16
    endloop
  endfacet
  facet normal -1 0 0
    outer loop
      vertex 7 -11 30
      vertex 7 0.799999 17
      vertex 7 -11 16
    endloop
  endfacet
  facet normal -1 0 0
    outer loop
      vertex 7 0.799999 17
      vertex 7 -11 30
      vertex 7 0.799999 30
    endloop
  endfacet
  facet normal -1 -0 0
    outer loop
      vertex 7 11 30
      vertex 7 4.2 17
      vertex 7 4.2 30
    endloop
  endfacet
  facet normal -1 -0 0
    outer loop
      vertex 7 3.8 30
      vertex 7 3.2 17
      vertex 7 3.2 30
    endloop
  endfacet
  facet normal -1 -0 0
    outer loop
      vertex 7 2.8 30
      vertex 7 2.2 17
      vertex 7 2.2 30
    endloop
  endfacet
  facet normal -1 -0 0
    outer loop
      vertex 7 1.8 30
      vertex 7 1.2 17
      vertex 7 1.2 30
    endloop
  endfacet
  facet normal 0 1 -0
    outer loop
      vertex 7 -11 16
      vertex -7 -11 30
      vertex 7 -11 30
    endloop
  endfacet
  facet normal 0 1 0
    outer loop
      vertex -7 -11 30
      vertex 7 -11 16
      vertex -7 -11 16
    endloop
  endfacet
endsolid OpenSCAD_Model
