solid OpenSCAD_Model
  facet normal -1 0 0
    outer loop
      vertex -26.5 -21.5 -3.5
      vertex -26.5 21.5 3.5
      vertex -26.5 21.5 -3.5
    endloop
  endfacet
  facet normal -1 -0 0
    outer loop
      vertex -26.5 21.5 3.5
      vertex -26.5 -21.5 -3.5
      vertex -26.5 -21.5 3.5
    endloop
  endfacet
  facet normal 0 0 1
    outer loop
      vertex 26.5 21.5 3.5
      vertex 20.5 14.5 3.5
      vertex 26.5 -21.5 3.5
    endloop
  endfacet
  facet normal 0 0 1
    outer loop
      vertex 26.5 21.5 3.5
      vertex -20.5 14.5 3.5
      vertex 20.5 14.5 3.5
    endloop
  endfacet
  facet normal 0 0 1
    outer loop
      vertex -20.5 14.5 3.5
      vertex -26.5 21.5 3.5
      vertex -20.5 -14.5 3.5
    endloop
  endfacet
  facet normal -0 0 1
    outer loop
      vertex -26.5 21.5 3.5
      vertex -20.5 14.5 3.5
      vertex 26.5 21.5 3.5
    endloop
  endfacet
  facet normal -0 0 1
    outer loop
      vertex 20.5 -14.5 3.5
      vertex 26.5 -21.5 3.5
      vertex 20.5 14.5 3.5
    endloop
  endfacet
  facet normal -0 0 1
    outer loop
      vertex -20.5 -14.5 3.5
      vertex 26.5 -21.5 3.5
      vertex 20.5 -14.5 3.5
    endloop
  endfacet
  facet normal 0 0 1
    outer loop
      vertex -20.5 -14.5 3.5
      vertex -26.5 -21.5 3.5
      vertex 26.5 -21.5 3.5
    endloop
  endfacet
  facet normal 0 0 1
    outer loop
      vertex -26.5 -21.5 3.5
      vertex -20.5 -14.5 3.5
      vertex -26.5 21.5 3.5
    endloop
  endfacet
  facet normal 1 0 0
    outer loop
      vertex 26.5 -16.5 -1.5
      vertex 26.5 -18 -1.5
      vertex 26.5 -16.5 -1.6
    endloop
  endfacet
  facet normal 1 0 0
    outer loop
      vertex 26.5 21.5 3.5
      vertex 26.5 20.5 1.6
      vertex 26.5 21.5 -3.5
    endloop
  endfacet
  facet normal 1 0 0
    outer loop
      vertex 26.5 21.5 3.5
      vertex 26.5 -16.5 1.6
      vertex 26.5 20.5 1.6
    endloop
  endfacet
  facet normal 1 0 0
    outer loop
      vertex 26.5 -16.5 1.6
      vertex 26.5 -18 1.5
      vertex 26.5 -16.5 1.5
    endloop
  endfacet
  facet normal 1 0 0
    outer loop
      vertex 26.5 -18 1.5
      vertex 26.5 -21.5 3.5
      vertex 26.5 -18 -1.5
    endloop
  endfacet
  facet normal 1 0 0
    outer loop
      vertex 26.5 -16.5 1.6
      vertex 26.5 -21.5 3.5
      vertex 26.5 -18 1.5
    endloop
  endfacet
  facet normal 1 -0 0
    outer loop
      vertex 26.5 -21.5 3.5
      vertex 26.5 -16.5 1.6
      vertex 26.5 21.5 3.5
    endloop
  endfacet
  facet normal 1 -0 0
    outer loop
      vertex 26.5 20.5 -1.6
      vertex 26.5 21.5 -3.5
      vertex 26.5 20.5 1.6
    endloop
  endfacet
  facet normal 1 -0 0
    outer loop
      vertex 26.5 -16.5 -1.6
      vertex 26.5 21.5 -3.5
      vertex 26.5 20.5 -1.6
    endloop
  endfacet
  facet normal 1 0 0
    outer loop
      vertex 26.5 -16.5 -1.6
      vertex 26.5 -21.5 -3.5
      vertex 26.5 21.5 -3.5
    endloop
  endfacet
  facet normal 1 0 0
    outer loop
      vertex 26.5 -18 -1.5
      vertex 26.5 -21.5 -3.5
      vertex 26.5 -16.5 -1.6
    endloop
  endfacet
  facet normal 1 0 0
    outer loop
      vertex 26.5 -21.5 -3.5
      vertex 26.5 -18 -1.5
      vertex 26.5 -21.5 3.5
    endloop
  endfacet
  facet normal 0 1 -0
    outer loop
      vertex 26.5 21.5 -3.5
      vertex -26.5 21.5 3.5
      vertex 26.5 21.5 3.5
    endloop
  endfacet
  facet normal 0 1 0
    outer loop
      vertex -26.5 21.5 3.5
      vertex 26.5 21.5 -3.5
      vertex -26.5 21.5 -3.5
    endloop
  endfacet
  facet normal 0 0 -1
    outer loop
      vertex 26.5 -21.5 -3.5
      vertex 20.5 -14.5 -3.5
      vertex 26.5 21.5 -3.5
    endloop
  endfacet
  facet normal 0 0 -1
    outer loop
      vertex 26.5 -21.5 -3.5
      vertex -20.5 -14.5 -3.5
      vertex 20.5 -14.5 -3.5
    endloop
  endfacet
  facet normal -0 0 -1
    outer loop
      vertex -20.5 -14.5 -3.5
      vertex -26.5 -21.5 -3.5
      vertex -20.5 14.5 -3.5
    endloop
  endfacet
  facet normal 0 0 -1
    outer loop
      vertex -26.5 -21.5 -3.5
      vertex -20.5 -14.5 -3.5
      vertex 26.5 -21.5 -3.5
    endloop
  endfacet
  facet normal 0 0 -1
    outer loop
      vertex 20.5 14.5 -3.5
      vertex 26.5 21.5 -3.5
      vertex 20.5 -14.5 -3.5
    endloop
  endfacet
  facet normal 0 0 -1
    outer loop
      vertex -20.5 14.5 -3.5
      vertex 26.5 21.5 -3.5
      vertex 20.5 14.5 -3.5
    endloop
  endfacet
  facet normal 0 0 -1
    outer loop
      vertex -20.5 14.5 -3.5
      vertex -26.5 21.5 -3.5
      vertex 26.5 21.5 -3.5
    endloop
  endfacet
  facet normal 0 0 -1
    outer loop
      vertex -26.5 21.5 -3.5
      vertex -20.5 14.5 -3.5
      vertex -26.5 -21.5 -3.5
    endloop
  endfacet
  facet normal 0 -1 0
    outer loop
      vertex -26.5 -21.5 -3.5
      vertex 26.5 -21.5 3.5
      vertex -26.5 -21.5 3.5
    endloop
  endfacet
  facet normal 0 -1 -0
    outer loop
      vertex 26.5 -21.5 3.5
      vertex -26.5 -21.5 -3.5
      vertex 26.5 -21.5 -3.5
    endloop
  endfacet
  facet normal 1 -0 0
    outer loop
      vertex -25 -18 1.5
      vertex -25 18 -1.5
      vertex -25 18 1.5
    endloop
  endfacet
  facet normal 1 0 0
    outer loop
      vertex -25 18 -1.5
      vertex -25 -18 1.5
      vertex -25 -18 -1.5
    endloop
  endfacet
  facet normal 0 0 -1
    outer loop
      vertex 26.5 -18 1.5
      vertex -3 -16.5 1.5
      vertex 26.5 -16.5 1.5
    endloop
  endfacet
  facet normal 0 0 -1
    outer loop
      vertex -3 -16.5 1.5
      vertex -20.5 -14.5 1.5
      vertex -3 -14.5 1.5
    endloop
  endfacet
  facet normal -0 0 -1
    outer loop
      vertex -20.5 -14.5 1.5
      vertex -25 -18 1.5
      vertex -20.5 14.5 1.5
    endloop
  endfacet
  facet normal -0 0 -1
    outer loop
      vertex -3 -16.5 1.5
      vertex -25 -18 1.5
      vertex -20.5 -14.5 1.5
    endloop
  endfacet
  facet normal 0 0 -1
    outer loop
      vertex -25 -18 1.5
      vertex -3 -16.5 1.5
      vertex 26.5 -18 1.5
    endloop
  endfacet
  facet normal 0 0 -1
    outer loop
      vertex -20.5 14.5 1.5
      vertex -3 18 1.5
      vertex -3 14.5 1.5
    endloop
  endfacet
  facet normal 0 0 -1
    outer loop
      vertex -20.5 14.5 1.5
      vertex -25 18 1.5
      vertex -3 18 1.5
    endloop
  endfacet
  facet normal 0 0 -1
    outer loop
      vertex -25 18 1.5
      vertex -20.5 14.5 1.5
      vertex -25 -18 1.5
    endloop
  endfacet
  facet normal 0 0 1
    outer loop
      vertex -3 18 -1.5
      vertex -20.5 14.5 -1.5
      vertex -3 14.5 -1.5
    endloop
  endfacet
  facet normal 0 0 1
    outer loop
      vertex -20.5 14.5 -1.5
      vertex -25 18 -1.5
      vertex -20.5 -14.5 -1.5
    endloop
  endfacet
  facet normal -0 0 1
    outer loop
      vertex -25 18 -1.5
      vertex -20.5 14.5 -1.5
      vertex -3 18 -1.5
    endloop
  endfacet
  facet normal 0 0 1
    outer loop
      vertex -3 -14.5 -1.5
      vertex -20.5 -14.5 -1.5
      vertex -3 -16.5 -1.5
    endloop
  endfacet
  facet normal -0 0 1
    outer loop
      vertex -3 -16.5 -1.5
      vertex 26.5 -18 -1.5
      vertex 26.5 -16.5 -1.5
    endloop
  endfacet
  facet normal 0 0 1
    outer loop
      vertex -3 -16.5 -1.5
      vertex -25 -18 -1.5
      vertex 26.5 -18 -1.5
    endloop
  endfacet
  facet normal 0 0 1
    outer loop
      vertex -20.5 -14.5 -1.5
      vertex -25 -18 -1.5
      vertex -3 -16.5 -1.5
    endloop
  endfacet
  facet normal 0 0 1
    outer loop
      vertex -25 -18 -1.5
      vertex -20.5 -14.5 -1.5
      vertex -25 18 -1.5
    endloop
  endfacet
  facet normal 0 1 -0
    outer loop
      vertex 26.5 -18 -1.5
      vertex -25 -18 1.5
      vertex 26.5 -18 1.5
    endloop
  endfacet
  facet normal 0 1 0
    outer loop
      vertex -25 -18 1.5
      vertex 26.5 -18 -1.5
      vertex -25 -18 -1.5
    endloop
  endfacet
  facet normal 0 -1 0
    outer loop
      vertex -25 18 -1.5
      vertex -3 18 1.5
      vertex -25 18 1.5
    endloop
  endfacet
  facet normal 0 -1 -0
    outer loop
      vertex -3 18 1.5
      vertex -25 18 -1.5
      vertex -3 18 -1.5
    endloop
  endfacet
  facet normal 1 -0 0
    outer loop
      vertex -3 -16.5 1.6
      vertex -3 -14.5 1.5
      vertex -3 -14.5 1.6
    endloop
  endfacet
  facet normal 1 0 0
    outer loop
      vertex -3 -14.5 1.5
      vertex -3 -16.5 1.6
      vertex -3 -16.5 1.5
    endloop
  endfacet
  facet normal 1 0 0
    outer loop
      vertex -3 20.5 1.6
      vertex -3 18 1.5
      vertex -3 20.5 -1.6
    endloop
  endfacet
  facet normal 1 -0 0
    outer loop
      vertex -3 14.5 1.6
      vertex -3 18 1.5
      vertex -3 20.5 1.6
    endloop
  endfacet
  facet normal 1 0 0
    outer loop
      vertex -3 18 1.5
      vertex -3 14.5 1.6
      vertex -3 14.5 1.5
    endloop
  endfacet
  facet normal 1 -0 0
    outer loop
      vertex -3 18 -1.5
      vertex -3 20.5 -1.6
      vertex -3 18 1.5
    endloop
  endfacet
  facet normal 1 0 0
    outer loop
      vertex -3 14.5 -1.6
      vertex -3 18 -1.5
      vertex -3 14.5 -1.5
    endloop
  endfacet
  facet normal 1 0 0
    outer loop
      vertex -3 18 -1.5
      vertex -3 14.5 -1.6
      vertex -3 20.5 -1.6
    endloop
  endfacet
  facet normal 1 -0 0
    outer loop
      vertex -3 -16.5 -1.5
      vertex -3 -14.5 -1.6
      vertex -3 -14.5 -1.5
    endloop
  endfacet
  facet normal 1 0 0
    outer loop
      vertex -3 -14.5 -1.6
      vertex -3 -16.5 -1.5
      vertex -3 -16.5 -1.6
    endloop
  endfacet
  facet normal 0 0 -1
    outer loop
      vertex 20.5 14.5 1.6
      vertex 26.5 -16.5 1.6
      vertex 20.5 -14.5 1.6
    endloop
  endfacet
  facet normal 0 0 -1
    outer loop
      vertex -3 -16.5 1.6
      vertex 20.5 -14.5 1.6
      vertex 26.5 -16.5 1.6
    endloop
  endfacet
  facet normal -0 0 -1
    outer loop
      vertex 20.5 -14.5 1.6
      vertex -3 -16.5 1.6
      vertex -3 -14.5 1.6
    endloop
  endfacet
  facet normal 0 0 -1
    outer loop
      vertex 26.5 -16.5 1.6
      vertex 20.5 14.5 1.6
      vertex 26.5 20.5 1.6
    endloop
  endfacet
  facet normal 0 0 -1
    outer loop
      vertex -3 20.5 1.6
      vertex 20.5 14.5 1.6
      vertex -3 14.5 1.6
    endloop
  endfacet
  facet normal 0 0 -1
    outer loop
      vertex 20.5 14.5 1.6
      vertex -3 20.5 1.6
      vertex 26.5 20.5 1.6
    endloop
  endfacet
  facet normal 0 0 1
    outer loop
      vertex 26.5 20.5 -1.6
      vertex 20.5 14.5 -1.6
      vertex 26.5 -16.5 -1.6
    endloop
  endfacet
  facet normal -0 0 1
    outer loop
      vertex -3 20.5 -1.6
      vertex 20.5 14.5 -1.6
      vertex 26.5 20.5 -1.6
    endloop
  endfacet
  facet normal 0 0 1
    outer loop
      vertex 20.5 14.5 -1.6
      vertex -3 20.5 -1.6
      vertex -3 14.5 -1.6
    endloop
  endfacet
  facet normal -0 0 1
    outer loop
      vertex 20.5 -14.5 -1.6
      vertex 26.5 -16.5 -1.6
      vertex 20.5 14.5 -1.6
    endloop
  endfacet
  facet normal 0 0 1
    outer loop
      vertex -3 -16.5 -1.6
      vertex 20.5 -14.5 -1.6
      vertex -3 -14.5 -1.6
    endloop
  endfacet
  facet normal 0 0 1
    outer loop
      vertex 20.5 -14.5 -1.6
      vertex -3 -16.5 -1.6
      vertex 26.5 -16.5 -1.6
    endloop
  endfacet
  facet normal 0 1 -0
    outer loop
      vertex 26.5 -16.5 1.5
      vertex -3 -16.5 1.6
      vertex 26.5 -16.5 1.6
    endloop
  endfacet
  facet normal 0 1 0
    outer loop
      vertex -3 -16.5 1.6
      vertex 26.5 -16.5 1.5
      vertex -3 -16.5 1.5
    endloop
  endfacet
  facet normal 0 1 -0
    outer loop
      vertex 26.5 -16.5 -1.6
      vertex -3 -16.5 -1.5
      vertex 26.5 -16.5 -1.5
    endloop
  endfacet
  facet normal 0 1 0
    outer loop
      vertex -3 -16.5 -1.5
      vertex 26.5 -16.5 -1.6
      vertex -3 -16.5 -1.6
    endloop
  endfacet
  facet normal 0 -1 0
    outer loop
      vertex -3 20.5 -1.6
      vertex 26.5 20.5 1.6
      vertex -3 20.5 1.6
    endloop
  endfacet
  facet normal 0 -1 -0
    outer loop
      vertex 26.5 20.5 1.6
      vertex -3 20.5 -1.6
      vertex 26.5 20.5 -1.6
    endloop
  endfacet
  facet normal 1 -0 0
    outer loop
      vertex -20.5 -14.5 -1.5
      vertex -20.5 14.5 -3.5
      vertex -20.5 14.5 -1.5
    endloop
  endfacet
  facet normal 1 0 0
    outer loop
      vertex -20.5 14.5 -3.5
      vertex -20.5 -14.5 -1.5
      vertex -20.5 -14.5 -3.5
    endloop
  endfacet
  facet normal 1 -0 0
    outer loop
      vertex -20.5 -14.5 3.5
      vertex -20.5 14.5 1.5
      vertex -20.5 14.5 3.5
    endloop
  endfacet
  facet normal 1 0 0
    outer loop
      vertex -20.5 14.5 1.5
      vertex -20.5 -14.5 3.5
      vertex -20.5 -14.5 1.5
    endloop
  endfacet
  facet normal -1 0 0
    outer loop
      vertex 20.5 -14.5 -3.5
      vertex 20.5 14.5 -1.6
      vertex 20.5 14.5 -3.5
    endloop
  endfacet
  facet normal -1 -0 0
    outer loop
      vertex 20.5 14.5 -1.6
      vertex 20.5 -14.5 -3.5
      vertex 20.5 -14.5 -1.6
    endloop
  endfacet
  facet normal -1 0 0
    outer loop
      vertex 20.5 -14.5 1.6
      vertex 20.5 14.5 3.5
      vertex 20.5 14.5 1.6
    endloop
  endfacet
  facet normal -1 -0 0
    outer loop
      vertex 20.5 14.5 3.5
      vertex 20.5 -14.5 1.6
      vertex 20.5 -14.5 3.5
    endloop
  endfacet
  facet normal 0 -1 0
    outer loop
      vertex -20.5 14.5 -1.5
      vertex -3 14.5 -1.6
      vertex -3 14.5 -1.5
    endloop
  endfacet
  facet normal 0 -1 0
    outer loop
      vertex -20.5 14.5 -3.5
      vertex -3 14.5 -1.6
      vertex -20.5 14.5 -1.5
    endloop
  endfacet
  facet normal 0 -1 0
    outer loop
      vertex 20.5 14.5 -3.5
      vertex -3 14.5 -1.6
      vertex -20.5 14.5 -3.5
    endloop
  endfacet
  facet normal 0 -1 0
    outer loop
      vertex -3 14.5 -1.6
      vertex 20.5 14.5 -3.5
      vertex 20.5 14.5 -1.6
    endloop
  endfacet
  facet normal 0 -1 0
    outer loop
      vertex -20.5 14.5 3.5
      vertex -3 14.5 1.6
      vertex 20.5 14.5 3.5
    endloop
  endfacet
  facet normal 0 -1 0
    outer loop
      vertex -20.5 14.5 1.5
      vertex -3 14.5 1.6
      vertex -20.5 14.5 3.5
    endloop
  endfacet
  facet normal 0 -1 -0
    outer loop
      vertex -3 14.5 1.6
      vertex -20.5 14.5 1.5
      vertex -3 14.5 1.5
    endloop
  endfacet
  facet normal 0 -1 -0
    outer loop
      vertex 20.5 14.5 3.5
      vertex -3 14.5 1.6
      vertex 20.5 14.5 1.6
    endloop
  endfacet
  facet normal 0 1 0
    outer loop
      vertex 20.5 -14.5 -1.6
      vertex 20.5 -14.5 -3.5
      vertex -3 -14.5 -1.6
    endloop
  endfacet
  facet normal 0 1 -0
    outer loop
      vertex -3 -14.5 -1.6
      vertex -20.5 -14.5 -1.5
      vertex -3 -14.5 -1.5
    endloop
  endfacet
  facet normal 0 1 0
    outer loop
      vertex -20.5 -14.5 -3.5
      vertex -3 -14.5 -1.6
      vertex 20.5 -14.5 -3.5
    endloop
  endfacet
  facet normal 0 1 0
    outer loop
      vertex -3 -14.5 -1.6
      vertex -20.5 -14.5 -3.5
      vertex -20.5 -14.5 -1.5
    endloop
  endfacet
  facet normal 0 1 0
    outer loop
      vertex -3 -14.5 1.6
      vertex 20.5 -14.5 3.5
      vertex 20.5 -14.5 1.6
    endloop
  endfacet
  facet normal 0 1 0
    outer loop
      vertex 20.5 -14.5 3.5
      vertex -3 -14.5 1.6
      vertex -20.5 -14.5 3.5
    endloop
  endfacet
  facet normal 0 1 0
    outer loop
      vertex -20.5 -14.5 1.5
      vertex -3 -14.5 1.6
      vertex -3 -14.5 1.5
    endloop
  endfacet
  facet normal 0 1 0
    outer loop
      vertex -3 -14.5 1.6
      vertex -20.5 -14.5 1.5
      vertex -20.5 -14.5 3.5
    endloop
  endfacet
endsolid OpenSCAD_Model
